M48
; DRILL file {KiCad 5.1.5-52549c5~84~ubuntu18.04.1} date Tue 10 Mar 2020 09:37:38 AM PDT
; FORMAT={-:-/ absolute / inch / decimal}
; #@! TF.CreationDate,2020-03-10T09:37:38-07:00
; #@! TF.GenerationSoftware,Kicad,Pcbnew,5.1.5-52549c5~84~ubuntu18.04.1
; #@! TF.FileFunction,Plated,1,2,PTH
FMAT,2
INCH
T1C0.0079
T2C0.0080
%
G90
G05
T1
X8.1181Y-3.9035
T2
X6.8307Y-3.6417
X6.8406Y-3.1496
X6.998Y-3.1496
X7.0177Y-3.6417
X7.0866Y-3.5433
X7.0866Y-3.7402
X7.1358Y-3.1496
X7.1358Y-3.6417
X7.2336Y-3.1503
X7.2341Y-3.6417
X7.2343Y-3.248
X7.2343Y-3.3465
X7.2343Y-3.4449
X7.2343Y-3.5433
X7.2638Y-4.0591
X7.2638Y-4.3051
X7.2953Y-4.061
X7.2953Y-4.3051
X7.3327Y-3.1496
X7.3327Y-3.248
X7.3327Y-3.3465
X7.3327Y-3.4449
X7.3327Y-3.5433
X7.3327Y-3.6416
X7.4311Y-3.1496
X7.4311Y-3.248
X7.4311Y-3.3465
X7.4311Y-3.4449
X7.4311Y-3.5433
X7.4311Y-3.6414
X7.5295Y-3.6396
X7.5295Y-3.1496
X7.5295Y-3.248
X7.5295Y-3.3465
X7.5295Y-3.4449
X7.5295Y-3.5433
X7.6043Y-4.3209
X7.624Y-3.9035
X7.628Y-3.1496
X7.628Y-3.248
X7.628Y-3.3465
X7.628Y-3.4449
X7.628Y-3.5433
X7.628Y-3.6419
X7.6299Y-3.9783
X7.7229Y-3.5398
X7.7264Y-3.1496
X7.7264Y-3.248
X7.7264Y-3.3465
X7.7264Y-3.4449
X7.7264Y-3.6419
X7.7343Y-4.3287
X7.7854Y-3.8189
X7.7854Y-3.8386
X7.7854Y-3.8583
X7.7854Y-3.937
X7.7854Y-3.9567
X7.7854Y-3.9764
X7.7953Y-3.9173
X7.8051Y-3.8386
X7.8051Y-3.8583
X7.8051Y-3.878
X7.8051Y-3.937
X7.8051Y-3.9567
X7.8051Y-3.9764
X7.8248Y-2.9528
X7.8248Y-3.0512
X7.8248Y-3.1496
X7.8248Y-3.248
X7.8248Y-3.3465
X7.8248Y-3.4449
X7.8248Y-3.5433
X7.8248Y-3.6417
X7.8248Y-3.7402
X7.8248Y-3.8189
X7.8248Y-3.8386
X7.8248Y-3.8583
X7.8248Y-3.9173
X7.8248Y-3.937
X7.8248Y-3.9567
X7.8248Y-3.9764
X7.8445Y-3.7992
X7.8445Y-3.8386
X7.8445Y-3.8976
X7.8445Y-3.937
X7.8445Y-3.9567
X7.8445Y-3.9764
X7.8642Y-3.8583
X7.8642Y-3.9567
X7.8839Y-2.8445
X7.8839Y-3.8189
X7.8839Y-3.9173
X7.9035Y-3.8386
X7.9035Y-3.878
X7.9035Y-3.937
X7.9035Y-3.9665
X7.9232Y-2.9528
X7.9232Y-3.0512
X7.9232Y-3.1496
X7.9232Y-3.248
X7.9232Y-3.3465
X7.9232Y-3.4449
X7.9232Y-3.5433
X7.9232Y-3.6417
X7.9232Y-3.7402
X7.9232Y-3.8189
X7.9232Y-3.8386
X7.9232Y-3.8583
X7.9232Y-3.9173
X7.9232Y-3.937
X7.9232Y-3.9567
X7.9232Y-3.9764
X7.9429Y-3.7992
X7.9429Y-3.8189
X7.9429Y-3.8386
X7.9429Y-3.8976
X7.9429Y-3.9173
X7.9429Y-3.937
X7.9429Y-3.9567
X7.9429Y-3.9764
X7.9626Y-3.8189
X7.9626Y-3.8386
X7.9626Y-3.8583
X7.9626Y-3.9173
X7.9626Y-3.937
X7.9626Y-3.9567
X7.9626Y-3.9764
X8.0217Y-3.1496
X8.0217Y-3.3465
X8.0217Y-3.4449
X8.0217Y-3.5433
X8.0217Y-3.6417
X8.0217Y-4.3445
X8.0223Y-3.2487
X8.1161Y-3.9783
X8.1201Y-3.248
X8.1201Y-3.3465
X8.1201Y-3.4449
X8.1201Y-3.5433
X8.1201Y-3.6417
X8.1202Y-3.1496
X8.1437Y-4.3307
X8.2185Y-3.1496
X8.2185Y-3.248
X8.2185Y-3.3465
X8.2185Y-3.4449
X8.2185Y-3.5433
X8.2185Y-3.6417
X8.3169Y-3.1496
X8.3169Y-3.248
X8.3169Y-3.3465
X8.3169Y-3.4449
X8.3169Y-3.5433
X8.3169Y-3.6417
X8.4154Y-3.1496
X8.4154Y-3.248
X8.4154Y-3.3465
X8.4154Y-3.4449
X8.4154Y-3.5433
X8.4154Y-3.6417
X8.4646Y-4.0984
X8.4646Y-4.2894
X8.5117Y-3.6417
X8.5138Y-3.1496
X8.5138Y-3.248
X8.5138Y-3.3465
X8.5138Y-3.4449
X8.5138Y-3.5433
X8.5157Y-4.0984
X8.5157Y-4.2894
X8.6122Y-3.1496
X8.6122Y-3.6417
X8.6614Y-3.0512
X8.6614Y-3.248
X8.6614Y-3.5433
X8.6614Y-3.7402
X8.7323Y-3.1496
X8.7598Y-3.6417
X8.9075Y-3.1496
X8.9075Y-3.6417
T0
M30
