G04 #@! TF.GenerationSoftware,KiCad,Pcbnew,5.1.5-52549c5~84~ubuntu18.04.1*
G04 #@! TF.CreationDate,2020-03-06T12:12:08-08:00*
G04 #@! TF.ProjectId,PD_ElectrodeBoard_v4,50445f45-6c65-4637-9472-6f6465426f61,4*
G04 #@! TF.SameCoordinates,Original*
G04 #@! TF.FileFunction,Soldermask,Bot*
G04 #@! TF.FilePolarity,Negative*
%FSLAX46Y46*%
G04 Gerber Fmt 4.6, Leading zero omitted, Abs format (unit mm)*
G04 Created by KiCad (PCBNEW 5.1.5-52549c5~84~ubuntu18.04.1) date 2020-03-06 12:12:08*
%MOMM*%
%LPD*%
G04 APERTURE LIST*
%ADD10C,0.100000*%
G04 APERTURE END LIST*
D10*
G36*
X250000000Y-124000000D02*
G01*
X240000000Y-124000000D01*
X240000000Y-114000000D01*
X250000000Y-114000000D01*
X250000000Y-124000000D01*
G37*
G36*
X160000000Y-124000000D02*
G01*
X150000000Y-124000000D01*
X150000000Y-114000000D01*
X160000000Y-114000000D01*
X160000000Y-124000000D01*
G37*
G36*
X216285916Y-119594446D02*
G01*
X216355075Y-119615425D01*
X216418803Y-119649488D01*
X216474666Y-119695334D01*
X216520512Y-119751197D01*
X216554575Y-119814925D01*
X216575554Y-119884084D01*
X216583000Y-119959686D01*
X216583000Y-120840314D01*
X216575554Y-120915916D01*
X216554575Y-120985075D01*
X216520512Y-121048803D01*
X216474666Y-121104666D01*
X216418803Y-121150512D01*
X216355075Y-121184575D01*
X216285916Y-121205554D01*
X216210314Y-121213000D01*
X215329686Y-121213000D01*
X215254084Y-121205554D01*
X215184925Y-121184575D01*
X215121197Y-121150512D01*
X215065334Y-121104666D01*
X215019488Y-121048803D01*
X214985425Y-120985075D01*
X214964446Y-120915916D01*
X214957000Y-120840314D01*
X214957000Y-119959686D01*
X214964446Y-119884084D01*
X214985425Y-119814925D01*
X215019488Y-119751197D01*
X215065334Y-119695334D01*
X215121197Y-119649488D01*
X215184925Y-119615425D01*
X215254084Y-119594446D01*
X215329686Y-119587000D01*
X216210314Y-119587000D01*
X216285916Y-119594446D01*
G37*
G36*
X206985916Y-119594446D02*
G01*
X207055075Y-119615425D01*
X207118803Y-119649488D01*
X207174666Y-119695334D01*
X207220512Y-119751197D01*
X207254575Y-119814925D01*
X207275554Y-119884084D01*
X207283000Y-119959686D01*
X207283000Y-120840314D01*
X207275554Y-120915916D01*
X207254575Y-120985075D01*
X207220512Y-121048803D01*
X207174666Y-121104666D01*
X207118803Y-121150512D01*
X207055075Y-121184575D01*
X206985916Y-121205554D01*
X206910314Y-121213000D01*
X206029686Y-121213000D01*
X205954084Y-121205554D01*
X205884925Y-121184575D01*
X205821197Y-121150512D01*
X205765334Y-121104666D01*
X205719488Y-121048803D01*
X205685425Y-120985075D01*
X205664446Y-120915916D01*
X205657000Y-120840314D01*
X205657000Y-119959686D01*
X205664446Y-119884084D01*
X205685425Y-119814925D01*
X205719488Y-119751197D01*
X205765334Y-119695334D01*
X205821197Y-119649488D01*
X205884925Y-119615425D01*
X205954084Y-119594446D01*
X206029686Y-119587000D01*
X206910314Y-119587000D01*
X206985916Y-119594446D01*
G37*
G36*
X204445916Y-119594446D02*
G01*
X204515075Y-119615425D01*
X204578803Y-119649488D01*
X204634666Y-119695334D01*
X204680512Y-119751197D01*
X204714575Y-119814925D01*
X204735554Y-119884084D01*
X204743000Y-119959686D01*
X204743000Y-120840314D01*
X204735554Y-120915916D01*
X204714575Y-120985075D01*
X204680512Y-121048803D01*
X204634666Y-121104666D01*
X204578803Y-121150512D01*
X204515075Y-121184575D01*
X204445916Y-121205554D01*
X204370314Y-121213000D01*
X203489686Y-121213000D01*
X203414084Y-121205554D01*
X203344925Y-121184575D01*
X203281197Y-121150512D01*
X203225334Y-121104666D01*
X203179488Y-121048803D01*
X203145425Y-120985075D01*
X203124446Y-120915916D01*
X203117000Y-120840314D01*
X203117000Y-119959686D01*
X203124446Y-119884084D01*
X203145425Y-119814925D01*
X203179488Y-119751197D01*
X203225334Y-119695334D01*
X203281197Y-119649488D01*
X203344925Y-119615425D01*
X203414084Y-119594446D01*
X203489686Y-119587000D01*
X204370314Y-119587000D01*
X204445916Y-119594446D01*
G37*
G36*
X196785916Y-119594446D02*
G01*
X196855075Y-119615425D01*
X196918803Y-119649488D01*
X196974666Y-119695334D01*
X197020512Y-119751197D01*
X197054575Y-119814925D01*
X197075554Y-119884084D01*
X197083000Y-119959686D01*
X197083000Y-120840314D01*
X197075554Y-120915916D01*
X197054575Y-120985075D01*
X197020512Y-121048803D01*
X196974666Y-121104666D01*
X196918803Y-121150512D01*
X196855075Y-121184575D01*
X196785916Y-121205554D01*
X196710314Y-121213000D01*
X195829686Y-121213000D01*
X195754084Y-121205554D01*
X195684925Y-121184575D01*
X195621197Y-121150512D01*
X195565334Y-121104666D01*
X195519488Y-121048803D01*
X195485425Y-120985075D01*
X195464446Y-120915916D01*
X195457000Y-120840314D01*
X195457000Y-119959686D01*
X195464446Y-119884084D01*
X195485425Y-119814925D01*
X195519488Y-119751197D01*
X195565334Y-119695334D01*
X195621197Y-119649488D01*
X195684925Y-119615425D01*
X195754084Y-119594446D01*
X195829686Y-119587000D01*
X196710314Y-119587000D01*
X196785916Y-119594446D01*
G37*
G36*
X194245916Y-119594446D02*
G01*
X194315075Y-119615425D01*
X194378803Y-119649488D01*
X194434666Y-119695334D01*
X194480512Y-119751197D01*
X194514575Y-119814925D01*
X194535554Y-119884084D01*
X194543000Y-119959686D01*
X194543000Y-120840314D01*
X194535554Y-120915916D01*
X194514575Y-120985075D01*
X194480512Y-121048803D01*
X194434666Y-121104666D01*
X194378803Y-121150512D01*
X194315075Y-121184575D01*
X194245916Y-121205554D01*
X194170314Y-121213000D01*
X193289686Y-121213000D01*
X193214084Y-121205554D01*
X193144925Y-121184575D01*
X193081197Y-121150512D01*
X193025334Y-121104666D01*
X192979488Y-121048803D01*
X192945425Y-120985075D01*
X192924446Y-120915916D01*
X192917000Y-120840314D01*
X192917000Y-119959686D01*
X192924446Y-119884084D01*
X192945425Y-119814925D01*
X192979488Y-119751197D01*
X193025334Y-119695334D01*
X193081197Y-119649488D01*
X193144925Y-119615425D01*
X193214084Y-119594446D01*
X193289686Y-119587000D01*
X194170314Y-119587000D01*
X194245916Y-119594446D01*
G37*
G36*
X187285916Y-119594446D02*
G01*
X187355075Y-119615425D01*
X187418803Y-119649488D01*
X187474666Y-119695334D01*
X187520512Y-119751197D01*
X187554575Y-119814925D01*
X187575554Y-119884084D01*
X187583000Y-119959686D01*
X187583000Y-120840314D01*
X187575554Y-120915916D01*
X187554575Y-120985075D01*
X187520512Y-121048803D01*
X187474666Y-121104666D01*
X187418803Y-121150512D01*
X187355075Y-121184575D01*
X187285916Y-121205554D01*
X187210314Y-121213000D01*
X186329686Y-121213000D01*
X186254084Y-121205554D01*
X186184925Y-121184575D01*
X186121197Y-121150512D01*
X186065334Y-121104666D01*
X186019488Y-121048803D01*
X185985425Y-120985075D01*
X185964446Y-120915916D01*
X185957000Y-120840314D01*
X185957000Y-119959686D01*
X185964446Y-119884084D01*
X185985425Y-119814925D01*
X186019488Y-119751197D01*
X186065334Y-119695334D01*
X186121197Y-119649488D01*
X186184925Y-119615425D01*
X186254084Y-119594446D01*
X186329686Y-119587000D01*
X187210314Y-119587000D01*
X187285916Y-119594446D01*
G37*
G36*
X213745916Y-119594446D02*
G01*
X213815075Y-119615425D01*
X213878803Y-119649488D01*
X213934666Y-119695334D01*
X213980512Y-119751197D01*
X214014575Y-119814925D01*
X214035554Y-119884084D01*
X214043000Y-119959686D01*
X214043000Y-120840314D01*
X214035554Y-120915916D01*
X214014575Y-120985075D01*
X213980512Y-121048803D01*
X213934666Y-121104666D01*
X213878803Y-121150512D01*
X213815075Y-121184575D01*
X213745916Y-121205554D01*
X213670314Y-121213000D01*
X212789686Y-121213000D01*
X212714084Y-121205554D01*
X212644925Y-121184575D01*
X212581197Y-121150512D01*
X212525334Y-121104666D01*
X212479488Y-121048803D01*
X212445425Y-120985075D01*
X212424446Y-120915916D01*
X212417000Y-120840314D01*
X212417000Y-119959686D01*
X212424446Y-119884084D01*
X212445425Y-119814925D01*
X212479488Y-119751197D01*
X212525334Y-119695334D01*
X212581197Y-119649488D01*
X212644925Y-119615425D01*
X212714084Y-119594446D01*
X212789686Y-119587000D01*
X213670314Y-119587000D01*
X213745916Y-119594446D01*
G37*
G36*
X184745916Y-119594446D02*
G01*
X184815075Y-119615425D01*
X184878803Y-119649488D01*
X184934666Y-119695334D01*
X184980512Y-119751197D01*
X185014575Y-119814925D01*
X185035554Y-119884084D01*
X185043000Y-119959686D01*
X185043000Y-120840314D01*
X185035554Y-120915916D01*
X185014575Y-120985075D01*
X184980512Y-121048803D01*
X184934666Y-121104666D01*
X184878803Y-121150512D01*
X184815075Y-121184575D01*
X184745916Y-121205554D01*
X184670314Y-121213000D01*
X183789686Y-121213000D01*
X183714084Y-121205554D01*
X183644925Y-121184575D01*
X183581197Y-121150512D01*
X183525334Y-121104666D01*
X183479488Y-121048803D01*
X183445425Y-120985075D01*
X183424446Y-120915916D01*
X183417000Y-120840314D01*
X183417000Y-119959686D01*
X183424446Y-119884084D01*
X183445425Y-119814925D01*
X183479488Y-119751197D01*
X183525334Y-119695334D01*
X183581197Y-119649488D01*
X183644925Y-119615425D01*
X183714084Y-119594446D01*
X183789686Y-119587000D01*
X184670314Y-119587000D01*
X184745916Y-119594446D01*
G37*
G36*
X198385916Y-116294446D02*
G01*
X198455075Y-116315425D01*
X198518803Y-116349488D01*
X198574666Y-116395334D01*
X198620512Y-116451197D01*
X198654575Y-116514925D01*
X198675554Y-116584084D01*
X198683000Y-116659686D01*
X198683000Y-117540314D01*
X198675554Y-117615916D01*
X198654575Y-117685075D01*
X198620512Y-117748803D01*
X198574666Y-117804666D01*
X198518803Y-117850512D01*
X198455075Y-117884575D01*
X198385916Y-117905554D01*
X198310314Y-117913000D01*
X197429686Y-117913000D01*
X197354084Y-117905554D01*
X197284925Y-117884575D01*
X197221197Y-117850512D01*
X197165334Y-117804666D01*
X197119488Y-117748803D01*
X197085425Y-117685075D01*
X197064446Y-117615916D01*
X197057000Y-117540314D01*
X197057000Y-116659686D01*
X197064446Y-116584084D01*
X197085425Y-116514925D01*
X197119488Y-116451197D01*
X197165334Y-116395334D01*
X197221197Y-116349488D01*
X197284925Y-116315425D01*
X197354084Y-116294446D01*
X197429686Y-116287000D01*
X198310314Y-116287000D01*
X198385916Y-116294446D01*
G37*
G36*
X202745916Y-116294446D02*
G01*
X202815075Y-116315425D01*
X202878803Y-116349488D01*
X202934666Y-116395334D01*
X202980512Y-116451197D01*
X203014575Y-116514925D01*
X203035554Y-116584084D01*
X203043000Y-116659686D01*
X203043000Y-117540314D01*
X203035554Y-117615916D01*
X203014575Y-117685075D01*
X202980512Y-117748803D01*
X202934666Y-117804666D01*
X202878803Y-117850512D01*
X202815075Y-117884575D01*
X202745916Y-117905554D01*
X202670314Y-117913000D01*
X201789686Y-117913000D01*
X201714084Y-117905554D01*
X201644925Y-117884575D01*
X201581197Y-117850512D01*
X201525334Y-117804666D01*
X201479488Y-117748803D01*
X201445425Y-117685075D01*
X201424446Y-117615916D01*
X201417000Y-117540314D01*
X201417000Y-116659686D01*
X201424446Y-116584084D01*
X201445425Y-116514925D01*
X201479488Y-116451197D01*
X201525334Y-116395334D01*
X201581197Y-116349488D01*
X201644925Y-116315425D01*
X201714084Y-116294446D01*
X201789686Y-116287000D01*
X202670314Y-116287000D01*
X202745916Y-116294446D01*
G37*
G36*
X205285916Y-116294446D02*
G01*
X205355075Y-116315425D01*
X205418803Y-116349488D01*
X205474666Y-116395334D01*
X205520512Y-116451197D01*
X205554575Y-116514925D01*
X205575554Y-116584084D01*
X205583000Y-116659686D01*
X205583000Y-117540314D01*
X205575554Y-117615916D01*
X205554575Y-117685075D01*
X205520512Y-117748803D01*
X205474666Y-117804666D01*
X205418803Y-117850512D01*
X205355075Y-117884575D01*
X205285916Y-117905554D01*
X205210314Y-117913000D01*
X204329686Y-117913000D01*
X204254084Y-117905554D01*
X204184925Y-117884575D01*
X204121197Y-117850512D01*
X204065334Y-117804666D01*
X204019488Y-117748803D01*
X203985425Y-117685075D01*
X203964446Y-117615916D01*
X203957000Y-117540314D01*
X203957000Y-116659686D01*
X203964446Y-116584084D01*
X203985425Y-116514925D01*
X204019488Y-116451197D01*
X204065334Y-116395334D01*
X204121197Y-116349488D01*
X204184925Y-116315425D01*
X204254084Y-116294446D01*
X204329686Y-116287000D01*
X205210314Y-116287000D01*
X205285916Y-116294446D01*
G37*
G36*
X209845916Y-116294446D02*
G01*
X209915075Y-116315425D01*
X209978803Y-116349488D01*
X210034666Y-116395334D01*
X210080512Y-116451197D01*
X210114575Y-116514925D01*
X210135554Y-116584084D01*
X210143000Y-116659686D01*
X210143000Y-117540314D01*
X210135554Y-117615916D01*
X210114575Y-117685075D01*
X210080512Y-117748803D01*
X210034666Y-117804666D01*
X209978803Y-117850512D01*
X209915075Y-117884575D01*
X209845916Y-117905554D01*
X209770314Y-117913000D01*
X208889686Y-117913000D01*
X208814084Y-117905554D01*
X208744925Y-117884575D01*
X208681197Y-117850512D01*
X208625334Y-117804666D01*
X208579488Y-117748803D01*
X208545425Y-117685075D01*
X208524446Y-117615916D01*
X208517000Y-117540314D01*
X208517000Y-116659686D01*
X208524446Y-116584084D01*
X208545425Y-116514925D01*
X208579488Y-116451197D01*
X208625334Y-116395334D01*
X208681197Y-116349488D01*
X208744925Y-116315425D01*
X208814084Y-116294446D01*
X208889686Y-116287000D01*
X209770314Y-116287000D01*
X209845916Y-116294446D01*
G37*
G36*
X212385916Y-116294446D02*
G01*
X212455075Y-116315425D01*
X212518803Y-116349488D01*
X212574666Y-116395334D01*
X212620512Y-116451197D01*
X212654575Y-116514925D01*
X212675554Y-116584084D01*
X212683000Y-116659686D01*
X212683000Y-117540314D01*
X212675554Y-117615916D01*
X212654575Y-117685075D01*
X212620512Y-117748803D01*
X212574666Y-117804666D01*
X212518803Y-117850512D01*
X212455075Y-117884575D01*
X212385916Y-117905554D01*
X212310314Y-117913000D01*
X211429686Y-117913000D01*
X211354084Y-117905554D01*
X211284925Y-117884575D01*
X211221197Y-117850512D01*
X211165334Y-117804666D01*
X211119488Y-117748803D01*
X211085425Y-117685075D01*
X211064446Y-117615916D01*
X211057000Y-117540314D01*
X211057000Y-116659686D01*
X211064446Y-116584084D01*
X211085425Y-116514925D01*
X211119488Y-116451197D01*
X211165334Y-116395334D01*
X211221197Y-116349488D01*
X211284925Y-116315425D01*
X211354084Y-116294446D01*
X211429686Y-116287000D01*
X212310314Y-116287000D01*
X212385916Y-116294446D01*
G37*
G36*
X188845916Y-116294446D02*
G01*
X188915075Y-116315425D01*
X188978803Y-116349488D01*
X189034666Y-116395334D01*
X189080512Y-116451197D01*
X189114575Y-116514925D01*
X189135554Y-116584084D01*
X189143000Y-116659686D01*
X189143000Y-117540314D01*
X189135554Y-117615916D01*
X189114575Y-117685075D01*
X189080512Y-117748803D01*
X189034666Y-117804666D01*
X188978803Y-117850512D01*
X188915075Y-117884575D01*
X188845916Y-117905554D01*
X188770314Y-117913000D01*
X187889686Y-117913000D01*
X187814084Y-117905554D01*
X187744925Y-117884575D01*
X187681197Y-117850512D01*
X187625334Y-117804666D01*
X187579488Y-117748803D01*
X187545425Y-117685075D01*
X187524446Y-117615916D01*
X187517000Y-117540314D01*
X187517000Y-116659686D01*
X187524446Y-116584084D01*
X187545425Y-116514925D01*
X187579488Y-116451197D01*
X187625334Y-116395334D01*
X187681197Y-116349488D01*
X187744925Y-116315425D01*
X187814084Y-116294446D01*
X187889686Y-116287000D01*
X188770314Y-116287000D01*
X188845916Y-116294446D01*
G37*
G36*
X195845916Y-116294446D02*
G01*
X195915075Y-116315425D01*
X195978803Y-116349488D01*
X196034666Y-116395334D01*
X196080512Y-116451197D01*
X196114575Y-116514925D01*
X196135554Y-116584084D01*
X196143000Y-116659686D01*
X196143000Y-117540314D01*
X196135554Y-117615916D01*
X196114575Y-117685075D01*
X196080512Y-117748803D01*
X196034666Y-117804666D01*
X195978803Y-117850512D01*
X195915075Y-117884575D01*
X195845916Y-117905554D01*
X195770314Y-117913000D01*
X194889686Y-117913000D01*
X194814084Y-117905554D01*
X194744925Y-117884575D01*
X194681197Y-117850512D01*
X194625334Y-117804666D01*
X194579488Y-117748803D01*
X194545425Y-117685075D01*
X194524446Y-117615916D01*
X194517000Y-117540314D01*
X194517000Y-116659686D01*
X194524446Y-116584084D01*
X194545425Y-116514925D01*
X194579488Y-116451197D01*
X194625334Y-116395334D01*
X194681197Y-116349488D01*
X194744925Y-116315425D01*
X194814084Y-116294446D01*
X194889686Y-116287000D01*
X195770314Y-116287000D01*
X195845916Y-116294446D01*
G37*
G36*
X191385916Y-116294446D02*
G01*
X191455075Y-116315425D01*
X191518803Y-116349488D01*
X191574666Y-116395334D01*
X191620512Y-116451197D01*
X191654575Y-116514925D01*
X191675554Y-116584084D01*
X191683000Y-116659686D01*
X191683000Y-117540314D01*
X191675554Y-117615916D01*
X191654575Y-117685075D01*
X191620512Y-117748803D01*
X191574666Y-117804666D01*
X191518803Y-117850512D01*
X191455075Y-117884575D01*
X191385916Y-117905554D01*
X191310314Y-117913000D01*
X190429686Y-117913000D01*
X190354084Y-117905554D01*
X190284925Y-117884575D01*
X190221197Y-117850512D01*
X190165334Y-117804666D01*
X190119488Y-117748803D01*
X190085425Y-117685075D01*
X190064446Y-117615916D01*
X190057000Y-117540314D01*
X190057000Y-116659686D01*
X190064446Y-116584084D01*
X190085425Y-116514925D01*
X190119488Y-116451197D01*
X190165334Y-116395334D01*
X190221197Y-116349488D01*
X190284925Y-116315425D01*
X190354084Y-116294446D01*
X190429686Y-116287000D01*
X191310314Y-116287000D01*
X191385916Y-116294446D01*
G37*
G36*
X194846000Y-113101000D02*
G01*
X193544000Y-113101000D01*
X193544000Y-110799000D01*
X194846000Y-110799000D01*
X194846000Y-113101000D01*
G37*
G36*
X201896000Y-113101000D02*
G01*
X200594000Y-113101000D01*
X200594000Y-110799000D01*
X201896000Y-110799000D01*
X201896000Y-113101000D01*
G37*
G36*
X206456000Y-113101000D02*
G01*
X205154000Y-113101000D01*
X205154000Y-110799000D01*
X206456000Y-110799000D01*
X206456000Y-113101000D01*
G37*
G36*
X199406000Y-113101000D02*
G01*
X198104000Y-113101000D01*
X198104000Y-110799000D01*
X199406000Y-110799000D01*
X199406000Y-113101000D01*
G37*
G36*
X187771000Y-111601000D02*
G01*
X186469000Y-111601000D01*
X186469000Y-109299000D01*
X187771000Y-109299000D01*
X187771000Y-111601000D01*
G37*
G36*
X192331000Y-111601000D02*
G01*
X191029000Y-111601000D01*
X191029000Y-109299000D01*
X192331000Y-109299000D01*
X192331000Y-111601000D01*
G37*
G36*
X208946000Y-111551000D02*
G01*
X207644000Y-111551000D01*
X207644000Y-109249000D01*
X208946000Y-109249000D01*
X208946000Y-111551000D01*
G37*
G36*
X213506000Y-111551000D02*
G01*
X212204000Y-111551000D01*
X212204000Y-109249000D01*
X213506000Y-109249000D01*
X213506000Y-111551000D01*
G37*
G36*
X199426000Y-108901000D02*
G01*
X193524000Y-108901000D01*
X193524000Y-102399000D01*
X199426000Y-102399000D01*
X199426000Y-108901000D01*
G37*
G36*
X206476000Y-108901000D02*
G01*
X200574000Y-108901000D01*
X200574000Y-102399000D01*
X206476000Y-102399000D01*
X206476000Y-108901000D01*
G37*
G36*
X192351000Y-107401000D02*
G01*
X186449000Y-107401000D01*
X186449000Y-100899000D01*
X192351000Y-100899000D01*
X192351000Y-107401000D01*
G37*
G36*
X213526000Y-107351000D02*
G01*
X207624000Y-107351000D01*
X207624000Y-100849000D01*
X213526000Y-100849000D01*
X213526000Y-107351000D01*
G37*
G36*
X232690600Y-105562068D02*
G01*
X232692041Y-105576700D01*
X232696309Y-105590769D01*
X232703240Y-105603735D01*
X232712567Y-105615100D01*
X232723932Y-105624427D01*
X232736898Y-105631358D01*
X232750967Y-105635626D01*
X232765599Y-105637067D01*
X232780231Y-105635626D01*
X232794300Y-105631358D01*
X232807266Y-105624427D01*
X232818631Y-105615100D01*
X232886988Y-105546743D01*
X232993102Y-105475839D01*
X233111015Y-105426998D01*
X233236187Y-105402100D01*
X233363813Y-105402100D01*
X233488985Y-105426998D01*
X233606898Y-105475839D01*
X233713012Y-105546743D01*
X233781369Y-105615100D01*
X233792734Y-105624427D01*
X233805700Y-105631358D01*
X233819769Y-105635626D01*
X233834401Y-105637067D01*
X233849033Y-105635626D01*
X233863102Y-105631358D01*
X233876068Y-105624427D01*
X233887433Y-105615100D01*
X233896760Y-105603735D01*
X233903691Y-105590769D01*
X233907959Y-105576700D01*
X233909400Y-105562068D01*
X233909400Y-105135400D01*
X235865600Y-105135400D01*
X235865600Y-105694600D01*
X233966315Y-105694600D01*
X233951683Y-105696041D01*
X233937614Y-105700309D01*
X233924648Y-105707240D01*
X233913283Y-105716567D01*
X233903956Y-105727932D01*
X233897025Y-105740898D01*
X233892757Y-105754967D01*
X233891316Y-105769599D01*
X233892757Y-105784231D01*
X233897025Y-105798300D01*
X233923002Y-105861014D01*
X233947900Y-105986187D01*
X233947900Y-106113813D01*
X233923002Y-106238986D01*
X233897025Y-106301700D01*
X233892757Y-106315769D01*
X233891316Y-106330401D01*
X233892757Y-106345033D01*
X233897025Y-106359102D01*
X233903956Y-106372068D01*
X233913283Y-106383433D01*
X233924648Y-106392760D01*
X233937614Y-106399691D01*
X233951683Y-106403959D01*
X233966315Y-106405400D01*
X235865600Y-106405400D01*
X235865600Y-106964600D01*
X233909400Y-106964600D01*
X233909400Y-106537932D01*
X233907959Y-106523300D01*
X233903691Y-106509231D01*
X233896760Y-106496265D01*
X233887433Y-106484900D01*
X233876068Y-106475573D01*
X233863102Y-106468642D01*
X233849033Y-106464374D01*
X233834401Y-106462933D01*
X233819769Y-106464374D01*
X233805700Y-106468642D01*
X233792734Y-106475573D01*
X233781369Y-106484900D01*
X233713012Y-106553257D01*
X233606898Y-106624161D01*
X233488985Y-106673002D01*
X233363813Y-106697900D01*
X233236187Y-106697900D01*
X233111015Y-106673002D01*
X232993102Y-106624161D01*
X232886988Y-106553257D01*
X232818631Y-106484900D01*
X232807266Y-106475573D01*
X232794300Y-106468642D01*
X232780231Y-106464374D01*
X232765599Y-106462933D01*
X232750967Y-106464374D01*
X232736898Y-106468642D01*
X232723932Y-106475573D01*
X232712567Y-106484900D01*
X232703240Y-106496265D01*
X232696309Y-106509231D01*
X232692041Y-106523300D01*
X232690600Y-106537932D01*
X232690600Y-106964600D01*
X230734400Y-106964600D01*
X230734400Y-106405400D01*
X232633685Y-106405400D01*
X232648317Y-106403959D01*
X232662386Y-106399691D01*
X232675352Y-106392760D01*
X232686717Y-106383433D01*
X232696044Y-106372068D01*
X232702975Y-106359102D01*
X232707243Y-106345033D01*
X232708684Y-106330401D01*
X232707243Y-106315769D01*
X232702975Y-106301700D01*
X232676998Y-106238986D01*
X232652100Y-106113813D01*
X232652100Y-105986187D01*
X232676998Y-105861014D01*
X232702975Y-105798300D01*
X232707243Y-105784231D01*
X232708684Y-105769599D01*
X232707243Y-105754967D01*
X232702975Y-105740898D01*
X232696044Y-105727932D01*
X232686717Y-105716567D01*
X232675352Y-105707240D01*
X232662386Y-105700309D01*
X232648317Y-105696041D01*
X232633685Y-105694600D01*
X230734400Y-105694600D01*
X230734400Y-105135400D01*
X232690600Y-105135400D01*
X232690600Y-105562068D01*
G37*
G36*
X166390600Y-105562068D02*
G01*
X166392041Y-105576700D01*
X166396309Y-105590769D01*
X166403240Y-105603735D01*
X166412567Y-105615100D01*
X166423932Y-105624427D01*
X166436898Y-105631358D01*
X166450967Y-105635626D01*
X166465599Y-105637067D01*
X166480231Y-105635626D01*
X166494300Y-105631358D01*
X166507266Y-105624427D01*
X166518631Y-105615100D01*
X166586988Y-105546743D01*
X166693102Y-105475839D01*
X166811015Y-105426998D01*
X166936187Y-105402100D01*
X167063813Y-105402100D01*
X167188985Y-105426998D01*
X167306898Y-105475839D01*
X167413012Y-105546743D01*
X167481369Y-105615100D01*
X167492734Y-105624427D01*
X167505700Y-105631358D01*
X167519769Y-105635626D01*
X167534401Y-105637067D01*
X167549033Y-105635626D01*
X167563102Y-105631358D01*
X167576068Y-105624427D01*
X167587433Y-105615100D01*
X167596760Y-105603735D01*
X167603691Y-105590769D01*
X167607959Y-105576700D01*
X167609400Y-105562068D01*
X167609400Y-105135400D01*
X169565600Y-105135400D01*
X169565600Y-105694600D01*
X167666315Y-105694600D01*
X167651683Y-105696041D01*
X167637614Y-105700309D01*
X167624648Y-105707240D01*
X167613283Y-105716567D01*
X167603956Y-105727932D01*
X167597025Y-105740898D01*
X167592757Y-105754967D01*
X167591316Y-105769599D01*
X167592757Y-105784231D01*
X167597025Y-105798300D01*
X167623002Y-105861014D01*
X167647900Y-105986187D01*
X167647900Y-106113813D01*
X167623002Y-106238986D01*
X167597025Y-106301700D01*
X167592757Y-106315769D01*
X167591316Y-106330401D01*
X167592757Y-106345033D01*
X167597025Y-106359102D01*
X167603956Y-106372068D01*
X167613283Y-106383433D01*
X167624648Y-106392760D01*
X167637614Y-106399691D01*
X167651683Y-106403959D01*
X167666315Y-106405400D01*
X169565600Y-106405400D01*
X169565600Y-106964600D01*
X167609400Y-106964600D01*
X167609400Y-106537932D01*
X167607959Y-106523300D01*
X167603691Y-106509231D01*
X167596760Y-106496265D01*
X167587433Y-106484900D01*
X167576068Y-106475573D01*
X167563102Y-106468642D01*
X167549033Y-106464374D01*
X167534401Y-106462933D01*
X167519769Y-106464374D01*
X167505700Y-106468642D01*
X167492734Y-106475573D01*
X167481369Y-106484900D01*
X167413012Y-106553257D01*
X167306898Y-106624161D01*
X167188985Y-106673002D01*
X167063813Y-106697900D01*
X166936187Y-106697900D01*
X166811015Y-106673002D01*
X166693102Y-106624161D01*
X166586988Y-106553257D01*
X166518631Y-106484900D01*
X166507266Y-106475573D01*
X166494300Y-106468642D01*
X166480231Y-106464374D01*
X166465599Y-106462933D01*
X166450967Y-106464374D01*
X166436898Y-106468642D01*
X166423932Y-106475573D01*
X166412567Y-106484900D01*
X166403240Y-106496265D01*
X166396309Y-106509231D01*
X166392041Y-106523300D01*
X166390600Y-106537932D01*
X166390600Y-106964600D01*
X164434400Y-106964600D01*
X164434400Y-106405400D01*
X166333685Y-106405400D01*
X166348317Y-106403959D01*
X166362386Y-106399691D01*
X166375352Y-106392760D01*
X166386717Y-106383433D01*
X166396044Y-106372068D01*
X166402975Y-106359102D01*
X166407243Y-106345033D01*
X166408684Y-106330401D01*
X166407243Y-106315769D01*
X166402975Y-106301700D01*
X166376998Y-106238986D01*
X166352100Y-106113813D01*
X166352100Y-105986187D01*
X166376998Y-105861014D01*
X166402975Y-105798300D01*
X166407243Y-105784231D01*
X166408684Y-105769599D01*
X166407243Y-105754967D01*
X166402975Y-105740898D01*
X166396044Y-105727932D01*
X166386717Y-105716567D01*
X166375352Y-105707240D01*
X166362386Y-105700309D01*
X166348317Y-105696041D01*
X166333685Y-105694600D01*
X164434400Y-105694600D01*
X164434400Y-105135400D01*
X166390600Y-105135400D01*
X166390600Y-105562068D01*
G37*
G36*
X232690600Y-104424600D02*
G01*
X230734400Y-104424600D01*
X230734400Y-103865400D01*
X232690600Y-103865400D01*
X232690600Y-104424600D01*
G37*
G36*
X235865600Y-104424600D02*
G01*
X233909400Y-104424600D01*
X233909400Y-103865400D01*
X235865600Y-103865400D01*
X235865600Y-104424600D01*
G37*
G36*
X169565600Y-104424600D02*
G01*
X167609400Y-104424600D01*
X167609400Y-103865400D01*
X169565600Y-103865400D01*
X169565600Y-104424600D01*
G37*
G36*
X166390600Y-104424600D02*
G01*
X164434400Y-104424600D01*
X164434400Y-103865400D01*
X166390600Y-103865400D01*
X166390600Y-104424600D01*
G37*
G36*
X235865600Y-103154600D02*
G01*
X233909400Y-103154600D01*
X233909400Y-102595400D01*
X235865600Y-102595400D01*
X235865600Y-103154600D01*
G37*
G36*
X232690600Y-103154600D02*
G01*
X230734400Y-103154600D01*
X230734400Y-102595400D01*
X232690600Y-102595400D01*
X232690600Y-103154600D01*
G37*
G36*
X169565600Y-103154600D02*
G01*
X167609400Y-103154600D01*
X167609400Y-102595400D01*
X169565600Y-102595400D01*
X169565600Y-103154600D01*
G37*
G36*
X166390600Y-103154600D02*
G01*
X164434400Y-103154600D01*
X164434400Y-102595400D01*
X166390600Y-102595400D01*
X166390600Y-103154600D01*
G37*
G36*
X166390600Y-101884600D02*
G01*
X164434400Y-101884600D01*
X164434400Y-101325400D01*
X166390600Y-101325400D01*
X166390600Y-101884600D01*
G37*
G36*
X232690600Y-101884600D02*
G01*
X230734400Y-101884600D01*
X230734400Y-101325400D01*
X232690600Y-101325400D01*
X232690600Y-101884600D01*
G37*
G36*
X235865600Y-101884600D02*
G01*
X233909400Y-101884600D01*
X233909400Y-101325400D01*
X235865600Y-101325400D01*
X235865600Y-101884600D01*
G37*
G36*
X169565600Y-101884600D02*
G01*
X167609400Y-101884600D01*
X167609400Y-101325400D01*
X169565600Y-101325400D01*
X169565600Y-101884600D01*
G37*
G36*
X205801000Y-101501000D02*
G01*
X204799000Y-101501000D01*
X204799000Y-100599000D01*
X205801000Y-100599000D01*
X205801000Y-101501000D01*
G37*
G36*
X195201000Y-101501000D02*
G01*
X194199000Y-101501000D01*
X194199000Y-100599000D01*
X195201000Y-100599000D01*
X195201000Y-101501000D01*
G37*
G36*
X235865600Y-100614600D02*
G01*
X233909400Y-100614600D01*
X233909400Y-100055400D01*
X235865600Y-100055400D01*
X235865600Y-100614600D01*
G37*
G36*
X232690600Y-100614600D02*
G01*
X230734400Y-100614600D01*
X230734400Y-100055400D01*
X232690600Y-100055400D01*
X232690600Y-100614600D01*
G37*
G36*
X169565600Y-100614600D02*
G01*
X167609400Y-100614600D01*
X167609400Y-100055400D01*
X169565600Y-100055400D01*
X169565600Y-100614600D01*
G37*
G36*
X166390600Y-100614600D02*
G01*
X164434400Y-100614600D01*
X164434400Y-100055400D01*
X166390600Y-100055400D01*
X166390600Y-100614600D01*
G37*
G36*
X203801000Y-100551000D02*
G01*
X202799000Y-100551000D01*
X202799000Y-99649000D01*
X203801000Y-99649000D01*
X203801000Y-100551000D01*
G37*
G36*
X197201000Y-100551000D02*
G01*
X196199000Y-100551000D01*
X196199000Y-99649000D01*
X197201000Y-99649000D01*
X197201000Y-100551000D01*
G37*
G36*
X205801000Y-99601000D02*
G01*
X204799000Y-99601000D01*
X204799000Y-98699000D01*
X205801000Y-98699000D01*
X205801000Y-99601000D01*
G37*
G36*
X195201000Y-99601000D02*
G01*
X194199000Y-99601000D01*
X194199000Y-98699000D01*
X195201000Y-98699000D01*
X195201000Y-99601000D01*
G37*
G36*
X232690600Y-99344600D02*
G01*
X230734400Y-99344600D01*
X230734400Y-98785400D01*
X232690600Y-98785400D01*
X232690600Y-99344600D01*
G37*
G36*
X235865600Y-99344600D02*
G01*
X233909400Y-99344600D01*
X233909400Y-98785400D01*
X235865600Y-98785400D01*
X235865600Y-99344600D01*
G37*
G36*
X166390600Y-99344600D02*
G01*
X164434400Y-99344600D01*
X164434400Y-98785400D01*
X166390600Y-98785400D01*
X166390600Y-99344600D01*
G37*
G36*
X169565600Y-99344600D02*
G01*
X167609400Y-99344600D01*
X167609400Y-98785400D01*
X169565600Y-98785400D01*
X169565600Y-99344600D01*
G37*
G36*
X169565600Y-98074600D02*
G01*
X167609400Y-98074600D01*
X167609400Y-97515400D01*
X169565600Y-97515400D01*
X169565600Y-98074600D01*
G37*
G36*
X235865600Y-98074600D02*
G01*
X233909400Y-98074600D01*
X233909400Y-97515400D01*
X235865600Y-97515400D01*
X235865600Y-98074600D01*
G37*
G36*
X166390600Y-98074600D02*
G01*
X164434400Y-98074600D01*
X164434400Y-97515400D01*
X166390600Y-97515400D01*
X166390600Y-98074600D01*
G37*
G36*
X232690600Y-98074600D02*
G01*
X230734400Y-98074600D01*
X230734400Y-97515400D01*
X232690600Y-97515400D01*
X232690600Y-98074600D01*
G37*
G36*
X204251000Y-97501000D02*
G01*
X203349000Y-97501000D01*
X203349000Y-96499000D01*
X204251000Y-96499000D01*
X204251000Y-97501000D01*
G37*
G36*
X196751000Y-97501000D02*
G01*
X195849000Y-97501000D01*
X195849000Y-96499000D01*
X196751000Y-96499000D01*
X196751000Y-97501000D01*
G37*
G36*
X166390600Y-96804600D02*
G01*
X164434400Y-96804600D01*
X164434400Y-96245400D01*
X166390600Y-96245400D01*
X166390600Y-96804600D01*
G37*
G36*
X232690600Y-96804600D02*
G01*
X230734400Y-96804600D01*
X230734400Y-96245400D01*
X232690600Y-96245400D01*
X232690600Y-96804600D01*
G37*
G36*
X235865600Y-96804600D02*
G01*
X233909400Y-96804600D01*
X233909400Y-96245400D01*
X235865600Y-96245400D01*
X235865600Y-96804600D01*
G37*
G36*
X169565600Y-96804600D02*
G01*
X167609400Y-96804600D01*
X167609400Y-96245400D01*
X169565600Y-96245400D01*
X169565600Y-96804600D01*
G37*
G36*
X235865600Y-95534600D02*
G01*
X233909400Y-95534600D01*
X233909400Y-94975400D01*
X235865600Y-94975400D01*
X235865600Y-95534600D01*
G37*
G36*
X232690600Y-95534600D02*
G01*
X230734400Y-95534600D01*
X230734400Y-94975400D01*
X232690600Y-94975400D01*
X232690600Y-95534600D01*
G37*
G36*
X166390600Y-95534600D02*
G01*
X164434400Y-95534600D01*
X164434400Y-94975400D01*
X166390600Y-94975400D01*
X166390600Y-95534600D01*
G37*
G36*
X169565600Y-95534600D02*
G01*
X167609400Y-95534600D01*
X167609400Y-94975400D01*
X169565600Y-94975400D01*
X169565600Y-95534600D01*
G37*
G36*
X205201000Y-95501000D02*
G01*
X204299000Y-95501000D01*
X204299000Y-94499000D01*
X205201000Y-94499000D01*
X205201000Y-95501000D01*
G37*
G36*
X195801000Y-95501000D02*
G01*
X194899000Y-95501000D01*
X194899000Y-94499000D01*
X195801000Y-94499000D01*
X195801000Y-95501000D01*
G37*
G36*
X197701000Y-95501000D02*
G01*
X196799000Y-95501000D01*
X196799000Y-94499000D01*
X197701000Y-94499000D01*
X197701000Y-95501000D01*
G37*
G36*
X203301000Y-95501000D02*
G01*
X202399000Y-95501000D01*
X202399000Y-94499000D01*
X203301000Y-94499000D01*
X203301000Y-95501000D01*
G37*
G36*
X232690600Y-94264600D02*
G01*
X230734400Y-94264600D01*
X230734400Y-93705400D01*
X232690600Y-93705400D01*
X232690600Y-94264600D01*
G37*
G36*
X235865600Y-94264600D02*
G01*
X233909400Y-94264600D01*
X233909400Y-93705400D01*
X235865600Y-93705400D01*
X235865600Y-94264600D01*
G37*
G36*
X169565600Y-94264600D02*
G01*
X167609400Y-94264600D01*
X167609400Y-93705400D01*
X169565600Y-93705400D01*
X169565600Y-94264600D01*
G37*
G36*
X166390600Y-94264600D02*
G01*
X164434400Y-94264600D01*
X164434400Y-93705400D01*
X166390600Y-93705400D01*
X166390600Y-94264600D01*
G37*
G36*
X166390600Y-92994600D02*
G01*
X164434400Y-92994600D01*
X164434400Y-92435400D01*
X166390600Y-92435400D01*
X166390600Y-92994600D01*
G37*
G36*
X235865600Y-92994600D02*
G01*
X233909400Y-92994600D01*
X233909400Y-92435400D01*
X235865600Y-92435400D01*
X235865600Y-92994600D01*
G37*
G36*
X232690600Y-92994600D02*
G01*
X230734400Y-92994600D01*
X230734400Y-92435400D01*
X232690600Y-92435400D01*
X232690600Y-92994600D01*
G37*
G36*
X169565600Y-92994600D02*
G01*
X167609400Y-92994600D01*
X167609400Y-92435400D01*
X169565600Y-92435400D01*
X169565600Y-92994600D01*
G37*
G36*
X166390600Y-91724600D02*
G01*
X164434400Y-91724600D01*
X164434400Y-91165400D01*
X166390600Y-91165400D01*
X166390600Y-91724600D01*
G37*
G36*
X235865600Y-91724600D02*
G01*
X233909400Y-91724600D01*
X233909400Y-91165400D01*
X235865600Y-91165400D01*
X235865600Y-91724600D01*
G37*
G36*
X232690600Y-91724600D02*
G01*
X230734400Y-91724600D01*
X230734400Y-91165400D01*
X232690600Y-91165400D01*
X232690600Y-91724600D01*
G37*
G36*
X169565600Y-91724600D02*
G01*
X167609400Y-91724600D01*
X167609400Y-91165400D01*
X169565600Y-91165400D01*
X169565600Y-91724600D01*
G37*
G36*
X166390600Y-90454600D02*
G01*
X164434400Y-90454600D01*
X164434400Y-89895400D01*
X166390600Y-89895400D01*
X166390600Y-90454600D01*
G37*
G36*
X169565600Y-90454600D02*
G01*
X167609400Y-90454600D01*
X167609400Y-89895400D01*
X169565600Y-89895400D01*
X169565600Y-90454600D01*
G37*
G36*
X232690600Y-90454600D02*
G01*
X230734400Y-90454600D01*
X230734400Y-89895400D01*
X232690600Y-89895400D01*
X232690600Y-90454600D01*
G37*
G36*
X235865600Y-90454600D02*
G01*
X233909400Y-90454600D01*
X233909400Y-89895400D01*
X235865600Y-89895400D01*
X235865600Y-90454600D01*
G37*
G36*
X235865600Y-89184600D02*
G01*
X233909400Y-89184600D01*
X233909400Y-88625400D01*
X235865600Y-88625400D01*
X235865600Y-89184600D01*
G37*
G36*
X232690600Y-89184600D02*
G01*
X230734400Y-89184600D01*
X230734400Y-88625400D01*
X232690600Y-88625400D01*
X232690600Y-89184600D01*
G37*
G36*
X169565600Y-89184600D02*
G01*
X167609400Y-89184600D01*
X167609400Y-88625400D01*
X169565600Y-88625400D01*
X169565600Y-89184600D01*
G37*
G36*
X166390600Y-89184600D02*
G01*
X164434400Y-89184600D01*
X164434400Y-88625400D01*
X166390600Y-88625400D01*
X166390600Y-89184600D01*
G37*
G36*
X169565600Y-87914600D02*
G01*
X167609400Y-87914600D01*
X167609400Y-87355400D01*
X169565600Y-87355400D01*
X169565600Y-87914600D01*
G37*
G36*
X232690600Y-87914600D02*
G01*
X230734400Y-87914600D01*
X230734400Y-87355400D01*
X232690600Y-87355400D01*
X232690600Y-87914600D01*
G37*
G36*
X235865600Y-87914600D02*
G01*
X233909400Y-87914600D01*
X233909400Y-87355400D01*
X235865600Y-87355400D01*
X235865600Y-87914600D01*
G37*
G36*
X166390600Y-87914600D02*
G01*
X164434400Y-87914600D01*
X164434400Y-87355400D01*
X166390600Y-87355400D01*
X166390600Y-87914600D01*
G37*
G36*
X235865600Y-86644600D02*
G01*
X233909400Y-86644600D01*
X233909400Y-86085400D01*
X235865600Y-86085400D01*
X235865600Y-86644600D01*
G37*
G36*
X232690600Y-86644600D02*
G01*
X230734400Y-86644600D01*
X230734400Y-86085400D01*
X232690600Y-86085400D01*
X232690600Y-86644600D01*
G37*
G36*
X169565600Y-86644600D02*
G01*
X167609400Y-86644600D01*
X167609400Y-86085400D01*
X169565600Y-86085400D01*
X169565600Y-86644600D01*
G37*
G36*
X166390600Y-86644600D02*
G01*
X164434400Y-86644600D01*
X164434400Y-86085400D01*
X166390600Y-86085400D01*
X166390600Y-86644600D01*
G37*
G36*
X232690600Y-85374600D02*
G01*
X230734400Y-85374600D01*
X230734400Y-84815400D01*
X232690600Y-84815400D01*
X232690600Y-85374600D01*
G37*
G36*
X169565600Y-85374600D02*
G01*
X167609400Y-85374600D01*
X167609400Y-84815400D01*
X169565600Y-84815400D01*
X169565600Y-85374600D01*
G37*
G36*
X166390600Y-85374600D02*
G01*
X164434400Y-85374600D01*
X164434400Y-84815400D01*
X166390600Y-84815400D01*
X166390600Y-85374600D01*
G37*
G36*
X235865600Y-85374600D02*
G01*
X233909400Y-85374600D01*
X233909400Y-84815400D01*
X235865600Y-84815400D01*
X235865600Y-85374600D01*
G37*
G36*
X169565600Y-84104600D02*
G01*
X167609400Y-84104600D01*
X167609400Y-83545400D01*
X169565600Y-83545400D01*
X169565600Y-84104600D01*
G37*
G36*
X166390600Y-84104600D02*
G01*
X164434400Y-84104600D01*
X164434400Y-83545400D01*
X166390600Y-83545400D01*
X166390600Y-84104600D01*
G37*
G36*
X232690600Y-84104600D02*
G01*
X230734400Y-84104600D01*
X230734400Y-83545400D01*
X232690600Y-83545400D01*
X232690600Y-84104600D01*
G37*
G36*
X235865600Y-84104600D02*
G01*
X233909400Y-84104600D01*
X233909400Y-83545400D01*
X235865600Y-83545400D01*
X235865600Y-84104600D01*
G37*
G36*
X166390600Y-82834600D02*
G01*
X164434400Y-82834600D01*
X164434400Y-82275400D01*
X166390600Y-82275400D01*
X166390600Y-82834600D01*
G37*
G36*
X169565600Y-82834600D02*
G01*
X167609400Y-82834600D01*
X167609400Y-82275400D01*
X169565600Y-82275400D01*
X169565600Y-82834600D01*
G37*
G36*
X232690600Y-82834600D02*
G01*
X230734400Y-82834600D01*
X230734400Y-82275400D01*
X232690600Y-82275400D01*
X232690600Y-82834600D01*
G37*
G36*
X235865600Y-82834600D02*
G01*
X233909400Y-82834600D01*
X233909400Y-82275400D01*
X235865600Y-82275400D01*
X235865600Y-82834600D01*
G37*
G36*
X166390600Y-81564600D02*
G01*
X164434400Y-81564600D01*
X164434400Y-81005400D01*
X166390600Y-81005400D01*
X166390600Y-81564600D01*
G37*
G36*
X232690600Y-81564600D02*
G01*
X230734400Y-81564600D01*
X230734400Y-81005400D01*
X232690600Y-81005400D01*
X232690600Y-81564600D01*
G37*
G36*
X235865600Y-81564600D02*
G01*
X233909400Y-81564600D01*
X233909400Y-81005400D01*
X235865600Y-81005400D01*
X235865600Y-81564600D01*
G37*
G36*
X169565600Y-81564600D02*
G01*
X167609400Y-81564600D01*
X167609400Y-81005400D01*
X169565600Y-81005400D01*
X169565600Y-81564600D01*
G37*
G36*
X235865600Y-80294600D02*
G01*
X233909400Y-80294600D01*
X233909400Y-79735400D01*
X235865600Y-79735400D01*
X235865600Y-80294600D01*
G37*
G36*
X232690600Y-80294600D02*
G01*
X230734400Y-80294600D01*
X230734400Y-79735400D01*
X232690600Y-79735400D01*
X232690600Y-80294600D01*
G37*
G36*
X169565600Y-80294600D02*
G01*
X167609400Y-80294600D01*
X167609400Y-79735400D01*
X169565600Y-79735400D01*
X169565600Y-80294600D01*
G37*
G36*
X166390600Y-80294600D02*
G01*
X164434400Y-80294600D01*
X164434400Y-79735400D01*
X166390600Y-79735400D01*
X166390600Y-80294600D01*
G37*
G36*
X166390600Y-79024600D02*
G01*
X164434400Y-79024600D01*
X164434400Y-78465400D01*
X166390600Y-78465400D01*
X166390600Y-79024600D01*
G37*
G36*
X232690600Y-79024600D02*
G01*
X230734400Y-79024600D01*
X230734400Y-78465400D01*
X232690600Y-78465400D01*
X232690600Y-79024600D01*
G37*
G36*
X169565600Y-79024600D02*
G01*
X167609400Y-79024600D01*
X167609400Y-78465400D01*
X169565600Y-78465400D01*
X169565600Y-79024600D01*
G37*
G36*
X235865600Y-79024600D02*
G01*
X233909400Y-79024600D01*
X233909400Y-78465400D01*
X235865600Y-78465400D01*
X235865600Y-79024600D01*
G37*
G36*
X169565600Y-77754600D02*
G01*
X167609400Y-77754600D01*
X167609400Y-77195400D01*
X169565600Y-77195400D01*
X169565600Y-77754600D01*
G37*
G36*
X235865600Y-77754600D02*
G01*
X233909400Y-77754600D01*
X233909400Y-77195400D01*
X235865600Y-77195400D01*
X235865600Y-77754600D01*
G37*
G36*
X232690600Y-77754600D02*
G01*
X230734400Y-77754600D01*
X230734400Y-77195400D01*
X232690600Y-77195400D01*
X232690600Y-77754600D01*
G37*
G36*
X166390600Y-77754600D02*
G01*
X164434400Y-77754600D01*
X164434400Y-77195400D01*
X166390600Y-77195400D01*
X166390600Y-77754600D01*
G37*
G36*
X166390600Y-76484600D02*
G01*
X164434400Y-76484600D01*
X164434400Y-75925400D01*
X166390600Y-75925400D01*
X166390600Y-76484600D01*
G37*
G36*
X169565600Y-76484600D02*
G01*
X167609400Y-76484600D01*
X167609400Y-75925400D01*
X169565600Y-75925400D01*
X169565600Y-76484600D01*
G37*
G36*
X232690600Y-76484600D02*
G01*
X230734400Y-76484600D01*
X230734400Y-75925400D01*
X232690600Y-75925400D01*
X232690600Y-76484600D01*
G37*
G36*
X235865600Y-76484600D02*
G01*
X233909400Y-76484600D01*
X233909400Y-75925400D01*
X235865600Y-75925400D01*
X235865600Y-76484600D01*
G37*
G36*
X166390600Y-75214600D02*
G01*
X164434400Y-75214600D01*
X164434400Y-74655400D01*
X166390600Y-74655400D01*
X166390600Y-75214600D01*
G37*
G36*
X169565600Y-75214600D02*
G01*
X167609400Y-75214600D01*
X167609400Y-74655400D01*
X169565600Y-74655400D01*
X169565600Y-75214600D01*
G37*
G36*
X232690600Y-75214600D02*
G01*
X230734400Y-75214600D01*
X230734400Y-74655400D01*
X232690600Y-74655400D01*
X232690600Y-75214600D01*
G37*
G36*
X235865600Y-75214600D02*
G01*
X233909400Y-75214600D01*
X233909400Y-74655400D01*
X235865600Y-74655400D01*
X235865600Y-75214600D01*
G37*
G36*
X235865600Y-73944600D02*
G01*
X233909400Y-73944600D01*
X233909400Y-73385400D01*
X235865600Y-73385400D01*
X235865600Y-73944600D01*
G37*
G36*
X232690600Y-73944600D02*
G01*
X230734400Y-73944600D01*
X230734400Y-73385400D01*
X232690600Y-73385400D01*
X232690600Y-73944600D01*
G37*
G36*
X169565600Y-73944600D02*
G01*
X167609400Y-73944600D01*
X167609400Y-73385400D01*
X169565600Y-73385400D01*
X169565600Y-73944600D01*
G37*
G36*
X166390600Y-73944600D02*
G01*
X164434400Y-73944600D01*
X164434400Y-73385400D01*
X166390600Y-73385400D01*
X166390600Y-73944600D01*
G37*
G36*
X235865600Y-72674600D02*
G01*
X233909400Y-72674600D01*
X233909400Y-72115400D01*
X235865600Y-72115400D01*
X235865600Y-72674600D01*
G37*
G36*
X232690600Y-72674600D02*
G01*
X230734400Y-72674600D01*
X230734400Y-72115400D01*
X232690600Y-72115400D01*
X232690600Y-72674600D01*
G37*
G36*
X169565600Y-72674600D02*
G01*
X167609400Y-72674600D01*
X167609400Y-72115400D01*
X169565600Y-72115400D01*
X169565600Y-72674600D01*
G37*
G36*
X166390600Y-72674600D02*
G01*
X164434400Y-72674600D01*
X164434400Y-72115400D01*
X166390600Y-72115400D01*
X166390600Y-72674600D01*
G37*
G36*
X232690600Y-71404600D02*
G01*
X230734400Y-71404600D01*
X230734400Y-70845400D01*
X232690600Y-70845400D01*
X232690600Y-71404600D01*
G37*
G36*
X166390600Y-71404600D02*
G01*
X164434400Y-71404600D01*
X164434400Y-70845400D01*
X166390600Y-70845400D01*
X166390600Y-71404600D01*
G37*
G36*
X235865600Y-71404600D02*
G01*
X233909400Y-71404600D01*
X233909400Y-70845400D01*
X235865600Y-70845400D01*
X235865600Y-71404600D01*
G37*
G36*
X169565600Y-71404600D02*
G01*
X167609400Y-71404600D01*
X167609400Y-70845400D01*
X169565600Y-70845400D01*
X169565600Y-71404600D01*
G37*
G36*
X200594420Y-69303689D02*
G01*
X200636660Y-69316502D01*
X200675578Y-69337304D01*
X200709696Y-69365304D01*
X200737696Y-69399422D01*
X200758498Y-69438340D01*
X200771311Y-69480580D01*
X200776000Y-69528186D01*
X200776000Y-70221814D01*
X200771311Y-70269420D01*
X200758498Y-70311660D01*
X200737696Y-70350578D01*
X200709696Y-70384696D01*
X200675578Y-70412696D01*
X200636660Y-70433498D01*
X200594420Y-70446311D01*
X200546814Y-70451000D01*
X199953186Y-70451000D01*
X199905580Y-70446311D01*
X199863340Y-70433498D01*
X199824422Y-70412696D01*
X199790304Y-70384696D01*
X199762304Y-70350578D01*
X199741502Y-70311660D01*
X199728689Y-70269420D01*
X199724000Y-70221814D01*
X199724000Y-69528186D01*
X199728689Y-69480580D01*
X199741502Y-69438340D01*
X199762304Y-69399422D01*
X199790304Y-69365304D01*
X199824422Y-69337304D01*
X199863340Y-69316502D01*
X199905580Y-69303689D01*
X199953186Y-69299000D01*
X200546814Y-69299000D01*
X200594420Y-69303689D01*
G37*
G36*
X235865600Y-70134600D02*
G01*
X233909400Y-70134600D01*
X233909400Y-69575400D01*
X235865600Y-69575400D01*
X235865600Y-70134600D01*
G37*
G36*
X232690600Y-70134600D02*
G01*
X230734400Y-70134600D01*
X230734400Y-69575400D01*
X232690600Y-69575400D01*
X232690600Y-70134600D01*
G37*
G36*
X169565600Y-70134600D02*
G01*
X167609400Y-70134600D01*
X167609400Y-69575400D01*
X169565600Y-69575400D01*
X169565600Y-70134600D01*
G37*
G36*
X166390600Y-70134600D02*
G01*
X164434400Y-70134600D01*
X164434400Y-69575400D01*
X166390600Y-69575400D01*
X166390600Y-70134600D01*
G37*
G36*
X232690600Y-67462068D02*
G01*
X232692041Y-67476700D01*
X232696309Y-67490769D01*
X232703240Y-67503735D01*
X232712567Y-67515100D01*
X232723932Y-67524427D01*
X232736898Y-67531358D01*
X232750967Y-67535626D01*
X232765599Y-67537067D01*
X232780231Y-67535626D01*
X232794300Y-67531358D01*
X232807266Y-67524427D01*
X232818631Y-67515100D01*
X232886988Y-67446743D01*
X232993102Y-67375839D01*
X233111015Y-67326998D01*
X233236187Y-67302100D01*
X233363813Y-67302100D01*
X233488985Y-67326998D01*
X233606898Y-67375839D01*
X233713012Y-67446743D01*
X233781369Y-67515100D01*
X233792734Y-67524427D01*
X233805700Y-67531358D01*
X233819769Y-67535626D01*
X233834401Y-67537067D01*
X233849033Y-67535626D01*
X233863102Y-67531358D01*
X233876068Y-67524427D01*
X233887433Y-67515100D01*
X233896760Y-67503735D01*
X233903691Y-67490769D01*
X233907959Y-67476700D01*
X233909400Y-67462068D01*
X233909400Y-67035400D01*
X235865600Y-67035400D01*
X235865600Y-67594600D01*
X233966315Y-67594600D01*
X233951683Y-67596041D01*
X233937614Y-67600309D01*
X233924648Y-67607240D01*
X233913283Y-67616567D01*
X233903956Y-67627932D01*
X233897025Y-67640898D01*
X233892757Y-67654967D01*
X233891316Y-67669599D01*
X233892757Y-67684231D01*
X233897025Y-67698300D01*
X233923002Y-67761014D01*
X233947900Y-67886187D01*
X233947900Y-68013813D01*
X233923002Y-68138986D01*
X233897025Y-68201700D01*
X233892757Y-68215769D01*
X233891316Y-68230401D01*
X233892757Y-68245033D01*
X233897025Y-68259102D01*
X233903956Y-68272068D01*
X233913283Y-68283433D01*
X233924648Y-68292760D01*
X233937614Y-68299691D01*
X233951683Y-68303959D01*
X233966315Y-68305400D01*
X235865600Y-68305400D01*
X235865600Y-68864600D01*
X233909400Y-68864600D01*
X233909400Y-68437932D01*
X233907959Y-68423300D01*
X233903691Y-68409231D01*
X233896760Y-68396265D01*
X233887433Y-68384900D01*
X233876068Y-68375573D01*
X233863102Y-68368642D01*
X233849033Y-68364374D01*
X233834401Y-68362933D01*
X233819769Y-68364374D01*
X233805700Y-68368642D01*
X233792734Y-68375573D01*
X233781369Y-68384900D01*
X233713012Y-68453257D01*
X233606898Y-68524161D01*
X233606897Y-68524162D01*
X233606896Y-68524162D01*
X233488985Y-68573002D01*
X233363813Y-68597900D01*
X233236187Y-68597900D01*
X233111015Y-68573002D01*
X232993104Y-68524162D01*
X232993103Y-68524162D01*
X232993102Y-68524161D01*
X232886988Y-68453257D01*
X232818631Y-68384900D01*
X232807266Y-68375573D01*
X232794300Y-68368642D01*
X232780231Y-68364374D01*
X232765599Y-68362933D01*
X232750967Y-68364374D01*
X232736898Y-68368642D01*
X232723932Y-68375573D01*
X232712567Y-68384900D01*
X232703240Y-68396265D01*
X232696309Y-68409231D01*
X232692041Y-68423300D01*
X232690600Y-68437932D01*
X232690600Y-68864600D01*
X230734400Y-68864600D01*
X230734400Y-68305400D01*
X232633685Y-68305400D01*
X232648317Y-68303959D01*
X232662386Y-68299691D01*
X232675352Y-68292760D01*
X232686717Y-68283433D01*
X232696044Y-68272068D01*
X232702975Y-68259102D01*
X232707243Y-68245033D01*
X232708684Y-68230401D01*
X232707243Y-68215769D01*
X232702975Y-68201700D01*
X232676998Y-68138986D01*
X232652100Y-68013813D01*
X232652100Y-67886187D01*
X232676998Y-67761014D01*
X232702975Y-67698300D01*
X232707243Y-67684231D01*
X232708684Y-67669599D01*
X232707243Y-67654967D01*
X232702975Y-67640898D01*
X232696044Y-67627932D01*
X232686717Y-67616567D01*
X232675352Y-67607240D01*
X232662386Y-67600309D01*
X232648317Y-67596041D01*
X232633685Y-67594600D01*
X230734400Y-67594600D01*
X230734400Y-67035400D01*
X232690600Y-67035400D01*
X232690600Y-67462068D01*
G37*
G36*
X166390600Y-67462068D02*
G01*
X166392041Y-67476700D01*
X166396309Y-67490769D01*
X166403240Y-67503735D01*
X166412567Y-67515100D01*
X166423932Y-67524427D01*
X166436898Y-67531358D01*
X166450967Y-67535626D01*
X166465599Y-67537067D01*
X166480231Y-67535626D01*
X166494300Y-67531358D01*
X166507266Y-67524427D01*
X166518631Y-67515100D01*
X166586988Y-67446743D01*
X166693102Y-67375839D01*
X166811015Y-67326998D01*
X166936187Y-67302100D01*
X167063813Y-67302100D01*
X167188985Y-67326998D01*
X167306898Y-67375839D01*
X167413012Y-67446743D01*
X167481369Y-67515100D01*
X167492734Y-67524427D01*
X167505700Y-67531358D01*
X167519769Y-67535626D01*
X167534401Y-67537067D01*
X167549033Y-67535626D01*
X167563102Y-67531358D01*
X167576068Y-67524427D01*
X167587433Y-67515100D01*
X167596760Y-67503735D01*
X167603691Y-67490769D01*
X167607959Y-67476700D01*
X167609400Y-67462068D01*
X167609400Y-67035400D01*
X169565600Y-67035400D01*
X169565600Y-67594600D01*
X167666315Y-67594600D01*
X167651683Y-67596041D01*
X167637614Y-67600309D01*
X167624648Y-67607240D01*
X167613283Y-67616567D01*
X167603956Y-67627932D01*
X167597025Y-67640898D01*
X167592757Y-67654967D01*
X167591316Y-67669599D01*
X167592757Y-67684231D01*
X167597025Y-67698300D01*
X167623002Y-67761014D01*
X167647900Y-67886187D01*
X167647900Y-68013813D01*
X167623002Y-68138986D01*
X167597025Y-68201700D01*
X167592757Y-68215769D01*
X167591316Y-68230401D01*
X167592757Y-68245033D01*
X167597025Y-68259102D01*
X167603956Y-68272068D01*
X167613283Y-68283433D01*
X167624648Y-68292760D01*
X167637614Y-68299691D01*
X167651683Y-68303959D01*
X167666315Y-68305400D01*
X169565600Y-68305400D01*
X169565600Y-68864600D01*
X167609400Y-68864600D01*
X167609400Y-68437932D01*
X167607959Y-68423300D01*
X167603691Y-68409231D01*
X167596760Y-68396265D01*
X167587433Y-68384900D01*
X167576068Y-68375573D01*
X167563102Y-68368642D01*
X167549033Y-68364374D01*
X167534401Y-68362933D01*
X167519769Y-68364374D01*
X167505700Y-68368642D01*
X167492734Y-68375573D01*
X167481369Y-68384900D01*
X167413012Y-68453257D01*
X167306898Y-68524161D01*
X167306897Y-68524162D01*
X167306896Y-68524162D01*
X167188985Y-68573002D01*
X167063813Y-68597900D01*
X166936187Y-68597900D01*
X166811015Y-68573002D01*
X166693104Y-68524162D01*
X166693103Y-68524162D01*
X166693102Y-68524161D01*
X166586988Y-68453257D01*
X166518631Y-68384900D01*
X166507266Y-68375573D01*
X166494300Y-68368642D01*
X166480231Y-68364374D01*
X166465599Y-68362933D01*
X166450967Y-68364374D01*
X166436898Y-68368642D01*
X166423932Y-68375573D01*
X166412567Y-68384900D01*
X166403240Y-68396265D01*
X166396309Y-68409231D01*
X166392041Y-68423300D01*
X166390600Y-68437932D01*
X166390600Y-68864600D01*
X164434400Y-68864600D01*
X164434400Y-68305400D01*
X166333685Y-68305400D01*
X166348317Y-68303959D01*
X166362386Y-68299691D01*
X166375352Y-68292760D01*
X166386717Y-68283433D01*
X166396044Y-68272068D01*
X166402975Y-68259102D01*
X166407243Y-68245033D01*
X166408684Y-68230401D01*
X166407243Y-68215769D01*
X166402975Y-68201700D01*
X166376998Y-68138986D01*
X166352100Y-68013813D01*
X166352100Y-67886187D01*
X166376998Y-67761014D01*
X166402975Y-67698300D01*
X166407243Y-67684231D01*
X166408684Y-67669599D01*
X166407243Y-67654967D01*
X166402975Y-67640898D01*
X166396044Y-67627932D01*
X166386717Y-67616567D01*
X166375352Y-67607240D01*
X166362386Y-67600309D01*
X166348317Y-67596041D01*
X166333685Y-67594600D01*
X164434400Y-67594600D01*
X164434400Y-67035400D01*
X166390600Y-67035400D01*
X166390600Y-67462068D01*
G37*
G36*
X200594420Y-67553689D02*
G01*
X200636660Y-67566502D01*
X200675578Y-67587304D01*
X200709696Y-67615304D01*
X200737696Y-67649422D01*
X200758498Y-67688340D01*
X200771311Y-67730580D01*
X200776000Y-67778186D01*
X200776000Y-68471814D01*
X200771311Y-68519420D01*
X200758498Y-68561660D01*
X200737696Y-68600578D01*
X200709696Y-68634696D01*
X200675578Y-68662696D01*
X200636660Y-68683498D01*
X200594420Y-68696311D01*
X200546814Y-68701000D01*
X199953186Y-68701000D01*
X199905580Y-68696311D01*
X199863340Y-68683498D01*
X199824422Y-68662696D01*
X199790304Y-68634696D01*
X199762304Y-68600578D01*
X199741502Y-68561660D01*
X199728689Y-68519420D01*
X199724000Y-68471814D01*
X199724000Y-67778186D01*
X199728689Y-67730580D01*
X199741502Y-67688340D01*
X199762304Y-67649422D01*
X199790304Y-67615304D01*
X199824422Y-67587304D01*
X199863340Y-67566502D01*
X199905580Y-67553689D01*
X199953186Y-67549000D01*
X200546814Y-67549000D01*
X200594420Y-67553689D01*
G37*
G36*
X160000000Y-60000000D02*
G01*
X150000000Y-60000000D01*
X150000000Y-50000000D01*
X160000000Y-50000000D01*
X160000000Y-60000000D01*
G37*
G36*
X250000000Y-60000000D02*
G01*
X240000000Y-60000000D01*
X240000000Y-50000000D01*
X250000000Y-50000000D01*
X250000000Y-60000000D01*
G37*
G36*
X222265916Y-57194446D02*
G01*
X222335075Y-57215425D01*
X222398803Y-57249488D01*
X222454666Y-57295334D01*
X222500512Y-57351197D01*
X222534575Y-57414925D01*
X222555554Y-57484084D01*
X222563000Y-57559686D01*
X222563000Y-58440314D01*
X222555554Y-58515916D01*
X222534575Y-58585075D01*
X222500512Y-58648803D01*
X222454666Y-58704666D01*
X222398803Y-58750512D01*
X222335075Y-58784575D01*
X222265916Y-58805554D01*
X222190314Y-58813000D01*
X221309686Y-58813000D01*
X221234084Y-58805554D01*
X221164925Y-58784575D01*
X221101197Y-58750512D01*
X221045334Y-58704666D01*
X220999488Y-58648803D01*
X220965425Y-58585075D01*
X220944446Y-58515916D01*
X220937000Y-58440314D01*
X220937000Y-57559686D01*
X220944446Y-57484084D01*
X220965425Y-57414925D01*
X220999488Y-57351197D01*
X221045334Y-57295334D01*
X221101197Y-57249488D01*
X221164925Y-57215425D01*
X221234084Y-57194446D01*
X221309686Y-57187000D01*
X222190314Y-57187000D01*
X222265916Y-57194446D01*
G37*
M02*
