M48
; DRILL file {KiCad 5.1.5+dfsg1-2build2} date Tue 29 Sep 2020 02:11:19 PM PDT
; FORMAT={-:-/ absolute / inch / decimal}
; #@! TF.CreationDate,2020-09-29T14:11:19-07:00
; #@! TF.GenerationSoftware,Kicad,Pcbnew,5.1.5+dfsg1-2build2
; #@! TF.FileFunction,Plated,1,4,PTH
FMAT,2
INCH
T1C0.0080
T2C0.1457
%
G90
G05
T1
X6.45Y-2.8496
X6.45Y-2.952
X6.45Y-3.3024
X6.45Y-3.4008
X6.45Y-3.452
X6.45Y-3.5031
X6.45Y-3.5504
X6.45Y-3.6016
X6.45Y-3.6488
X6.45Y-3.7
X6.45Y-3.7512
X6.45Y-3.8024
X6.45Y-3.8998
X6.4502Y-2.7002
X6.4502Y-3.0502
X6.4502Y-3.2002
X6.4506Y-2.9002
X6.4506Y-3.3502
X6.451Y-2.7502
X6.451Y-3.0002
X6.451Y-3.2502
X6.451Y-3.8506
X6.4514Y-2.6502
X6.4514Y-3.1002
X6.4518Y-2.8002
X6.4526Y-3.1502
X6.7016Y-3.0496
X6.7031Y-2.8504
X6.7031Y-2.8992
X6.7031Y-3.9504
X6.7067Y-3.902
X6.8831Y-4.2945
X6.9382Y-4.2394
X6.9429Y-4.3732
X6.9437Y-4.4744
X7.0224Y-4.372
X7.0224Y-4.4764
X7.1358Y-2.9528
X7.1358Y-3.6713
X7.2567Y-4.3295
X7.2587Y-4.4756
X7.3374Y-4.4736
X7.3378Y-4.3287
X7.372Y-2.9528
X7.372Y-3.6614
X7.4606Y-2.9528
X7.4606Y-3.0413
X7.4606Y-3.1299
X7.4606Y-3.2185
X7.4606Y-3.3071
X7.4606Y-3.3957
X7.4606Y-3.4843
X7.4606Y-3.5728
X7.4606Y-3.6614
X7.4799Y-3.8835
X7.4799Y-3.9035
X7.4799Y-3.9236
X7.4799Y-3.9441
X7.4799Y-3.9638
X7.4799Y-3.9835
X7.4799Y-4.0031
X7.5197Y-3.8827
X7.5197Y-3.9031
X7.5197Y-3.9232
X7.5201Y-3.9437
X7.5205Y-3.9634
X7.5205Y-3.9831
X7.5205Y-4.0024
X7.5492Y-2.9528
X7.5492Y-3.0413
X7.5492Y-3.1299
X7.5492Y-3.2185
X7.5492Y-3.3071
X7.5492Y-3.3957
X7.5492Y-3.4843
X7.5492Y-3.5728
X7.5492Y-3.6614
X7.5571Y-3.8823
X7.5571Y-3.9031
X7.5571Y-3.9232
X7.5571Y-3.9433
X7.5571Y-3.963
X7.5571Y-3.9827
X7.5571Y-4.0024
X7.5906Y-4.748
X7.5933Y-3.8823
X7.5933Y-3.9031
X7.5933Y-3.9232
X7.5937Y-3.9433
X7.5941Y-3.963
X7.5941Y-3.9827
X7.5941Y-4.002
X7.5996Y-4.1921
X7.5996Y-4.2433
X7.5996Y-4.2906
X7.6193Y-4.1921
X7.6193Y-4.2433
X7.6193Y-4.2906
X7.6378Y-2.9528
X7.6378Y-3.0413
X7.6378Y-3.1299
X7.6378Y-3.2185
X7.6378Y-3.3071
X7.6378Y-3.3957
X7.6378Y-3.4843
X7.6378Y-3.5728
X7.6378Y-3.6614
X7.639Y-4.1921
X7.639Y-4.2433
X7.639Y-4.2906
X7.6587Y-4.1921
X7.6587Y-4.2433
X7.6587Y-4.2906
X7.6783Y-4.1921
X7.6783Y-4.2433
X7.6783Y-4.2906
X7.698Y-4.1921
X7.698Y-4.2433
X7.698Y-4.2906
X7.7177Y-4.1921
X7.7177Y-4.2433
X7.7177Y-4.2906
X7.7264Y-2.9528
X7.7264Y-3.0413
X7.7264Y-3.1299
X7.7264Y-3.2185
X7.7264Y-3.3071
X7.7264Y-3.3957
X7.7264Y-3.4843
X7.7264Y-3.5728
X7.7264Y-3.6614
X7.7374Y-4.1921
X7.7374Y-4.2433
X7.7374Y-4.2906
X7.7571Y-4.1921
X7.7571Y-4.2433
X7.7571Y-4.2906
X7.763Y-3.8992
X7.763Y-3.9177
X7.763Y-3.9362
X7.763Y-3.9547
X7.7634Y-3.9878
X7.7634Y-4.0063
X7.7634Y-4.0248
X7.7634Y-4.0429
X7.7768Y-4.1921
X7.7768Y-4.2433
X7.7768Y-4.2906
X7.7811Y-3.9185
X7.7811Y-3.9843
X7.7811Y-4.0024
X7.7811Y-4.0205
X7.7811Y-4.0386
X7.7815Y-3.9
X7.7815Y-3.9374
X7.785Y-3.9598
X7.7884Y-4.65
X7.7961Y-4.0488
X7.7965Y-4.1921
X7.7965Y-4.2433
X7.7965Y-4.2906
X7.7969Y-4.0295
X7.7972Y-4.011
X7.7988Y-3.9232
X7.7996Y-3.9417
X7.8008Y-3.9693
X7.8102Y-3.9972
X7.8122Y-3.9551
X7.8122Y-4.0398
X7.813Y-4.0205
X7.815Y-2.9528
X7.815Y-3.0413
X7.815Y-3.1299
X7.815Y-3.2185
X7.815Y-3.3071
X7.815Y-3.3957
X7.815Y-3.4843
X7.815Y-3.5728
X7.815Y-3.6614
X7.815Y-3.75
X7.815Y-3.8386
X7.8161Y-4.1921
X7.8161Y-4.2433
X7.8161Y-4.2906
X7.8165Y-3.9185
X7.8173Y-3.937
X7.8276Y-3.887
X7.8283Y-3.9913
X7.8283Y-4.0488
X7.8295Y-3.9728
X7.8307Y-3.9067
X7.8346Y-3.9429
X7.8362Y-3.9244
X7.837Y-4.0142
X7.837Y-4.0327
X7.8445Y-3.8945
X7.8445Y-3.9831
X7.8469Y-4.0488
X7.8476Y-3.9567
X7.8567Y-3.9409
X7.8575Y-4.0303
X7.861Y-4.0012
X7.8709Y-3.9858
X7.8717Y-3.8992
X7.8717Y-3.9189
X7.8736Y-3.9598
X7.8748Y-4.0476
X7.876Y-4.0126
X7.8886Y-4.0272
X7.889Y-3.9122
X7.889Y-3.9327
X7.889Y-3.9693
X7.8929Y-4.002
X7.8937Y-4.048
X7.9035Y-2.9528
X7.9035Y-3.0413
X7.9035Y-3.1299
X7.9035Y-3.2185
X7.9035Y-3.3071
X7.9035Y-3.3957
X7.9035Y-3.4843
X7.9035Y-3.5728
X7.9035Y-3.6614
X7.9035Y-3.75
X7.9035Y-3.8386
X7.9035Y-3.9472
X7.9079Y-3.9075
X7.9079Y-3.928
X7.913Y-3.9913
X7.913Y-4.0098
X7.913Y-4.048
X7.9134Y-4.0287
X7.9181Y-3.8894
X7.9181Y-3.9736
X7.9224Y-4.1921
X7.9224Y-4.2433
X7.9224Y-4.2906
X7.9276Y-3.9075
X7.928Y-3.9283
X7.9307Y-3.9492
X7.9319Y-3.9913
X7.9319Y-4.0098
X7.9319Y-4.0291
X7.9319Y-4.048
X7.9421Y-4.1921
X7.9421Y-4.2433
X7.9421Y-4.2906
X7.9439Y-4.749
X7.9508Y-3.9563
X7.9508Y-4.0291
X7.9512Y-3.8976
X7.9512Y-3.9173
X7.9512Y-3.9374
X7.9512Y-3.9913
X7.9512Y-4.0098
X7.9512Y-4.0484
X7.9618Y-4.1921
X7.9618Y-4.2433
X7.9618Y-4.2906
X7.9815Y-4.1921
X7.9815Y-4.2433
X7.9815Y-4.2906
X7.9921Y-2.9528
X7.9921Y-3.0413
X7.9921Y-3.1299
X7.9921Y-3.2185
X7.9921Y-3.3071
X7.9921Y-3.3957
X7.9921Y-3.4843
X7.9921Y-3.5728
X7.9921Y-3.6614
X8.0012Y-4.1921
X8.0012Y-4.2433
X8.0012Y-4.2906
X8.0209Y-4.1921
X8.0209Y-4.2433
X8.0209Y-4.2906
X8.0406Y-4.1921
X8.0406Y-4.2433
X8.0406Y-4.2906
X8.0602Y-4.1921
X8.0602Y-4.2433
X8.0602Y-4.2906
X8.0799Y-4.1921
X8.0799Y-4.2433
X8.0799Y-4.2906
X8.0807Y-2.9528
X8.0807Y-3.0413
X8.0807Y-3.1299
X8.0807Y-3.2185
X8.0807Y-3.3071
X8.0807Y-3.3957
X8.0807Y-3.4843
X8.0807Y-3.5728
X8.0807Y-3.6614
X8.0996Y-4.1921
X8.0996Y-4.2433
X8.0996Y-4.2906
X8.1193Y-4.1921
X8.1193Y-4.2433
X8.1193Y-4.2906
X8.139Y-4.1921
X8.139Y-4.2433
X8.139Y-4.2906
X8.1429Y-3.8654
X8.1429Y-3.8854
X8.1429Y-3.9055
X8.1429Y-3.926
X8.1429Y-3.9457
X8.1429Y-3.9654
X8.1429Y-3.985
X8.1447Y-4.7451
X8.1693Y-2.9528
X8.1693Y-3.0413
X8.1693Y-3.1299
X8.1693Y-3.2185
X8.1693Y-3.3071
X8.1693Y-3.3957
X8.1693Y-3.4843
X8.1693Y-3.5728
X8.1693Y-3.6614
X8.1827Y-3.8646
X8.1827Y-3.885
X8.1827Y-3.9051
X8.1831Y-3.9256
X8.1835Y-3.9453
X8.1835Y-3.965
X8.1835Y-3.9843
X8.2201Y-3.8642
X8.2201Y-3.885
X8.2201Y-3.9051
X8.2201Y-3.9252
X8.2201Y-3.9449
X8.2201Y-3.9646
X8.2201Y-3.9843
X8.2563Y-3.8642
X8.2563Y-3.885
X8.2563Y-3.9051
X8.2567Y-3.9252
X8.2571Y-3.9449
X8.2571Y-3.9646
X8.2571Y-3.9839
X8.2579Y-2.9528
X8.2579Y-3.0413
X8.2579Y-3.1299
X8.2579Y-3.2185
X8.2579Y-3.3071
X8.2579Y-3.3957
X8.2579Y-3.4843
X8.2579Y-3.5728
X8.2579Y-3.6614
X8.3465Y-2.9528
X8.3465Y-3.6614
X8.4843Y-4.4665
X8.5634Y-4.4693
X8.5827Y-2.9528
X8.5827Y-3.6713
X8.6421Y-4.4697
X8.7996Y-4.465
X9.0622Y-3.7496
X9.0622Y-4.1508
X9.0632Y-3.8496
X9.0632Y-4.0504
X9.0634Y-3.7004
X9.0642Y-3.95
X9.0642Y-4.2
X9.0644Y-3.6002
X9.0646Y-3.55
X9.065Y-4.1014
X9.3033Y-3.6006
X9.3043Y-3.45
X9.3053Y-3.3978
X9.3053Y-3.5504
X9.3063Y-2.8004
X9.3063Y-3.3004
X9.3063Y-3.6498
X9.3073Y-2.7
X9.3073Y-2.7512
X9.3073Y-2.8496
X9.3073Y-2.9008
X9.3073Y-3.1508
X9.3073Y-3.201
X9.3073Y-3.2512
X9.3083Y-2.6498
X9.3083Y-2.6498
X9.3083Y-2.95
X9.3083Y-3.1006
X9.3093Y-3.0002
X9.3093Y-3.0504
X9.3112Y-3.7
X9.3122Y-4.0504
X9.3122Y-4.0996
T2
X6.1024Y-4.685
X9.6457Y-2.1654
X9.6457Y-4.685
X6.1024Y-2.1654
T0
M30
