G04 #@! TF.GenerationSoftware,KiCad,Pcbnew,5.1.5-52549c5~84~ubuntu18.04.1*
G04 #@! TF.CreationDate,2020-03-06T12:12:04-08:00*
G04 #@! TF.ProjectId,PD_ElectrodeBoard_v4,50445f45-6c65-4637-9472-6f6465426f61,4*
G04 #@! TF.SameCoordinates,Original*
G04 #@! TF.FileFunction,Copper,L2,Bot*
G04 #@! TF.FilePolarity,Positive*
%FSLAX46Y46*%
G04 Gerber Fmt 4.6, Leading zero omitted, Abs format (unit mm)*
G04 Created by KiCad (PCBNEW 5.1.5-52549c5~84~ubuntu18.04.1) date 2020-03-06 12:12:04*
%MOMM*%
%LPD*%
G04 APERTURE LIST*
%ADD10C,0.100000*%
%ADD11R,5.800000X6.400000*%
%ADD12R,1.200000X2.200000*%
%ADD13C,1.193800*%
%ADD14R,1.854200X0.457200*%
%ADD15R,0.900000X0.800000*%
%ADD16R,0.800000X0.900000*%
%ADD17C,0.457200*%
%ADD18C,0.460000*%
%ADD19C,0.150000*%
%ADD20C,0.750000*%
%ADD21C,0.254000*%
G04 APERTURE END LIST*
G04 #@! TA.AperFunction,SMDPad,CuDef*
D10*
G36*
X222168345Y-57239835D02*
G01*
X222205329Y-57245321D01*
X222241598Y-57254406D01*
X222276802Y-57267002D01*
X222310602Y-57282988D01*
X222342672Y-57302210D01*
X222372704Y-57324483D01*
X222400408Y-57349592D01*
X222425517Y-57377296D01*
X222447790Y-57407328D01*
X222467012Y-57439398D01*
X222482998Y-57473198D01*
X222495594Y-57508402D01*
X222504679Y-57544671D01*
X222510165Y-57581655D01*
X222512000Y-57619000D01*
X222512000Y-58381000D01*
X222510165Y-58418345D01*
X222504679Y-58455329D01*
X222495594Y-58491598D01*
X222482998Y-58526802D01*
X222467012Y-58560602D01*
X222447790Y-58592672D01*
X222425517Y-58622704D01*
X222400408Y-58650408D01*
X222372704Y-58675517D01*
X222342672Y-58697790D01*
X222310602Y-58717012D01*
X222276802Y-58732998D01*
X222241598Y-58745594D01*
X222205329Y-58754679D01*
X222168345Y-58760165D01*
X222131000Y-58762000D01*
X221369000Y-58762000D01*
X221331655Y-58760165D01*
X221294671Y-58754679D01*
X221258402Y-58745594D01*
X221223198Y-58732998D01*
X221189398Y-58717012D01*
X221157328Y-58697790D01*
X221127296Y-58675517D01*
X221099592Y-58650408D01*
X221074483Y-58622704D01*
X221052210Y-58592672D01*
X221032988Y-58560602D01*
X221017002Y-58526802D01*
X221004406Y-58491598D01*
X220995321Y-58455329D01*
X220989835Y-58418345D01*
X220988000Y-58381000D01*
X220988000Y-57619000D01*
X220989835Y-57581655D01*
X220995321Y-57544671D01*
X221004406Y-57508402D01*
X221017002Y-57473198D01*
X221032988Y-57439398D01*
X221052210Y-57407328D01*
X221074483Y-57377296D01*
X221099592Y-57349592D01*
X221127296Y-57324483D01*
X221157328Y-57302210D01*
X221189398Y-57282988D01*
X221223198Y-57267002D01*
X221258402Y-57254406D01*
X221294671Y-57245321D01*
X221331655Y-57239835D01*
X221369000Y-57238000D01*
X222131000Y-57238000D01*
X222168345Y-57239835D01*
G37*
G04 #@! TD.AperFunction*
D11*
X203525000Y-105650000D03*
D12*
X201245000Y-111950000D03*
X205805000Y-111950000D03*
G04 #@! TA.AperFunction,SMDPad,CuDef*
D10*
G36*
X206888345Y-119639835D02*
G01*
X206925329Y-119645321D01*
X206961598Y-119654406D01*
X206996802Y-119667002D01*
X207030602Y-119682988D01*
X207062672Y-119702210D01*
X207092704Y-119724483D01*
X207120408Y-119749592D01*
X207145517Y-119777296D01*
X207167790Y-119807328D01*
X207187012Y-119839398D01*
X207202998Y-119873198D01*
X207215594Y-119908402D01*
X207224679Y-119944671D01*
X207230165Y-119981655D01*
X207232000Y-120019000D01*
X207232000Y-120781000D01*
X207230165Y-120818345D01*
X207224679Y-120855329D01*
X207215594Y-120891598D01*
X207202998Y-120926802D01*
X207187012Y-120960602D01*
X207167790Y-120992672D01*
X207145517Y-121022704D01*
X207120408Y-121050408D01*
X207092704Y-121075517D01*
X207062672Y-121097790D01*
X207030602Y-121117012D01*
X206996802Y-121132998D01*
X206961598Y-121145594D01*
X206925329Y-121154679D01*
X206888345Y-121160165D01*
X206851000Y-121162000D01*
X206089000Y-121162000D01*
X206051655Y-121160165D01*
X206014671Y-121154679D01*
X205978402Y-121145594D01*
X205943198Y-121132998D01*
X205909398Y-121117012D01*
X205877328Y-121097790D01*
X205847296Y-121075517D01*
X205819592Y-121050408D01*
X205794483Y-121022704D01*
X205772210Y-120992672D01*
X205752988Y-120960602D01*
X205737002Y-120926802D01*
X205724406Y-120891598D01*
X205715321Y-120855329D01*
X205709835Y-120818345D01*
X205708000Y-120781000D01*
X205708000Y-120019000D01*
X205709835Y-119981655D01*
X205715321Y-119944671D01*
X205724406Y-119908402D01*
X205737002Y-119873198D01*
X205752988Y-119839398D01*
X205772210Y-119807328D01*
X205794483Y-119777296D01*
X205819592Y-119749592D01*
X205847296Y-119724483D01*
X205877328Y-119702210D01*
X205909398Y-119682988D01*
X205943198Y-119667002D01*
X205978402Y-119654406D01*
X206014671Y-119645321D01*
X206051655Y-119639835D01*
X206089000Y-119638000D01*
X206851000Y-119638000D01*
X206888345Y-119639835D01*
G37*
G04 #@! TD.AperFunction*
G04 #@! TA.AperFunction,SMDPad,CuDef*
G36*
X204348345Y-119639835D02*
G01*
X204385329Y-119645321D01*
X204421598Y-119654406D01*
X204456802Y-119667002D01*
X204490602Y-119682988D01*
X204522672Y-119702210D01*
X204552704Y-119724483D01*
X204580408Y-119749592D01*
X204605517Y-119777296D01*
X204627790Y-119807328D01*
X204647012Y-119839398D01*
X204662998Y-119873198D01*
X204675594Y-119908402D01*
X204684679Y-119944671D01*
X204690165Y-119981655D01*
X204692000Y-120019000D01*
X204692000Y-120781000D01*
X204690165Y-120818345D01*
X204684679Y-120855329D01*
X204675594Y-120891598D01*
X204662998Y-120926802D01*
X204647012Y-120960602D01*
X204627790Y-120992672D01*
X204605517Y-121022704D01*
X204580408Y-121050408D01*
X204552704Y-121075517D01*
X204522672Y-121097790D01*
X204490602Y-121117012D01*
X204456802Y-121132998D01*
X204421598Y-121145594D01*
X204385329Y-121154679D01*
X204348345Y-121160165D01*
X204311000Y-121162000D01*
X203549000Y-121162000D01*
X203511655Y-121160165D01*
X203474671Y-121154679D01*
X203438402Y-121145594D01*
X203403198Y-121132998D01*
X203369398Y-121117012D01*
X203337328Y-121097790D01*
X203307296Y-121075517D01*
X203279592Y-121050408D01*
X203254483Y-121022704D01*
X203232210Y-120992672D01*
X203212988Y-120960602D01*
X203197002Y-120926802D01*
X203184406Y-120891598D01*
X203175321Y-120855329D01*
X203169835Y-120818345D01*
X203168000Y-120781000D01*
X203168000Y-120019000D01*
X203169835Y-119981655D01*
X203175321Y-119944671D01*
X203184406Y-119908402D01*
X203197002Y-119873198D01*
X203212988Y-119839398D01*
X203232210Y-119807328D01*
X203254483Y-119777296D01*
X203279592Y-119749592D01*
X203307296Y-119724483D01*
X203337328Y-119702210D01*
X203369398Y-119682988D01*
X203403198Y-119667002D01*
X203438402Y-119654406D01*
X203474671Y-119645321D01*
X203511655Y-119639835D01*
X203549000Y-119638000D01*
X204311000Y-119638000D01*
X204348345Y-119639835D01*
G37*
G04 #@! TD.AperFunction*
G04 #@! TA.AperFunction,SMDPad,CuDef*
G36*
X196688345Y-119639835D02*
G01*
X196725329Y-119645321D01*
X196761598Y-119654406D01*
X196796802Y-119667002D01*
X196830602Y-119682988D01*
X196862672Y-119702210D01*
X196892704Y-119724483D01*
X196920408Y-119749592D01*
X196945517Y-119777296D01*
X196967790Y-119807328D01*
X196987012Y-119839398D01*
X197002998Y-119873198D01*
X197015594Y-119908402D01*
X197024679Y-119944671D01*
X197030165Y-119981655D01*
X197032000Y-120019000D01*
X197032000Y-120781000D01*
X197030165Y-120818345D01*
X197024679Y-120855329D01*
X197015594Y-120891598D01*
X197002998Y-120926802D01*
X196987012Y-120960602D01*
X196967790Y-120992672D01*
X196945517Y-121022704D01*
X196920408Y-121050408D01*
X196892704Y-121075517D01*
X196862672Y-121097790D01*
X196830602Y-121117012D01*
X196796802Y-121132998D01*
X196761598Y-121145594D01*
X196725329Y-121154679D01*
X196688345Y-121160165D01*
X196651000Y-121162000D01*
X195889000Y-121162000D01*
X195851655Y-121160165D01*
X195814671Y-121154679D01*
X195778402Y-121145594D01*
X195743198Y-121132998D01*
X195709398Y-121117012D01*
X195677328Y-121097790D01*
X195647296Y-121075517D01*
X195619592Y-121050408D01*
X195594483Y-121022704D01*
X195572210Y-120992672D01*
X195552988Y-120960602D01*
X195537002Y-120926802D01*
X195524406Y-120891598D01*
X195515321Y-120855329D01*
X195509835Y-120818345D01*
X195508000Y-120781000D01*
X195508000Y-120019000D01*
X195509835Y-119981655D01*
X195515321Y-119944671D01*
X195524406Y-119908402D01*
X195537002Y-119873198D01*
X195552988Y-119839398D01*
X195572210Y-119807328D01*
X195594483Y-119777296D01*
X195619592Y-119749592D01*
X195647296Y-119724483D01*
X195677328Y-119702210D01*
X195709398Y-119682988D01*
X195743198Y-119667002D01*
X195778402Y-119654406D01*
X195814671Y-119645321D01*
X195851655Y-119639835D01*
X195889000Y-119638000D01*
X196651000Y-119638000D01*
X196688345Y-119639835D01*
G37*
G04 #@! TD.AperFunction*
G04 #@! TA.AperFunction,SMDPad,CuDef*
G36*
X194148345Y-119639835D02*
G01*
X194185329Y-119645321D01*
X194221598Y-119654406D01*
X194256802Y-119667002D01*
X194290602Y-119682988D01*
X194322672Y-119702210D01*
X194352704Y-119724483D01*
X194380408Y-119749592D01*
X194405517Y-119777296D01*
X194427790Y-119807328D01*
X194447012Y-119839398D01*
X194462998Y-119873198D01*
X194475594Y-119908402D01*
X194484679Y-119944671D01*
X194490165Y-119981655D01*
X194492000Y-120019000D01*
X194492000Y-120781000D01*
X194490165Y-120818345D01*
X194484679Y-120855329D01*
X194475594Y-120891598D01*
X194462998Y-120926802D01*
X194447012Y-120960602D01*
X194427790Y-120992672D01*
X194405517Y-121022704D01*
X194380408Y-121050408D01*
X194352704Y-121075517D01*
X194322672Y-121097790D01*
X194290602Y-121117012D01*
X194256802Y-121132998D01*
X194221598Y-121145594D01*
X194185329Y-121154679D01*
X194148345Y-121160165D01*
X194111000Y-121162000D01*
X193349000Y-121162000D01*
X193311655Y-121160165D01*
X193274671Y-121154679D01*
X193238402Y-121145594D01*
X193203198Y-121132998D01*
X193169398Y-121117012D01*
X193137328Y-121097790D01*
X193107296Y-121075517D01*
X193079592Y-121050408D01*
X193054483Y-121022704D01*
X193032210Y-120992672D01*
X193012988Y-120960602D01*
X192997002Y-120926802D01*
X192984406Y-120891598D01*
X192975321Y-120855329D01*
X192969835Y-120818345D01*
X192968000Y-120781000D01*
X192968000Y-120019000D01*
X192969835Y-119981655D01*
X192975321Y-119944671D01*
X192984406Y-119908402D01*
X192997002Y-119873198D01*
X193012988Y-119839398D01*
X193032210Y-119807328D01*
X193054483Y-119777296D01*
X193079592Y-119749592D01*
X193107296Y-119724483D01*
X193137328Y-119702210D01*
X193169398Y-119682988D01*
X193203198Y-119667002D01*
X193238402Y-119654406D01*
X193274671Y-119645321D01*
X193311655Y-119639835D01*
X193349000Y-119638000D01*
X194111000Y-119638000D01*
X194148345Y-119639835D01*
G37*
G04 #@! TD.AperFunction*
G04 #@! TA.AperFunction,SMDPad,CuDef*
G36*
X216188345Y-119639835D02*
G01*
X216225329Y-119645321D01*
X216261598Y-119654406D01*
X216296802Y-119667002D01*
X216330602Y-119682988D01*
X216362672Y-119702210D01*
X216392704Y-119724483D01*
X216420408Y-119749592D01*
X216445517Y-119777296D01*
X216467790Y-119807328D01*
X216487012Y-119839398D01*
X216502998Y-119873198D01*
X216515594Y-119908402D01*
X216524679Y-119944671D01*
X216530165Y-119981655D01*
X216532000Y-120019000D01*
X216532000Y-120781000D01*
X216530165Y-120818345D01*
X216524679Y-120855329D01*
X216515594Y-120891598D01*
X216502998Y-120926802D01*
X216487012Y-120960602D01*
X216467790Y-120992672D01*
X216445517Y-121022704D01*
X216420408Y-121050408D01*
X216392704Y-121075517D01*
X216362672Y-121097790D01*
X216330602Y-121117012D01*
X216296802Y-121132998D01*
X216261598Y-121145594D01*
X216225329Y-121154679D01*
X216188345Y-121160165D01*
X216151000Y-121162000D01*
X215389000Y-121162000D01*
X215351655Y-121160165D01*
X215314671Y-121154679D01*
X215278402Y-121145594D01*
X215243198Y-121132998D01*
X215209398Y-121117012D01*
X215177328Y-121097790D01*
X215147296Y-121075517D01*
X215119592Y-121050408D01*
X215094483Y-121022704D01*
X215072210Y-120992672D01*
X215052988Y-120960602D01*
X215037002Y-120926802D01*
X215024406Y-120891598D01*
X215015321Y-120855329D01*
X215009835Y-120818345D01*
X215008000Y-120781000D01*
X215008000Y-120019000D01*
X215009835Y-119981655D01*
X215015321Y-119944671D01*
X215024406Y-119908402D01*
X215037002Y-119873198D01*
X215052988Y-119839398D01*
X215072210Y-119807328D01*
X215094483Y-119777296D01*
X215119592Y-119749592D01*
X215147296Y-119724483D01*
X215177328Y-119702210D01*
X215209398Y-119682988D01*
X215243198Y-119667002D01*
X215278402Y-119654406D01*
X215314671Y-119645321D01*
X215351655Y-119639835D01*
X215389000Y-119638000D01*
X216151000Y-119638000D01*
X216188345Y-119639835D01*
G37*
G04 #@! TD.AperFunction*
G04 #@! TA.AperFunction,SMDPad,CuDef*
G36*
X213648345Y-119639835D02*
G01*
X213685329Y-119645321D01*
X213721598Y-119654406D01*
X213756802Y-119667002D01*
X213790602Y-119682988D01*
X213822672Y-119702210D01*
X213852704Y-119724483D01*
X213880408Y-119749592D01*
X213905517Y-119777296D01*
X213927790Y-119807328D01*
X213947012Y-119839398D01*
X213962998Y-119873198D01*
X213975594Y-119908402D01*
X213984679Y-119944671D01*
X213990165Y-119981655D01*
X213992000Y-120019000D01*
X213992000Y-120781000D01*
X213990165Y-120818345D01*
X213984679Y-120855329D01*
X213975594Y-120891598D01*
X213962998Y-120926802D01*
X213947012Y-120960602D01*
X213927790Y-120992672D01*
X213905517Y-121022704D01*
X213880408Y-121050408D01*
X213852704Y-121075517D01*
X213822672Y-121097790D01*
X213790602Y-121117012D01*
X213756802Y-121132998D01*
X213721598Y-121145594D01*
X213685329Y-121154679D01*
X213648345Y-121160165D01*
X213611000Y-121162000D01*
X212849000Y-121162000D01*
X212811655Y-121160165D01*
X212774671Y-121154679D01*
X212738402Y-121145594D01*
X212703198Y-121132998D01*
X212669398Y-121117012D01*
X212637328Y-121097790D01*
X212607296Y-121075517D01*
X212579592Y-121050408D01*
X212554483Y-121022704D01*
X212532210Y-120992672D01*
X212512988Y-120960602D01*
X212497002Y-120926802D01*
X212484406Y-120891598D01*
X212475321Y-120855329D01*
X212469835Y-120818345D01*
X212468000Y-120781000D01*
X212468000Y-120019000D01*
X212469835Y-119981655D01*
X212475321Y-119944671D01*
X212484406Y-119908402D01*
X212497002Y-119873198D01*
X212512988Y-119839398D01*
X212532210Y-119807328D01*
X212554483Y-119777296D01*
X212579592Y-119749592D01*
X212607296Y-119724483D01*
X212637328Y-119702210D01*
X212669398Y-119682988D01*
X212703198Y-119667002D01*
X212738402Y-119654406D01*
X212774671Y-119645321D01*
X212811655Y-119639835D01*
X212849000Y-119638000D01*
X213611000Y-119638000D01*
X213648345Y-119639835D01*
G37*
G04 #@! TD.AperFunction*
G04 #@! TA.AperFunction,SMDPad,CuDef*
G36*
X187188345Y-119639835D02*
G01*
X187225329Y-119645321D01*
X187261598Y-119654406D01*
X187296802Y-119667002D01*
X187330602Y-119682988D01*
X187362672Y-119702210D01*
X187392704Y-119724483D01*
X187420408Y-119749592D01*
X187445517Y-119777296D01*
X187467790Y-119807328D01*
X187487012Y-119839398D01*
X187502998Y-119873198D01*
X187515594Y-119908402D01*
X187524679Y-119944671D01*
X187530165Y-119981655D01*
X187532000Y-120019000D01*
X187532000Y-120781000D01*
X187530165Y-120818345D01*
X187524679Y-120855329D01*
X187515594Y-120891598D01*
X187502998Y-120926802D01*
X187487012Y-120960602D01*
X187467790Y-120992672D01*
X187445517Y-121022704D01*
X187420408Y-121050408D01*
X187392704Y-121075517D01*
X187362672Y-121097790D01*
X187330602Y-121117012D01*
X187296802Y-121132998D01*
X187261598Y-121145594D01*
X187225329Y-121154679D01*
X187188345Y-121160165D01*
X187151000Y-121162000D01*
X186389000Y-121162000D01*
X186351655Y-121160165D01*
X186314671Y-121154679D01*
X186278402Y-121145594D01*
X186243198Y-121132998D01*
X186209398Y-121117012D01*
X186177328Y-121097790D01*
X186147296Y-121075517D01*
X186119592Y-121050408D01*
X186094483Y-121022704D01*
X186072210Y-120992672D01*
X186052988Y-120960602D01*
X186037002Y-120926802D01*
X186024406Y-120891598D01*
X186015321Y-120855329D01*
X186009835Y-120818345D01*
X186008000Y-120781000D01*
X186008000Y-120019000D01*
X186009835Y-119981655D01*
X186015321Y-119944671D01*
X186024406Y-119908402D01*
X186037002Y-119873198D01*
X186052988Y-119839398D01*
X186072210Y-119807328D01*
X186094483Y-119777296D01*
X186119592Y-119749592D01*
X186147296Y-119724483D01*
X186177328Y-119702210D01*
X186209398Y-119682988D01*
X186243198Y-119667002D01*
X186278402Y-119654406D01*
X186314671Y-119645321D01*
X186351655Y-119639835D01*
X186389000Y-119638000D01*
X187151000Y-119638000D01*
X187188345Y-119639835D01*
G37*
G04 #@! TD.AperFunction*
G04 #@! TA.AperFunction,SMDPad,CuDef*
G36*
X184648345Y-119639835D02*
G01*
X184685329Y-119645321D01*
X184721598Y-119654406D01*
X184756802Y-119667002D01*
X184790602Y-119682988D01*
X184822672Y-119702210D01*
X184852704Y-119724483D01*
X184880408Y-119749592D01*
X184905517Y-119777296D01*
X184927790Y-119807328D01*
X184947012Y-119839398D01*
X184962998Y-119873198D01*
X184975594Y-119908402D01*
X184984679Y-119944671D01*
X184990165Y-119981655D01*
X184992000Y-120019000D01*
X184992000Y-120781000D01*
X184990165Y-120818345D01*
X184984679Y-120855329D01*
X184975594Y-120891598D01*
X184962998Y-120926802D01*
X184947012Y-120960602D01*
X184927790Y-120992672D01*
X184905517Y-121022704D01*
X184880408Y-121050408D01*
X184852704Y-121075517D01*
X184822672Y-121097790D01*
X184790602Y-121117012D01*
X184756802Y-121132998D01*
X184721598Y-121145594D01*
X184685329Y-121154679D01*
X184648345Y-121160165D01*
X184611000Y-121162000D01*
X183849000Y-121162000D01*
X183811655Y-121160165D01*
X183774671Y-121154679D01*
X183738402Y-121145594D01*
X183703198Y-121132998D01*
X183669398Y-121117012D01*
X183637328Y-121097790D01*
X183607296Y-121075517D01*
X183579592Y-121050408D01*
X183554483Y-121022704D01*
X183532210Y-120992672D01*
X183512988Y-120960602D01*
X183497002Y-120926802D01*
X183484406Y-120891598D01*
X183475321Y-120855329D01*
X183469835Y-120818345D01*
X183468000Y-120781000D01*
X183468000Y-120019000D01*
X183469835Y-119981655D01*
X183475321Y-119944671D01*
X183484406Y-119908402D01*
X183497002Y-119873198D01*
X183512988Y-119839398D01*
X183532210Y-119807328D01*
X183554483Y-119777296D01*
X183579592Y-119749592D01*
X183607296Y-119724483D01*
X183637328Y-119702210D01*
X183669398Y-119682988D01*
X183703198Y-119667002D01*
X183738402Y-119654406D01*
X183774671Y-119645321D01*
X183811655Y-119639835D01*
X183849000Y-119638000D01*
X184611000Y-119638000D01*
X184648345Y-119639835D01*
G37*
G04 #@! TD.AperFunction*
G04 #@! TA.AperFunction,SMDPad,CuDef*
G36*
X202648345Y-116339835D02*
G01*
X202685329Y-116345321D01*
X202721598Y-116354406D01*
X202756802Y-116367002D01*
X202790602Y-116382988D01*
X202822672Y-116402210D01*
X202852704Y-116424483D01*
X202880408Y-116449592D01*
X202905517Y-116477296D01*
X202927790Y-116507328D01*
X202947012Y-116539398D01*
X202962998Y-116573198D01*
X202975594Y-116608402D01*
X202984679Y-116644671D01*
X202990165Y-116681655D01*
X202992000Y-116719000D01*
X202992000Y-117481000D01*
X202990165Y-117518345D01*
X202984679Y-117555329D01*
X202975594Y-117591598D01*
X202962998Y-117626802D01*
X202947012Y-117660602D01*
X202927790Y-117692672D01*
X202905517Y-117722704D01*
X202880408Y-117750408D01*
X202852704Y-117775517D01*
X202822672Y-117797790D01*
X202790602Y-117817012D01*
X202756802Y-117832998D01*
X202721598Y-117845594D01*
X202685329Y-117854679D01*
X202648345Y-117860165D01*
X202611000Y-117862000D01*
X201849000Y-117862000D01*
X201811655Y-117860165D01*
X201774671Y-117854679D01*
X201738402Y-117845594D01*
X201703198Y-117832998D01*
X201669398Y-117817012D01*
X201637328Y-117797790D01*
X201607296Y-117775517D01*
X201579592Y-117750408D01*
X201554483Y-117722704D01*
X201532210Y-117692672D01*
X201512988Y-117660602D01*
X201497002Y-117626802D01*
X201484406Y-117591598D01*
X201475321Y-117555329D01*
X201469835Y-117518345D01*
X201468000Y-117481000D01*
X201468000Y-116719000D01*
X201469835Y-116681655D01*
X201475321Y-116644671D01*
X201484406Y-116608402D01*
X201497002Y-116573198D01*
X201512988Y-116539398D01*
X201532210Y-116507328D01*
X201554483Y-116477296D01*
X201579592Y-116449592D01*
X201607296Y-116424483D01*
X201637328Y-116402210D01*
X201669398Y-116382988D01*
X201703198Y-116367002D01*
X201738402Y-116354406D01*
X201774671Y-116345321D01*
X201811655Y-116339835D01*
X201849000Y-116338000D01*
X202611000Y-116338000D01*
X202648345Y-116339835D01*
G37*
G04 #@! TD.AperFunction*
G04 #@! TA.AperFunction,SMDPad,CuDef*
G36*
X205188345Y-116339835D02*
G01*
X205225329Y-116345321D01*
X205261598Y-116354406D01*
X205296802Y-116367002D01*
X205330602Y-116382988D01*
X205362672Y-116402210D01*
X205392704Y-116424483D01*
X205420408Y-116449592D01*
X205445517Y-116477296D01*
X205467790Y-116507328D01*
X205487012Y-116539398D01*
X205502998Y-116573198D01*
X205515594Y-116608402D01*
X205524679Y-116644671D01*
X205530165Y-116681655D01*
X205532000Y-116719000D01*
X205532000Y-117481000D01*
X205530165Y-117518345D01*
X205524679Y-117555329D01*
X205515594Y-117591598D01*
X205502998Y-117626802D01*
X205487012Y-117660602D01*
X205467790Y-117692672D01*
X205445517Y-117722704D01*
X205420408Y-117750408D01*
X205392704Y-117775517D01*
X205362672Y-117797790D01*
X205330602Y-117817012D01*
X205296802Y-117832998D01*
X205261598Y-117845594D01*
X205225329Y-117854679D01*
X205188345Y-117860165D01*
X205151000Y-117862000D01*
X204389000Y-117862000D01*
X204351655Y-117860165D01*
X204314671Y-117854679D01*
X204278402Y-117845594D01*
X204243198Y-117832998D01*
X204209398Y-117817012D01*
X204177328Y-117797790D01*
X204147296Y-117775517D01*
X204119592Y-117750408D01*
X204094483Y-117722704D01*
X204072210Y-117692672D01*
X204052988Y-117660602D01*
X204037002Y-117626802D01*
X204024406Y-117591598D01*
X204015321Y-117555329D01*
X204009835Y-117518345D01*
X204008000Y-117481000D01*
X204008000Y-116719000D01*
X204009835Y-116681655D01*
X204015321Y-116644671D01*
X204024406Y-116608402D01*
X204037002Y-116573198D01*
X204052988Y-116539398D01*
X204072210Y-116507328D01*
X204094483Y-116477296D01*
X204119592Y-116449592D01*
X204147296Y-116424483D01*
X204177328Y-116402210D01*
X204209398Y-116382988D01*
X204243198Y-116367002D01*
X204278402Y-116354406D01*
X204314671Y-116345321D01*
X204351655Y-116339835D01*
X204389000Y-116338000D01*
X205151000Y-116338000D01*
X205188345Y-116339835D01*
G37*
G04 #@! TD.AperFunction*
G04 #@! TA.AperFunction,SMDPad,CuDef*
G36*
X195748345Y-116339835D02*
G01*
X195785329Y-116345321D01*
X195821598Y-116354406D01*
X195856802Y-116367002D01*
X195890602Y-116382988D01*
X195922672Y-116402210D01*
X195952704Y-116424483D01*
X195980408Y-116449592D01*
X196005517Y-116477296D01*
X196027790Y-116507328D01*
X196047012Y-116539398D01*
X196062998Y-116573198D01*
X196075594Y-116608402D01*
X196084679Y-116644671D01*
X196090165Y-116681655D01*
X196092000Y-116719000D01*
X196092000Y-117481000D01*
X196090165Y-117518345D01*
X196084679Y-117555329D01*
X196075594Y-117591598D01*
X196062998Y-117626802D01*
X196047012Y-117660602D01*
X196027790Y-117692672D01*
X196005517Y-117722704D01*
X195980408Y-117750408D01*
X195952704Y-117775517D01*
X195922672Y-117797790D01*
X195890602Y-117817012D01*
X195856802Y-117832998D01*
X195821598Y-117845594D01*
X195785329Y-117854679D01*
X195748345Y-117860165D01*
X195711000Y-117862000D01*
X194949000Y-117862000D01*
X194911655Y-117860165D01*
X194874671Y-117854679D01*
X194838402Y-117845594D01*
X194803198Y-117832998D01*
X194769398Y-117817012D01*
X194737328Y-117797790D01*
X194707296Y-117775517D01*
X194679592Y-117750408D01*
X194654483Y-117722704D01*
X194632210Y-117692672D01*
X194612988Y-117660602D01*
X194597002Y-117626802D01*
X194584406Y-117591598D01*
X194575321Y-117555329D01*
X194569835Y-117518345D01*
X194568000Y-117481000D01*
X194568000Y-116719000D01*
X194569835Y-116681655D01*
X194575321Y-116644671D01*
X194584406Y-116608402D01*
X194597002Y-116573198D01*
X194612988Y-116539398D01*
X194632210Y-116507328D01*
X194654483Y-116477296D01*
X194679592Y-116449592D01*
X194707296Y-116424483D01*
X194737328Y-116402210D01*
X194769398Y-116382988D01*
X194803198Y-116367002D01*
X194838402Y-116354406D01*
X194874671Y-116345321D01*
X194911655Y-116339835D01*
X194949000Y-116338000D01*
X195711000Y-116338000D01*
X195748345Y-116339835D01*
G37*
G04 #@! TD.AperFunction*
G04 #@! TA.AperFunction,SMDPad,CuDef*
G36*
X198288345Y-116339835D02*
G01*
X198325329Y-116345321D01*
X198361598Y-116354406D01*
X198396802Y-116367002D01*
X198430602Y-116382988D01*
X198462672Y-116402210D01*
X198492704Y-116424483D01*
X198520408Y-116449592D01*
X198545517Y-116477296D01*
X198567790Y-116507328D01*
X198587012Y-116539398D01*
X198602998Y-116573198D01*
X198615594Y-116608402D01*
X198624679Y-116644671D01*
X198630165Y-116681655D01*
X198632000Y-116719000D01*
X198632000Y-117481000D01*
X198630165Y-117518345D01*
X198624679Y-117555329D01*
X198615594Y-117591598D01*
X198602998Y-117626802D01*
X198587012Y-117660602D01*
X198567790Y-117692672D01*
X198545517Y-117722704D01*
X198520408Y-117750408D01*
X198492704Y-117775517D01*
X198462672Y-117797790D01*
X198430602Y-117817012D01*
X198396802Y-117832998D01*
X198361598Y-117845594D01*
X198325329Y-117854679D01*
X198288345Y-117860165D01*
X198251000Y-117862000D01*
X197489000Y-117862000D01*
X197451655Y-117860165D01*
X197414671Y-117854679D01*
X197378402Y-117845594D01*
X197343198Y-117832998D01*
X197309398Y-117817012D01*
X197277328Y-117797790D01*
X197247296Y-117775517D01*
X197219592Y-117750408D01*
X197194483Y-117722704D01*
X197172210Y-117692672D01*
X197152988Y-117660602D01*
X197137002Y-117626802D01*
X197124406Y-117591598D01*
X197115321Y-117555329D01*
X197109835Y-117518345D01*
X197108000Y-117481000D01*
X197108000Y-116719000D01*
X197109835Y-116681655D01*
X197115321Y-116644671D01*
X197124406Y-116608402D01*
X197137002Y-116573198D01*
X197152988Y-116539398D01*
X197172210Y-116507328D01*
X197194483Y-116477296D01*
X197219592Y-116449592D01*
X197247296Y-116424483D01*
X197277328Y-116402210D01*
X197309398Y-116382988D01*
X197343198Y-116367002D01*
X197378402Y-116354406D01*
X197414671Y-116345321D01*
X197451655Y-116339835D01*
X197489000Y-116338000D01*
X198251000Y-116338000D01*
X198288345Y-116339835D01*
G37*
G04 #@! TD.AperFunction*
G04 #@! TA.AperFunction,SMDPad,CuDef*
G36*
X209748345Y-116339835D02*
G01*
X209785329Y-116345321D01*
X209821598Y-116354406D01*
X209856802Y-116367002D01*
X209890602Y-116382988D01*
X209922672Y-116402210D01*
X209952704Y-116424483D01*
X209980408Y-116449592D01*
X210005517Y-116477296D01*
X210027790Y-116507328D01*
X210047012Y-116539398D01*
X210062998Y-116573198D01*
X210075594Y-116608402D01*
X210084679Y-116644671D01*
X210090165Y-116681655D01*
X210092000Y-116719000D01*
X210092000Y-117481000D01*
X210090165Y-117518345D01*
X210084679Y-117555329D01*
X210075594Y-117591598D01*
X210062998Y-117626802D01*
X210047012Y-117660602D01*
X210027790Y-117692672D01*
X210005517Y-117722704D01*
X209980408Y-117750408D01*
X209952704Y-117775517D01*
X209922672Y-117797790D01*
X209890602Y-117817012D01*
X209856802Y-117832998D01*
X209821598Y-117845594D01*
X209785329Y-117854679D01*
X209748345Y-117860165D01*
X209711000Y-117862000D01*
X208949000Y-117862000D01*
X208911655Y-117860165D01*
X208874671Y-117854679D01*
X208838402Y-117845594D01*
X208803198Y-117832998D01*
X208769398Y-117817012D01*
X208737328Y-117797790D01*
X208707296Y-117775517D01*
X208679592Y-117750408D01*
X208654483Y-117722704D01*
X208632210Y-117692672D01*
X208612988Y-117660602D01*
X208597002Y-117626802D01*
X208584406Y-117591598D01*
X208575321Y-117555329D01*
X208569835Y-117518345D01*
X208568000Y-117481000D01*
X208568000Y-116719000D01*
X208569835Y-116681655D01*
X208575321Y-116644671D01*
X208584406Y-116608402D01*
X208597002Y-116573198D01*
X208612988Y-116539398D01*
X208632210Y-116507328D01*
X208654483Y-116477296D01*
X208679592Y-116449592D01*
X208707296Y-116424483D01*
X208737328Y-116402210D01*
X208769398Y-116382988D01*
X208803198Y-116367002D01*
X208838402Y-116354406D01*
X208874671Y-116345321D01*
X208911655Y-116339835D01*
X208949000Y-116338000D01*
X209711000Y-116338000D01*
X209748345Y-116339835D01*
G37*
G04 #@! TD.AperFunction*
G04 #@! TA.AperFunction,SMDPad,CuDef*
G36*
X212288345Y-116339835D02*
G01*
X212325329Y-116345321D01*
X212361598Y-116354406D01*
X212396802Y-116367002D01*
X212430602Y-116382988D01*
X212462672Y-116402210D01*
X212492704Y-116424483D01*
X212520408Y-116449592D01*
X212545517Y-116477296D01*
X212567790Y-116507328D01*
X212587012Y-116539398D01*
X212602998Y-116573198D01*
X212615594Y-116608402D01*
X212624679Y-116644671D01*
X212630165Y-116681655D01*
X212632000Y-116719000D01*
X212632000Y-117481000D01*
X212630165Y-117518345D01*
X212624679Y-117555329D01*
X212615594Y-117591598D01*
X212602998Y-117626802D01*
X212587012Y-117660602D01*
X212567790Y-117692672D01*
X212545517Y-117722704D01*
X212520408Y-117750408D01*
X212492704Y-117775517D01*
X212462672Y-117797790D01*
X212430602Y-117817012D01*
X212396802Y-117832998D01*
X212361598Y-117845594D01*
X212325329Y-117854679D01*
X212288345Y-117860165D01*
X212251000Y-117862000D01*
X211489000Y-117862000D01*
X211451655Y-117860165D01*
X211414671Y-117854679D01*
X211378402Y-117845594D01*
X211343198Y-117832998D01*
X211309398Y-117817012D01*
X211277328Y-117797790D01*
X211247296Y-117775517D01*
X211219592Y-117750408D01*
X211194483Y-117722704D01*
X211172210Y-117692672D01*
X211152988Y-117660602D01*
X211137002Y-117626802D01*
X211124406Y-117591598D01*
X211115321Y-117555329D01*
X211109835Y-117518345D01*
X211108000Y-117481000D01*
X211108000Y-116719000D01*
X211109835Y-116681655D01*
X211115321Y-116644671D01*
X211124406Y-116608402D01*
X211137002Y-116573198D01*
X211152988Y-116539398D01*
X211172210Y-116507328D01*
X211194483Y-116477296D01*
X211219592Y-116449592D01*
X211247296Y-116424483D01*
X211277328Y-116402210D01*
X211309398Y-116382988D01*
X211343198Y-116367002D01*
X211378402Y-116354406D01*
X211414671Y-116345321D01*
X211451655Y-116339835D01*
X211489000Y-116338000D01*
X212251000Y-116338000D01*
X212288345Y-116339835D01*
G37*
G04 #@! TD.AperFunction*
G04 #@! TA.AperFunction,SMDPad,CuDef*
G36*
X188748345Y-116339835D02*
G01*
X188785329Y-116345321D01*
X188821598Y-116354406D01*
X188856802Y-116367002D01*
X188890602Y-116382988D01*
X188922672Y-116402210D01*
X188952704Y-116424483D01*
X188980408Y-116449592D01*
X189005517Y-116477296D01*
X189027790Y-116507328D01*
X189047012Y-116539398D01*
X189062998Y-116573198D01*
X189075594Y-116608402D01*
X189084679Y-116644671D01*
X189090165Y-116681655D01*
X189092000Y-116719000D01*
X189092000Y-117481000D01*
X189090165Y-117518345D01*
X189084679Y-117555329D01*
X189075594Y-117591598D01*
X189062998Y-117626802D01*
X189047012Y-117660602D01*
X189027790Y-117692672D01*
X189005517Y-117722704D01*
X188980408Y-117750408D01*
X188952704Y-117775517D01*
X188922672Y-117797790D01*
X188890602Y-117817012D01*
X188856802Y-117832998D01*
X188821598Y-117845594D01*
X188785329Y-117854679D01*
X188748345Y-117860165D01*
X188711000Y-117862000D01*
X187949000Y-117862000D01*
X187911655Y-117860165D01*
X187874671Y-117854679D01*
X187838402Y-117845594D01*
X187803198Y-117832998D01*
X187769398Y-117817012D01*
X187737328Y-117797790D01*
X187707296Y-117775517D01*
X187679592Y-117750408D01*
X187654483Y-117722704D01*
X187632210Y-117692672D01*
X187612988Y-117660602D01*
X187597002Y-117626802D01*
X187584406Y-117591598D01*
X187575321Y-117555329D01*
X187569835Y-117518345D01*
X187568000Y-117481000D01*
X187568000Y-116719000D01*
X187569835Y-116681655D01*
X187575321Y-116644671D01*
X187584406Y-116608402D01*
X187597002Y-116573198D01*
X187612988Y-116539398D01*
X187632210Y-116507328D01*
X187654483Y-116477296D01*
X187679592Y-116449592D01*
X187707296Y-116424483D01*
X187737328Y-116402210D01*
X187769398Y-116382988D01*
X187803198Y-116367002D01*
X187838402Y-116354406D01*
X187874671Y-116345321D01*
X187911655Y-116339835D01*
X187949000Y-116338000D01*
X188711000Y-116338000D01*
X188748345Y-116339835D01*
G37*
G04 #@! TD.AperFunction*
G04 #@! TA.AperFunction,SMDPad,CuDef*
G36*
X191288345Y-116339835D02*
G01*
X191325329Y-116345321D01*
X191361598Y-116354406D01*
X191396802Y-116367002D01*
X191430602Y-116382988D01*
X191462672Y-116402210D01*
X191492704Y-116424483D01*
X191520408Y-116449592D01*
X191545517Y-116477296D01*
X191567790Y-116507328D01*
X191587012Y-116539398D01*
X191602998Y-116573198D01*
X191615594Y-116608402D01*
X191624679Y-116644671D01*
X191630165Y-116681655D01*
X191632000Y-116719000D01*
X191632000Y-117481000D01*
X191630165Y-117518345D01*
X191624679Y-117555329D01*
X191615594Y-117591598D01*
X191602998Y-117626802D01*
X191587012Y-117660602D01*
X191567790Y-117692672D01*
X191545517Y-117722704D01*
X191520408Y-117750408D01*
X191492704Y-117775517D01*
X191462672Y-117797790D01*
X191430602Y-117817012D01*
X191396802Y-117832998D01*
X191361598Y-117845594D01*
X191325329Y-117854679D01*
X191288345Y-117860165D01*
X191251000Y-117862000D01*
X190489000Y-117862000D01*
X190451655Y-117860165D01*
X190414671Y-117854679D01*
X190378402Y-117845594D01*
X190343198Y-117832998D01*
X190309398Y-117817012D01*
X190277328Y-117797790D01*
X190247296Y-117775517D01*
X190219592Y-117750408D01*
X190194483Y-117722704D01*
X190172210Y-117692672D01*
X190152988Y-117660602D01*
X190137002Y-117626802D01*
X190124406Y-117591598D01*
X190115321Y-117555329D01*
X190109835Y-117518345D01*
X190108000Y-117481000D01*
X190108000Y-116719000D01*
X190109835Y-116681655D01*
X190115321Y-116644671D01*
X190124406Y-116608402D01*
X190137002Y-116573198D01*
X190152988Y-116539398D01*
X190172210Y-116507328D01*
X190194483Y-116477296D01*
X190219592Y-116449592D01*
X190247296Y-116424483D01*
X190277328Y-116402210D01*
X190309398Y-116382988D01*
X190343198Y-116367002D01*
X190378402Y-116354406D01*
X190414671Y-116345321D01*
X190451655Y-116339835D01*
X190489000Y-116338000D01*
X191251000Y-116338000D01*
X191288345Y-116339835D01*
G37*
G04 #@! TD.AperFunction*
G04 #@! TA.AperFunction,SMDPad,CuDef*
G36*
X200510779Y-69351144D02*
G01*
X200533834Y-69354563D01*
X200556443Y-69360227D01*
X200578387Y-69368079D01*
X200599457Y-69378044D01*
X200619448Y-69390026D01*
X200638168Y-69403910D01*
X200655438Y-69419562D01*
X200671090Y-69436832D01*
X200684974Y-69455552D01*
X200696956Y-69475543D01*
X200706921Y-69496613D01*
X200714773Y-69518557D01*
X200720437Y-69541166D01*
X200723856Y-69564221D01*
X200725000Y-69587500D01*
X200725000Y-70162500D01*
X200723856Y-70185779D01*
X200720437Y-70208834D01*
X200714773Y-70231443D01*
X200706921Y-70253387D01*
X200696956Y-70274457D01*
X200684974Y-70294448D01*
X200671090Y-70313168D01*
X200655438Y-70330438D01*
X200638168Y-70346090D01*
X200619448Y-70359974D01*
X200599457Y-70371956D01*
X200578387Y-70381921D01*
X200556443Y-70389773D01*
X200533834Y-70395437D01*
X200510779Y-70398856D01*
X200487500Y-70400000D01*
X200012500Y-70400000D01*
X199989221Y-70398856D01*
X199966166Y-70395437D01*
X199943557Y-70389773D01*
X199921613Y-70381921D01*
X199900543Y-70371956D01*
X199880552Y-70359974D01*
X199861832Y-70346090D01*
X199844562Y-70330438D01*
X199828910Y-70313168D01*
X199815026Y-70294448D01*
X199803044Y-70274457D01*
X199793079Y-70253387D01*
X199785227Y-70231443D01*
X199779563Y-70208834D01*
X199776144Y-70185779D01*
X199775000Y-70162500D01*
X199775000Y-69587500D01*
X199776144Y-69564221D01*
X199779563Y-69541166D01*
X199785227Y-69518557D01*
X199793079Y-69496613D01*
X199803044Y-69475543D01*
X199815026Y-69455552D01*
X199828910Y-69436832D01*
X199844562Y-69419562D01*
X199861832Y-69403910D01*
X199880552Y-69390026D01*
X199900543Y-69378044D01*
X199921613Y-69368079D01*
X199943557Y-69360227D01*
X199966166Y-69354563D01*
X199989221Y-69351144D01*
X200012500Y-69350000D01*
X200487500Y-69350000D01*
X200510779Y-69351144D01*
G37*
G04 #@! TD.AperFunction*
G04 #@! TA.AperFunction,SMDPad,CuDef*
G36*
X200510779Y-67601144D02*
G01*
X200533834Y-67604563D01*
X200556443Y-67610227D01*
X200578387Y-67618079D01*
X200599457Y-67628044D01*
X200619448Y-67640026D01*
X200638168Y-67653910D01*
X200655438Y-67669562D01*
X200671090Y-67686832D01*
X200684974Y-67705552D01*
X200696956Y-67725543D01*
X200706921Y-67746613D01*
X200714773Y-67768557D01*
X200720437Y-67791166D01*
X200723856Y-67814221D01*
X200725000Y-67837500D01*
X200725000Y-68412500D01*
X200723856Y-68435779D01*
X200720437Y-68458834D01*
X200714773Y-68481443D01*
X200706921Y-68503387D01*
X200696956Y-68524457D01*
X200684974Y-68544448D01*
X200671090Y-68563168D01*
X200655438Y-68580438D01*
X200638168Y-68596090D01*
X200619448Y-68609974D01*
X200599457Y-68621956D01*
X200578387Y-68631921D01*
X200556443Y-68639773D01*
X200533834Y-68645437D01*
X200510779Y-68648856D01*
X200487500Y-68650000D01*
X200012500Y-68650000D01*
X199989221Y-68648856D01*
X199966166Y-68645437D01*
X199943557Y-68639773D01*
X199921613Y-68631921D01*
X199900543Y-68621956D01*
X199880552Y-68609974D01*
X199861832Y-68596090D01*
X199844562Y-68580438D01*
X199828910Y-68563168D01*
X199815026Y-68544448D01*
X199803044Y-68524457D01*
X199793079Y-68503387D01*
X199785227Y-68481443D01*
X199779563Y-68458834D01*
X199776144Y-68435779D01*
X199775000Y-68412500D01*
X199775000Y-67837500D01*
X199776144Y-67814221D01*
X199779563Y-67791166D01*
X199785227Y-67768557D01*
X199793079Y-67746613D01*
X199803044Y-67725543D01*
X199815026Y-67705552D01*
X199828910Y-67686832D01*
X199844562Y-67669562D01*
X199861832Y-67653910D01*
X199880552Y-67640026D01*
X199900543Y-67628044D01*
X199921613Y-67618079D01*
X199943557Y-67610227D01*
X199966166Y-67604563D01*
X199989221Y-67601144D01*
X200012500Y-67600000D01*
X200487500Y-67600000D01*
X200510779Y-67601144D01*
G37*
G04 #@! TD.AperFunction*
D13*
X167000000Y-106050000D03*
X167000000Y-67950000D03*
D14*
X168587500Y-67315000D03*
X165412500Y-67315000D03*
X168587500Y-68585000D03*
X165412500Y-68585000D03*
X168587500Y-69855000D03*
X165412500Y-69855000D03*
X168587500Y-71125000D03*
X165412500Y-71125000D03*
X168587500Y-72395000D03*
X165412500Y-72395000D03*
X168587500Y-73665000D03*
X165412500Y-73665000D03*
X168587500Y-74935000D03*
X165412500Y-74935000D03*
X168587500Y-76205000D03*
X165412500Y-76205000D03*
X168587500Y-77475000D03*
X165412500Y-77475000D03*
X168587500Y-78745000D03*
X165412500Y-78745000D03*
X168587500Y-80015000D03*
X165412500Y-80015000D03*
X168587500Y-81285000D03*
X165412500Y-81285000D03*
X168587500Y-82555000D03*
X165412500Y-82555000D03*
X168587500Y-83825000D03*
X165412500Y-83825000D03*
X168587500Y-85095000D03*
X165412500Y-85095000D03*
X168587500Y-86365000D03*
X165412500Y-86365000D03*
X168587500Y-87635000D03*
X165412500Y-87635000D03*
X168587500Y-88905000D03*
X165412500Y-88905000D03*
X168587500Y-90175000D03*
X165412500Y-90175000D03*
X168587500Y-91445000D03*
X165412500Y-91445000D03*
X168587500Y-92715000D03*
X165412500Y-92715000D03*
X168587500Y-93985000D03*
X165412500Y-93985000D03*
X168587500Y-95255000D03*
X165412500Y-95255000D03*
X168587500Y-96525000D03*
X165412500Y-96525000D03*
X168587500Y-97795000D03*
X165412500Y-97795000D03*
X168587500Y-99065000D03*
X165412500Y-99065000D03*
X168587500Y-100335000D03*
X165412500Y-100335000D03*
X168587500Y-101605000D03*
X165412500Y-101605000D03*
X168587500Y-102875000D03*
X165412500Y-102875000D03*
X168587500Y-104145000D03*
X165412500Y-104145000D03*
X168587500Y-105415000D03*
X165412500Y-105415000D03*
X168587500Y-106685000D03*
X165412500Y-106685000D03*
D15*
X203300000Y-100100000D03*
X205300000Y-101050000D03*
X205300000Y-99150000D03*
X196700000Y-100100000D03*
X194700000Y-99150000D03*
X194700000Y-101050000D03*
D16*
X203800000Y-97000000D03*
X204750000Y-95000000D03*
X202850000Y-95000000D03*
X196300000Y-97000000D03*
X197250000Y-95000000D03*
X195350000Y-95000000D03*
D11*
X196475000Y-105650000D03*
D12*
X194195000Y-111950000D03*
X198755000Y-111950000D03*
D11*
X210575000Y-104100000D03*
D12*
X208295000Y-110400000D03*
X212855000Y-110400000D03*
D11*
X189400000Y-104150000D03*
D12*
X187120000Y-110450000D03*
X191680000Y-110450000D03*
D13*
X233300000Y-106050000D03*
X233300000Y-67950000D03*
D14*
X234887500Y-67315000D03*
X231712500Y-67315000D03*
X234887500Y-68585000D03*
X231712500Y-68585000D03*
X234887500Y-69855000D03*
X231712500Y-69855000D03*
X234887500Y-71125000D03*
X231712500Y-71125000D03*
X234887500Y-72395000D03*
X231712500Y-72395000D03*
X234887500Y-73665000D03*
X231712500Y-73665000D03*
X234887500Y-74935000D03*
X231712500Y-74935000D03*
X234887500Y-76205000D03*
X231712500Y-76205000D03*
X234887500Y-77475000D03*
X231712500Y-77475000D03*
X234887500Y-78745000D03*
X231712500Y-78745000D03*
X234887500Y-80015000D03*
X231712500Y-80015000D03*
X234887500Y-81285000D03*
X231712500Y-81285000D03*
X234887500Y-82555000D03*
X231712500Y-82555000D03*
X234887500Y-83825000D03*
X231712500Y-83825000D03*
X234887500Y-85095000D03*
X231712500Y-85095000D03*
X234887500Y-86365000D03*
X231712500Y-86365000D03*
X234887500Y-87635000D03*
X231712500Y-87635000D03*
X234887500Y-88905000D03*
X231712500Y-88905000D03*
X234887500Y-90175000D03*
X231712500Y-90175000D03*
X234887500Y-91445000D03*
X231712500Y-91445000D03*
X234887500Y-92715000D03*
X231712500Y-92715000D03*
X234887500Y-93985000D03*
X231712500Y-93985000D03*
X234887500Y-95255000D03*
X231712500Y-95255000D03*
X234887500Y-96525000D03*
X231712500Y-96525000D03*
X234887500Y-97795000D03*
X231712500Y-97795000D03*
X234887500Y-99065000D03*
X231712500Y-99065000D03*
X234887500Y-100335000D03*
X231712500Y-100335000D03*
X234887500Y-101605000D03*
X231712500Y-101605000D03*
X234887500Y-102875000D03*
X231712500Y-102875000D03*
X234887500Y-104145000D03*
X231712500Y-104145000D03*
X234887500Y-105415000D03*
X231712500Y-105415000D03*
X234887500Y-106685000D03*
X231712500Y-106685000D03*
D17*
X201250000Y-87500000D03*
X201250000Y-90000000D03*
X188750000Y-87500000D03*
X186250000Y-90000000D03*
X183750000Y-90000000D03*
X180000000Y-90000000D03*
X211250000Y-80000000D03*
X211250000Y-82500000D03*
X208750000Y-82500000D03*
X213750000Y-80000000D03*
X208750000Y-80000000D03*
X216250000Y-80000000D03*
X203750000Y-85000000D03*
X213750000Y-82500000D03*
X206250000Y-82500000D03*
X216250000Y-82500000D03*
X203750000Y-87500000D03*
X220000000Y-77500000D03*
X206253610Y-80000000D03*
X218750000Y-80000000D03*
X203766462Y-82516462D03*
X221800000Y-80000000D03*
X201250000Y-85000000D03*
X226250000Y-80000000D03*
X203750000Y-80000000D03*
X220000000Y-82500000D03*
X201250000Y-82500000D03*
X211250000Y-85000000D03*
X201250000Y-80000000D03*
X213750000Y-85000000D03*
X201250000Y-77500000D03*
X216250000Y-85000000D03*
X201250000Y-75000000D03*
X208750000Y-85000000D03*
X206250000Y-85000000D03*
X206250000Y-87500000D03*
X208750000Y-87500000D03*
X216250000Y-87500000D03*
X213750000Y-87500000D03*
X211250000Y-87500000D03*
X200250000Y-99500000D03*
X201750000Y-99000000D03*
X202250000Y-99500000D03*
X202250000Y-100000000D03*
X202250000Y-100500000D03*
X202250000Y-101000000D03*
X200750000Y-100750000D03*
X201750000Y-101000000D03*
X201250000Y-101000000D03*
X201250000Y-100500000D03*
X201750000Y-100500000D03*
X201750000Y-100000000D03*
X201750000Y-99500000D03*
X201250000Y-99500000D03*
X200750000Y-100000000D03*
X201250000Y-100000000D03*
X200250000Y-97000000D03*
X200750000Y-97500000D03*
X200750000Y-98500000D03*
X201250000Y-98000000D03*
X202250000Y-98000000D03*
X201750000Y-96500000D03*
X202250000Y-97000000D03*
X202250000Y-97500000D03*
X201750000Y-97500000D03*
X201750000Y-97000000D03*
X201250000Y-97000000D03*
X201250000Y-97500000D03*
X220000000Y-90000000D03*
X201250000Y-95000000D03*
X226250000Y-92500000D03*
X201250000Y-92500000D03*
X222500000Y-92500000D03*
X203750000Y-92500000D03*
X218750000Y-92500000D03*
X206250000Y-92500000D03*
X220000000Y-95000000D03*
X208750000Y-92500000D03*
X216250000Y-90000000D03*
X211250000Y-92500000D03*
X213750000Y-90000000D03*
X203750000Y-90000000D03*
X211250000Y-90000000D03*
X206250000Y-90000000D03*
X216196390Y-92500000D03*
X213750000Y-92500000D03*
X208750000Y-90000000D03*
X188750000Y-82500000D03*
X188750000Y-80000000D03*
X186250000Y-80000000D03*
X191250000Y-82500000D03*
X186250000Y-82500000D03*
X191250000Y-80000000D03*
X183750000Y-82500000D03*
X193750000Y-82500000D03*
X183733538Y-80016462D03*
X193750000Y-80000000D03*
X181250000Y-80000000D03*
X196250000Y-85000000D03*
X177750000Y-80000000D03*
X196250000Y-82500000D03*
X173750000Y-80000000D03*
X196250000Y-80000000D03*
X188750000Y-85000000D03*
X198750000Y-85000000D03*
X186250000Y-85000000D03*
X198750000Y-82500000D03*
X183750000Y-85000000D03*
X198750000Y-80000000D03*
X191250000Y-85000000D03*
X198750000Y-77500000D03*
X193750000Y-85000000D03*
X198750000Y-75000000D03*
X193750000Y-87500000D03*
X191250000Y-87500000D03*
X183750000Y-87500000D03*
X186250000Y-87500000D03*
X173500000Y-92500000D03*
X178250000Y-92500000D03*
X197750000Y-100500000D03*
X197750000Y-100000000D03*
X197750000Y-101000000D03*
X199250000Y-99000000D03*
X198000000Y-99500000D03*
X199750000Y-100500000D03*
X199250000Y-100000000D03*
X199250000Y-100500000D03*
X199250000Y-101000000D03*
X198750000Y-101000000D03*
X198250000Y-101000000D03*
X198750000Y-99500000D03*
X198250000Y-100000000D03*
X198250000Y-100500000D03*
X198750000Y-100500000D03*
X198750000Y-100000000D03*
X181250000Y-92500000D03*
X198250000Y-98500000D03*
X197750000Y-98000000D03*
X198250000Y-98000000D03*
X198750000Y-98000000D03*
X199750000Y-98000000D03*
X199250000Y-96500000D03*
X198750000Y-97000000D03*
X197750000Y-97000000D03*
X197750000Y-97500000D03*
X198250000Y-97500000D03*
X199250000Y-97500000D03*
X198750000Y-97500000D03*
X196250000Y-87500000D03*
X198750000Y-95000000D03*
X188750000Y-90000000D03*
X196250000Y-92503610D03*
X183746390Y-92500000D03*
X193750000Y-92503610D03*
X180000000Y-95000000D03*
X198750000Y-92500000D03*
X193750000Y-90000000D03*
X198750000Y-90000000D03*
X186250000Y-92496390D03*
X191249991Y-92446335D03*
X191250000Y-90000000D03*
X198750000Y-87500000D03*
X196160903Y-89910903D03*
X188750000Y-92491302D03*
X185300000Y-103150000D03*
X185300000Y-109350000D03*
X184500000Y-103100000D03*
X184500000Y-109350000D03*
X216300000Y-104100000D03*
X216300000Y-108950000D03*
X215000000Y-104100000D03*
X215000000Y-108950000D03*
X193650000Y-99150000D03*
X196450000Y-109950000D03*
X193800000Y-101050000D03*
X193150000Y-109750000D03*
X206150000Y-101050000D03*
X206850000Y-110000000D03*
D18*
X206200000Y-99150000D03*
D17*
X203750000Y-110350000D03*
X200250000Y-72250000D03*
D19*
X188750000Y-87500000D02*
X187617437Y-87500000D01*
X187617437Y-87500000D02*
X186617437Y-88500000D01*
X179900000Y-88500000D02*
X179750000Y-88500000D01*
X186617437Y-88500000D02*
X179900000Y-88500000D01*
X170245000Y-88905000D02*
X168587500Y-88905000D01*
X170695000Y-88905000D02*
X170245000Y-88905000D01*
X179900000Y-88500000D02*
X171100000Y-88500000D01*
X171100000Y-88500000D02*
X170695000Y-88905000D01*
X170175000Y-90175000D02*
X168587500Y-90175000D01*
X171950000Y-88950000D02*
X170725000Y-90175000D01*
X184067437Y-88950000D02*
X171950000Y-88950000D01*
X170725000Y-90175000D02*
X170175000Y-90175000D01*
X186250000Y-90000000D02*
X185117437Y-90000000D01*
X185117437Y-90000000D02*
X184067437Y-88950000D01*
X173450000Y-89400000D02*
X171400000Y-91450000D01*
X171400000Y-91450000D02*
X170100000Y-91450000D01*
X183750000Y-90000000D02*
X183150000Y-89400000D01*
X183150000Y-89400000D02*
X173450000Y-89400000D01*
X170095000Y-91445000D02*
X168587500Y-91445000D01*
X170100000Y-91450000D02*
X170095000Y-91445000D01*
X170285000Y-92715000D02*
X168587500Y-92715000D01*
X171185000Y-92715000D02*
X170285000Y-92715000D01*
X180000000Y-90000000D02*
X173900000Y-90000000D01*
X173900000Y-90000000D02*
X171185000Y-92715000D01*
X227299989Y-66100011D02*
X235850011Y-66100011D01*
X212550011Y-78699989D02*
X214700011Y-78699989D01*
X211250000Y-80000000D02*
X212550011Y-78699989D01*
X214700011Y-78699989D02*
X227299989Y-66100011D01*
X236650000Y-66900000D02*
X236650000Y-67100000D01*
X235850011Y-66100011D02*
X236650000Y-66900000D01*
X236435000Y-67315000D02*
X234887500Y-67315000D01*
X236650000Y-67100000D02*
X236435000Y-67315000D01*
X226785000Y-67315000D02*
X230585000Y-67315000D01*
X212382563Y-82500000D02*
X212750000Y-82132563D01*
X213400000Y-79100000D02*
X215000000Y-79100000D01*
X230585000Y-67315000D02*
X231712500Y-67315000D01*
X211250000Y-82500000D02*
X212382563Y-82500000D01*
X212750000Y-82132563D02*
X212750000Y-79750000D01*
X212750000Y-79750000D02*
X213400000Y-79100000D01*
X215000000Y-79100000D02*
X226785000Y-67315000D01*
X227097100Y-65700000D02*
X236700000Y-65700000D01*
X208750000Y-81250000D02*
X211750000Y-78250000D01*
X214547100Y-78250000D02*
X227097100Y-65700000D01*
X236700000Y-65700000D02*
X237500000Y-66500000D01*
X211750000Y-78250000D02*
X214547100Y-78250000D01*
X208750000Y-82500000D02*
X208750000Y-81250000D01*
X237500000Y-66500000D02*
X237500000Y-67850000D01*
X236715000Y-68585000D02*
X234887500Y-68585000D01*
X237450000Y-67850000D02*
X236715000Y-68585000D01*
X226115000Y-68585000D02*
X230565000Y-68585000D01*
X213750000Y-80000000D02*
X214700000Y-80000000D01*
X230565000Y-68585000D02*
X231712500Y-68585000D01*
X214700000Y-80000000D02*
X226115000Y-68585000D01*
X237050000Y-65300000D02*
X238000000Y-66250000D01*
X226931400Y-65300000D02*
X237050000Y-65300000D01*
X214481400Y-77750000D02*
X226931400Y-65300000D01*
X208750000Y-80000000D02*
X211000000Y-77750000D01*
X211000000Y-77750000D02*
X214481400Y-77750000D01*
X238000000Y-68950000D02*
X238000000Y-69500000D01*
X238000000Y-66250000D02*
X238000000Y-68950000D01*
X237645000Y-69855000D02*
X234887500Y-69855000D01*
X238000000Y-69500000D02*
X237645000Y-69855000D01*
X225500000Y-69850000D02*
X230350000Y-69850000D01*
X216250000Y-80000000D02*
X216250000Y-79100000D01*
X216250000Y-79100000D02*
X225500000Y-69850000D01*
X230355000Y-69855000D02*
X231712500Y-69855000D01*
X230350000Y-69850000D02*
X230355000Y-69855000D01*
X237215700Y-64900000D02*
X238500000Y-66184300D01*
X226765700Y-64900000D02*
X237215700Y-64900000D01*
X214415700Y-77250000D02*
X226765700Y-64900000D01*
X206750000Y-83750000D02*
X208000000Y-82500000D01*
X210500000Y-77250000D02*
X214415700Y-77250000D01*
X203750000Y-85000000D02*
X204882563Y-85000000D01*
X204882563Y-85000000D02*
X206132563Y-83750000D01*
X206132563Y-83750000D02*
X206750000Y-83750000D01*
X208000000Y-82500000D02*
X208000000Y-79750000D01*
X208000000Y-79750000D02*
X210500000Y-77250000D01*
X238500000Y-70200000D02*
X238500000Y-70400000D01*
X238500000Y-66184300D02*
X238500000Y-70200000D01*
X237775000Y-71125000D02*
X234887500Y-71125000D01*
X238500000Y-70400000D02*
X237775000Y-71125000D01*
X230475000Y-71125000D02*
X231712500Y-71125000D01*
X224975000Y-71125000D02*
X230475000Y-71125000D01*
X214882563Y-82500000D02*
X215882563Y-81500000D01*
X213750000Y-82500000D02*
X214882563Y-82500000D01*
X215882563Y-81500000D02*
X216750000Y-81500000D01*
X216750000Y-81500000D02*
X217250000Y-81000000D01*
X217250000Y-81000000D02*
X217250000Y-78850000D01*
X217250000Y-78850000D02*
X224975000Y-71125000D01*
X226600000Y-64500000D02*
X237381400Y-64500000D01*
X207382563Y-82500000D02*
X207500000Y-82382563D01*
X206250000Y-82500000D02*
X207382563Y-82500000D01*
X207500000Y-82382563D02*
X207500000Y-79500000D01*
X207500000Y-79500000D02*
X210250000Y-76750000D01*
X210250000Y-76750000D02*
X214350000Y-76750000D01*
X237381400Y-64500000D02*
X239000000Y-66118600D01*
X214350000Y-76750000D02*
X226600000Y-64500000D01*
X239000000Y-71500000D02*
X239000000Y-71750000D01*
X239000000Y-66118600D02*
X239000000Y-71500000D01*
X238355000Y-72395000D02*
X234887500Y-72395000D01*
X239000000Y-71750000D02*
X238355000Y-72395000D01*
X230605000Y-72395000D02*
X231712500Y-72395000D01*
X224270700Y-72395000D02*
X230605000Y-72395000D01*
X218000000Y-78665700D02*
X224270700Y-72395000D01*
X216250000Y-82500000D02*
X217445050Y-82500000D01*
X218000000Y-81945050D02*
X218000000Y-78665700D01*
X217445050Y-82500000D02*
X218000000Y-81945050D01*
X237600000Y-64100000D02*
X239500000Y-66000000D01*
X214250000Y-76250000D02*
X226400000Y-64100000D01*
X207000000Y-80500000D02*
X207000000Y-79250000D01*
X205500000Y-82000000D02*
X207000000Y-80500000D01*
X226400000Y-64100000D02*
X237600000Y-64100000D01*
X205500000Y-83250000D02*
X205500000Y-82000000D01*
X210000000Y-76250000D02*
X214250000Y-76250000D01*
X207000000Y-79250000D02*
X210000000Y-76250000D01*
X203750000Y-86367437D02*
X203000000Y-85617437D01*
X203750000Y-87500000D02*
X203750000Y-86367437D01*
X203000000Y-85617437D02*
X203000000Y-84750000D01*
X203000000Y-84750000D02*
X203500000Y-84250000D01*
X203500000Y-84250000D02*
X204500000Y-84250000D01*
X204500000Y-84250000D02*
X205500000Y-83250000D01*
X239500000Y-72550000D02*
X238385000Y-73665000D01*
X238385000Y-73665000D02*
X234887500Y-73665000D01*
X239500000Y-66000000D02*
X239500000Y-72550000D01*
X220000000Y-77500000D02*
X220000000Y-77500000D01*
X222500000Y-77500000D02*
X220000000Y-77500000D01*
X231712500Y-73665000D02*
X226335000Y-73665000D01*
X226335000Y-73665000D02*
X222500000Y-77500000D01*
X240000000Y-73900000D02*
X238965000Y-74935000D01*
X240000000Y-65934300D02*
X240000000Y-73900000D01*
X206253610Y-79246390D02*
X209700000Y-75800000D01*
X206253610Y-80000000D02*
X206253610Y-79246390D01*
X209700000Y-75800000D02*
X214100000Y-75800000D01*
X238965000Y-74935000D02*
X234887500Y-74935000D01*
X214100000Y-75800000D02*
X226200000Y-63700000D01*
X226200000Y-63700000D02*
X237765700Y-63700000D01*
X237765700Y-63700000D02*
X240000000Y-65934300D01*
X231712500Y-74935000D02*
X227815000Y-74935000D01*
X227815000Y-74935000D02*
X223500000Y-79250000D01*
X223500000Y-79250000D02*
X219500000Y-79250000D01*
X219500000Y-79250000D02*
X218750000Y-80000000D01*
X218750000Y-80000000D02*
X218750000Y-80000000D01*
X239195000Y-76205000D02*
X234887500Y-76205000D01*
X240400000Y-65750000D02*
X240400000Y-75000000D01*
X237900000Y-63250000D02*
X240400000Y-65750000D01*
X205700000Y-80582924D02*
X205700000Y-79150000D01*
X205700000Y-79150000D02*
X209550000Y-75300000D01*
X203766462Y-82516462D02*
X205700000Y-80582924D01*
X213965700Y-75300000D02*
X226015700Y-63250000D01*
X240400000Y-75000000D02*
X239195000Y-76205000D01*
X209550000Y-75300000D02*
X213965700Y-75300000D01*
X226015700Y-63250000D02*
X237900000Y-63250000D01*
X231712500Y-76205000D02*
X229545000Y-76205000D01*
X229545000Y-76205000D02*
X227000000Y-78750000D01*
X227000000Y-78750000D02*
X225500000Y-78750000D01*
X225500000Y-78750000D02*
X224250000Y-80000000D01*
X224250000Y-80000000D02*
X221800000Y-80000000D01*
X221800000Y-80000000D02*
X221750000Y-80000000D01*
X240850000Y-75600000D02*
X240850000Y-76060638D01*
X240850000Y-65600000D02*
X240850000Y-75600000D01*
X238050000Y-62800000D02*
X240850000Y-65600000D01*
X225900000Y-62800000D02*
X238050000Y-62800000D01*
X213950000Y-74750000D02*
X225900000Y-62800000D01*
X209500000Y-74750000D02*
X213950000Y-74750000D01*
X201500000Y-85000000D02*
X203000000Y-83500000D01*
X203000000Y-82500000D02*
X205000000Y-80500000D01*
X205000000Y-80500000D02*
X205000000Y-79250000D01*
X203000000Y-83500000D02*
X203000000Y-82500000D01*
X201250000Y-85000000D02*
X201500000Y-85000000D01*
X205000000Y-79250000D02*
X209500000Y-74750000D01*
X240850000Y-76250000D02*
X240850000Y-76850000D01*
X240850000Y-75600000D02*
X240850000Y-76250000D01*
X240225000Y-77475000D02*
X234887500Y-77475000D01*
X240850000Y-76850000D02*
X240225000Y-77475000D01*
X230635400Y-77475000D02*
X228110400Y-80000000D01*
X231712500Y-77475000D02*
X230635400Y-77475000D01*
X228110400Y-80000000D02*
X226250000Y-80000000D01*
X226250000Y-80000000D02*
X226250000Y-80000000D01*
X238250000Y-62300000D02*
X241250000Y-65300000D01*
X204450000Y-79300000D02*
X204450000Y-79200000D01*
X203750000Y-80000000D02*
X204450000Y-79300000D01*
X204450000Y-79200000D02*
X209350000Y-74300000D01*
X209350000Y-74300000D02*
X213750000Y-74300000D01*
X213750000Y-74300000D02*
X225750000Y-62300000D01*
X225750000Y-62300000D02*
X238250000Y-62300000D01*
X241250000Y-77350000D02*
X241250000Y-77800000D01*
X241250000Y-65300000D02*
X241250000Y-77350000D01*
X240305000Y-78745000D02*
X234887500Y-78745000D01*
X241250000Y-77800000D02*
X240305000Y-78745000D01*
X230635400Y-78745000D02*
X226880400Y-82500000D01*
X231712500Y-78745000D02*
X230635400Y-78745000D01*
X226880400Y-82500000D02*
X220000000Y-82500000D01*
X220000000Y-82500000D02*
X220000000Y-82500000D01*
X238400000Y-61800000D02*
X241650000Y-65050000D01*
X241650000Y-65050000D02*
X241650000Y-79050000D01*
X225500000Y-61800000D02*
X238400000Y-61800000D01*
X201250000Y-82500000D02*
X202382563Y-82500000D01*
X202382563Y-82500000D02*
X202850000Y-82032563D01*
X202850000Y-82032563D02*
X202850000Y-79850000D01*
X202850000Y-79850000D02*
X208900000Y-73800000D01*
X240685000Y-80015000D02*
X234887500Y-80015000D01*
X208900000Y-73800000D02*
X213500000Y-73800000D01*
X241650000Y-79050000D02*
X240685000Y-80015000D01*
X213500000Y-73800000D02*
X225500000Y-61800000D01*
X230485000Y-80015000D02*
X231712500Y-80015000D01*
X226500000Y-84000000D02*
X230485000Y-80015000D01*
X213382563Y-84000000D02*
X226500000Y-84000000D01*
X211250000Y-85000000D02*
X212382563Y-85000000D01*
X212382563Y-85000000D02*
X213382563Y-84000000D01*
X242050000Y-64700000D02*
X242050000Y-71800000D01*
X201850000Y-80000000D02*
X208500000Y-73350000D01*
X201250000Y-80000000D02*
X201850000Y-80000000D01*
X208500000Y-73350000D02*
X213300000Y-73350000D01*
X213300000Y-73350000D02*
X225400000Y-61250000D01*
X225400000Y-61250000D02*
X238600000Y-61250000D01*
X238600000Y-61250000D02*
X242050000Y-64700000D01*
X242050000Y-79300000D02*
X242050000Y-80500000D01*
X242050000Y-71800000D02*
X242050000Y-79300000D01*
X241265000Y-81285000D02*
X234887500Y-81285000D01*
X242050000Y-80500000D02*
X241265000Y-81285000D01*
X230515000Y-81285000D02*
X231712500Y-81285000D01*
X214882563Y-85000000D02*
X215382563Y-84500000D01*
X213750000Y-85000000D02*
X214882563Y-85000000D01*
X215382563Y-84500000D02*
X227200000Y-84500000D01*
X230400000Y-81300000D02*
X230500000Y-81300000D01*
X230500000Y-81300000D02*
X230515000Y-81285000D01*
X227200000Y-84500000D02*
X230400000Y-81300000D01*
X202445050Y-77500000D02*
X207045050Y-72900000D01*
X201250000Y-77500000D02*
X202445050Y-77500000D01*
X242500000Y-64350000D02*
X242500000Y-68100000D01*
X207045050Y-72900000D02*
X212950000Y-72900000D01*
X225150000Y-60700000D02*
X238850000Y-60700000D01*
X212950000Y-72900000D02*
X225150000Y-60700000D01*
X238850000Y-60700000D02*
X242500000Y-64350000D01*
X242500000Y-80950000D02*
X242500000Y-81550000D01*
X242500000Y-68100000D02*
X242500000Y-80950000D01*
X241495000Y-82555000D02*
X234887500Y-82555000D01*
X242500000Y-81550000D02*
X241495000Y-82555000D01*
X230205000Y-82555000D02*
X231712500Y-82555000D01*
X230200000Y-82550000D02*
X230205000Y-82555000D01*
X216250000Y-85000000D02*
X227750000Y-85000000D01*
X227750000Y-85000000D02*
X230200000Y-82550000D01*
X202800000Y-75000000D02*
X205300000Y-72500000D01*
X201250000Y-75000000D02*
X202800000Y-75000000D01*
X224800000Y-60300000D02*
X239150000Y-60300000D01*
X205300000Y-72500000D02*
X212600000Y-72500000D01*
X212600000Y-72500000D02*
X224800000Y-60300000D01*
X239150000Y-60300000D02*
X242900011Y-64050011D01*
X242900011Y-82100011D02*
X242900011Y-82749989D01*
X242900011Y-64050011D02*
X242900011Y-82100011D01*
X241825000Y-83825000D02*
X234887500Y-83825000D01*
X242900011Y-82749989D02*
X241825000Y-83825000D01*
X230225000Y-83825000D02*
X231712500Y-83825000D01*
X229875000Y-83825000D02*
X230225000Y-83825000D01*
X228200000Y-85500000D02*
X229875000Y-83825000D01*
X209000000Y-85500000D02*
X228200000Y-85500000D01*
X208750000Y-85000000D02*
X208750000Y-85250000D01*
X208750000Y-85250000D02*
X209000000Y-85500000D01*
X200250000Y-68125000D02*
X200250000Y-62000000D01*
X204250000Y-58000000D02*
X221750000Y-58000000D01*
X200250000Y-62000000D02*
X204250000Y-58000000D01*
X237650000Y-58000000D02*
X221750000Y-58000000D01*
X244000000Y-64350000D02*
X237650000Y-58000000D01*
X244000000Y-83750000D02*
X244000000Y-64350000D01*
X234887500Y-85095000D02*
X242655000Y-85095000D01*
X242655000Y-85095000D02*
X244000000Y-83750000D01*
X206250000Y-85000000D02*
X207250000Y-86000000D01*
X207250000Y-86000000D02*
X208750000Y-86000000D01*
X208750000Y-86000000D02*
X220250000Y-86000000D01*
X227350000Y-86000000D02*
X227650000Y-86000000D01*
X220250000Y-86000000D02*
X227350000Y-86000000D01*
X230155000Y-85095000D02*
X231712500Y-85095000D01*
X229605000Y-85095000D02*
X230155000Y-85095000D01*
X227350000Y-86000000D02*
X228700000Y-86000000D01*
X228700000Y-86000000D02*
X229605000Y-85095000D01*
X206250000Y-87500000D02*
X206750000Y-87000000D01*
X206750000Y-87000000D02*
X207250000Y-86500000D01*
X207250000Y-86500000D02*
X220250000Y-86500000D01*
X226550000Y-86500000D02*
X228150000Y-86500000D01*
X220250000Y-86500000D02*
X226550000Y-86500000D01*
X229650000Y-86500000D02*
X226550000Y-86500000D01*
X231712500Y-86365000D02*
X229785000Y-86365000D01*
X229785000Y-86365000D02*
X229650000Y-86500000D01*
X228835000Y-87635000D02*
X231712500Y-87635000D01*
X228200000Y-87000000D02*
X228835000Y-87635000D01*
X209250000Y-87000000D02*
X228200000Y-87000000D01*
X208750000Y-87500000D02*
X209250000Y-87000000D01*
X230405000Y-88905000D02*
X231712500Y-88905000D01*
X229005000Y-88905000D02*
X230405000Y-88905000D01*
X216250000Y-87500000D02*
X227600000Y-87500000D01*
X227600000Y-87500000D02*
X229005000Y-88905000D01*
X229275000Y-90175000D02*
X231712500Y-90175000D01*
X215382563Y-88000000D02*
X227100000Y-88000000D01*
X227100000Y-88000000D02*
X229275000Y-90175000D01*
X214882563Y-87500000D02*
X215382563Y-88000000D01*
X213750000Y-87500000D02*
X214882563Y-87500000D01*
X230505000Y-91445000D02*
X231712500Y-91445000D01*
X212382563Y-87500000D02*
X213382563Y-88500000D01*
X211250000Y-87500000D02*
X212382563Y-87500000D01*
X213382563Y-88500000D02*
X226750000Y-88500000D01*
X226750000Y-88500000D02*
X229700000Y-91450000D01*
X229700000Y-91450000D02*
X230500000Y-91450000D01*
X230500000Y-91450000D02*
X230505000Y-91445000D01*
X225650010Y-88900010D02*
X229465000Y-92715000D01*
X230315000Y-92715000D02*
X231712500Y-92715000D01*
X203782573Y-88900010D02*
X225650010Y-88900010D01*
X201250000Y-87500000D02*
X202382563Y-87500000D01*
X229465000Y-92715000D02*
X230315000Y-92715000D01*
X202382563Y-87500000D02*
X203782573Y-88900010D01*
X203525000Y-100325000D02*
X203300000Y-100100000D01*
X203525000Y-105650000D02*
X203525000Y-100325000D01*
X202350000Y-100100000D02*
X202250000Y-100000000D01*
X203300000Y-100100000D02*
X202350000Y-100100000D01*
X240600033Y-94625000D02*
X239960033Y-93985000D01*
X205550000Y-108100000D02*
X223050000Y-108100000D01*
X240600033Y-109262767D02*
X240600033Y-94625000D01*
X239960033Y-93985000D02*
X234887500Y-93985000D01*
X203100000Y-105650000D02*
X205550000Y-108100000D01*
X223050000Y-108100000D02*
X227250033Y-112300033D01*
X227250033Y-112300033D02*
X237562767Y-112300033D01*
X237562767Y-112300033D02*
X240600033Y-109262767D01*
X229985000Y-93985000D02*
X225400000Y-89400000D01*
X202382563Y-90000000D02*
X201250000Y-90000000D01*
X202982563Y-89400000D02*
X202382563Y-90000000D01*
X225400000Y-89400000D02*
X202982563Y-89400000D01*
X231712500Y-93985000D02*
X229985000Y-93985000D01*
X239905000Y-95255000D02*
X234887500Y-95255000D01*
X240200022Y-95550022D02*
X239905000Y-95255000D01*
X240200022Y-109097078D02*
X240200022Y-95550022D01*
X227592172Y-111900022D02*
X237397078Y-111900022D01*
X212350000Y-104850000D02*
X220542150Y-104850000D01*
X209300000Y-101500000D02*
X209300000Y-101800000D01*
X220542150Y-104850000D02*
X227592172Y-111900022D01*
X209300000Y-101800000D02*
X212350000Y-104850000D01*
X237397078Y-111900022D02*
X240200022Y-109097078D01*
X202250000Y-97000000D02*
X203800000Y-97000000D01*
X203800000Y-97000000D02*
X208550000Y-97000000D01*
X210575000Y-99025000D02*
X210575000Y-104100000D01*
X208550000Y-97000000D02*
X210575000Y-99025000D01*
X231712500Y-95255000D02*
X230255000Y-95255000D01*
X225000000Y-90000000D02*
X220000000Y-90000000D01*
X230255000Y-95255000D02*
X225000000Y-90000000D01*
X239325000Y-96525000D02*
X234887500Y-96525000D01*
X237231389Y-111500011D02*
X239800011Y-108931389D01*
X239800011Y-108931389D02*
X239800011Y-97000011D01*
X227784311Y-111500010D02*
X237231389Y-111500011D01*
X239800011Y-97000011D02*
X239325000Y-96525000D01*
X201250000Y-94800000D02*
X202050000Y-94000000D01*
X201250000Y-95000000D02*
X201250000Y-94800000D01*
X206900000Y-94000000D02*
X207750000Y-94850000D01*
X207750000Y-94850000D02*
X211134302Y-94850000D01*
X202050000Y-94000000D02*
X206900000Y-94000000D01*
X211134302Y-94850000D02*
X227784311Y-111500010D01*
X230275000Y-96525000D02*
X226250000Y-92500000D01*
X231712500Y-96525000D02*
X230275000Y-96525000D01*
X238845000Y-97795000D02*
X234887500Y-97795000D01*
X239400000Y-98350000D02*
X238845000Y-97795000D01*
X239400000Y-108765700D02*
X239400000Y-98350000D01*
X211200000Y-94350000D02*
X227950000Y-111100000D01*
X208050000Y-94350000D02*
X211200000Y-94350000D01*
X202450000Y-92500000D02*
X203003601Y-93053601D01*
X227950000Y-111100000D02*
X237065700Y-111100000D01*
X201250000Y-92500000D02*
X202450000Y-92500000D01*
X207200000Y-93500000D02*
X208050000Y-94350000D01*
X237065700Y-111100000D02*
X239400000Y-108765700D01*
X203003601Y-93053601D02*
X205103601Y-93053601D01*
X205103601Y-93053601D02*
X205550000Y-93500000D01*
X205550000Y-93500000D02*
X207200000Y-93500000D01*
X231712500Y-97795000D02*
X229895000Y-97795000D01*
X224600000Y-92500000D02*
X222500000Y-92500000D01*
X229895000Y-97795000D02*
X224600000Y-92500000D01*
X238850060Y-108344134D02*
X238850060Y-99800060D01*
X238115000Y-99065000D02*
X234887500Y-99065000D01*
X238850060Y-99800060D02*
X238115000Y-99065000D01*
X236894133Y-110300060D02*
X238850060Y-108344134D01*
X227834362Y-110300060D02*
X236894133Y-110300060D01*
X205250000Y-92500000D02*
X205850000Y-93100000D01*
X208534311Y-93900010D02*
X211434312Y-93900010D01*
X203750000Y-92500000D02*
X205250000Y-92500000D01*
X205850000Y-93100000D02*
X207734301Y-93100000D01*
X207734301Y-93100000D02*
X208534311Y-93900010D01*
X211434312Y-93900010D02*
X227834362Y-110300060D01*
X219800000Y-92500000D02*
X218750000Y-92500000D01*
X224550000Y-93950000D02*
X221250000Y-93950000D01*
X221250000Y-93950000D02*
X219800000Y-92500000D01*
X231712500Y-99065000D02*
X229665000Y-99065000D01*
X229665000Y-99065000D02*
X224550000Y-93950000D01*
X236650700Y-100335000D02*
X234887500Y-100335000D01*
X236728444Y-109900050D02*
X238450050Y-108178445D01*
X207700000Y-92500000D02*
X208700000Y-93500000D01*
X206250000Y-92500000D02*
X207700000Y-92500000D01*
X208700000Y-93500000D02*
X211600000Y-93500000D01*
X228184351Y-109900050D02*
X236728444Y-109900050D01*
X211600000Y-93500000D02*
X213900000Y-95800000D01*
X214084302Y-95800000D02*
X228184351Y-109900050D01*
X213900000Y-95800000D02*
X214084302Y-95800000D01*
X238450050Y-102049950D02*
X238450050Y-101650050D01*
X238450050Y-102049950D02*
X238450050Y-101000050D01*
X238450050Y-108178445D02*
X238450050Y-102049950D01*
X237785000Y-100335000D02*
X234887500Y-100335000D01*
X238450050Y-101000050D02*
X237785000Y-100335000D01*
X231712500Y-100335000D02*
X228635000Y-100335000D01*
X223300000Y-95000000D02*
X220000000Y-95000000D01*
X228635000Y-100335000D02*
X223300000Y-95000000D01*
X238050040Y-102300040D02*
X237355000Y-101605000D01*
X238050040Y-108012756D02*
X238050040Y-102300040D01*
X236562755Y-109500040D02*
X238050040Y-108012756D01*
X236745000Y-101605000D02*
X234887500Y-101605000D01*
X228350040Y-109500040D02*
X236562755Y-109500040D01*
X210350000Y-92500000D02*
X210950000Y-93100000D01*
X210950000Y-93100000D02*
X211768604Y-93100000D01*
X211768604Y-93100000D02*
X213918612Y-95250008D01*
X213918612Y-95250008D02*
X214100008Y-95250008D01*
X237355000Y-101605000D02*
X236745000Y-101605000D01*
X208750000Y-92500000D02*
X210350000Y-92500000D01*
X214100008Y-95250008D02*
X228350040Y-109500040D01*
X230105000Y-101605000D02*
X231712500Y-101605000D01*
X217445050Y-90000000D02*
X217750000Y-90304950D01*
X225800000Y-101600000D02*
X230100000Y-101600000D01*
X216250000Y-90000000D02*
X217445050Y-90000000D01*
X217750000Y-93550000D02*
X225800000Y-101600000D01*
X217750000Y-90304950D02*
X217750000Y-93550000D01*
X230100000Y-101600000D02*
X230105000Y-101605000D01*
X237025000Y-102875000D02*
X234887500Y-102875000D01*
X237125000Y-102875000D02*
X237025000Y-102875000D01*
X237650030Y-103400030D02*
X237125000Y-102875000D01*
X237650030Y-107847067D02*
X237650030Y-103400030D01*
X236397066Y-109100030D02*
X237650030Y-107847067D01*
X211734302Y-92500000D02*
X214084302Y-94850000D01*
X228521537Y-109100030D02*
X236397066Y-109100030D01*
X214084302Y-94850000D02*
X214271510Y-94850000D01*
X211250000Y-92500000D02*
X211734302Y-92500000D01*
X214271510Y-94850000D02*
X214271510Y-94850003D01*
X214271510Y-94850003D02*
X228521537Y-109100030D01*
X226400000Y-102900000D02*
X230400000Y-102900000D01*
X217250000Y-91500000D02*
X217250000Y-93750000D01*
X216500000Y-90750000D02*
X217250000Y-91500000D01*
X217250000Y-93750000D02*
X226400000Y-102900000D01*
X214500000Y-90750000D02*
X216500000Y-90750000D01*
X213750000Y-90000000D02*
X214500000Y-90750000D01*
X230425000Y-102875000D02*
X231712500Y-102875000D01*
X230400000Y-102900000D02*
X230425000Y-102875000D01*
X236645000Y-104145000D02*
X234887500Y-104145000D01*
X237250020Y-107681378D02*
X237250020Y-104750020D01*
X236231378Y-108700020D02*
X237250020Y-107681378D01*
X228687226Y-108700020D02*
X236231378Y-108700020D01*
X204350000Y-90000000D02*
X206100000Y-91750000D01*
X203750000Y-90000000D02*
X204350000Y-90000000D01*
X237250020Y-104750020D02*
X236645000Y-104145000D01*
X211550000Y-91750000D02*
X214150010Y-94350010D01*
X214150010Y-94350010D02*
X214337218Y-94350010D01*
X206100000Y-91750000D02*
X211550000Y-91750000D01*
X214337218Y-94350010D02*
X228687226Y-108700020D01*
X212382563Y-90000000D02*
X213882563Y-91500000D01*
X211250000Y-90000000D02*
X212382563Y-90000000D01*
X213882563Y-91500000D02*
X216500000Y-91500000D01*
X216500000Y-91500000D02*
X216750000Y-91750000D01*
X230055000Y-104145000D02*
X231712500Y-104145000D01*
X216750000Y-91750000D02*
X216750000Y-93900000D01*
X226995000Y-104145000D02*
X230055000Y-104145000D01*
X216750000Y-93900000D02*
X226995000Y-104145000D01*
X236335000Y-105415000D02*
X234887500Y-105415000D01*
X236325000Y-105425000D02*
X236335000Y-105415000D01*
X236065689Y-108300010D02*
X236850010Y-107515689D01*
X214502906Y-93950000D02*
X228852915Y-108300010D01*
X228852915Y-108300010D02*
X236065689Y-108300010D01*
X214380670Y-93950000D02*
X214502906Y-93950000D01*
X236850010Y-105950010D02*
X236325000Y-105425000D01*
X207382563Y-90000000D02*
X208682563Y-91300000D01*
X206250000Y-90000000D02*
X207382563Y-90000000D01*
X236850010Y-107515689D02*
X236850010Y-105950010D01*
X208682563Y-91300000D02*
X211900000Y-91300000D01*
X211900000Y-91300000D02*
X213196399Y-92596399D01*
X213196399Y-92596399D02*
X213196399Y-92765729D01*
X213196399Y-92765729D02*
X214380670Y-93950000D01*
X216196390Y-92823289D02*
X216196390Y-92500000D01*
X230065000Y-105415000D02*
X231712500Y-105415000D01*
X227665000Y-105415000D02*
X230065000Y-105415000D01*
X216196390Y-92500000D02*
X216196390Y-93946390D01*
X216196390Y-93946390D02*
X227665000Y-105415000D01*
X236135000Y-106685000D02*
X234887500Y-106685000D01*
X213750000Y-92631396D02*
X229018604Y-107900000D01*
X229018604Y-107900000D02*
X235900000Y-107900000D01*
X213750000Y-92500000D02*
X213750000Y-92631396D01*
X235900000Y-107900000D02*
X236450000Y-107350000D01*
X236450000Y-107000000D02*
X236135000Y-106685000D01*
X236450000Y-107350000D02*
X236450000Y-107000000D01*
X215796380Y-93727050D02*
X215796380Y-94112078D01*
X228369302Y-106685000D02*
X229965000Y-106685000D01*
X213400000Y-91900000D02*
X213969330Y-91900000D01*
X208750000Y-90000000D02*
X209882563Y-90000000D01*
X210482563Y-90600000D02*
X212100000Y-90600000D01*
X215796380Y-94112078D02*
X228369302Y-106685000D01*
X209882563Y-90000000D02*
X210482563Y-90600000D01*
X213969330Y-91900000D02*
X215796380Y-93727050D01*
X229965000Y-106685000D02*
X231712500Y-106685000D01*
X212100000Y-90600000D02*
X213400000Y-91900000D01*
X188750000Y-82500000D02*
X187850000Y-81600000D01*
X187850000Y-81600000D02*
X187400000Y-81150000D01*
X187400000Y-81150000D02*
X187400000Y-80050000D01*
X187400000Y-80050000D02*
X184350000Y-77000000D01*
X184350000Y-77000000D02*
X181900000Y-77000000D01*
X172950000Y-68050000D02*
X172215000Y-67315000D01*
X172215000Y-67315000D02*
X168587500Y-67315000D01*
X172950000Y-68050000D02*
X172200000Y-67300000D01*
X181900000Y-77000000D02*
X172950000Y-68050000D01*
X163800000Y-66600000D02*
X163800000Y-67000000D01*
X188550000Y-80000000D02*
X184750000Y-76200000D01*
X188750000Y-80000000D02*
X188550000Y-80000000D01*
X182400000Y-76200000D02*
X172500000Y-66300000D01*
X184750000Y-76200000D02*
X182400000Y-76200000D01*
X164100000Y-66300000D02*
X163800000Y-66600000D01*
X172500000Y-66300000D02*
X164100000Y-66300000D01*
X164115000Y-67315000D02*
X163950000Y-67150000D01*
X165412500Y-67315000D02*
X164115000Y-67315000D01*
X163800000Y-67000000D02*
X163950000Y-67150000D01*
X163950000Y-67150000D02*
X164050000Y-67250000D01*
X170485000Y-68585000D02*
X168587500Y-68585000D01*
X172385000Y-68585000D02*
X170485000Y-68585000D01*
X181400000Y-77600000D02*
X172385000Y-68585000D01*
X183700000Y-77600000D02*
X181400000Y-77600000D01*
X186250000Y-80000000D02*
X186100000Y-80000000D01*
X186100000Y-80000000D02*
X183700000Y-77600000D01*
X163685000Y-68585000D02*
X164165000Y-68585000D01*
X163399990Y-68299990D02*
X163685000Y-68585000D01*
X163399990Y-66434311D02*
X163399990Y-68299990D01*
X164034301Y-65800000D02*
X163399990Y-66434311D01*
X173150000Y-65800000D02*
X164034301Y-65800000D01*
X190117437Y-82500000D02*
X190100000Y-82482563D01*
X186050000Y-75450000D02*
X182800000Y-75450000D01*
X164165000Y-68585000D02*
X165412500Y-68585000D01*
X191250000Y-82500000D02*
X190117437Y-82500000D01*
X190100000Y-79500000D02*
X186050000Y-75450000D01*
X190100000Y-82482563D02*
X190100000Y-79500000D01*
X182800000Y-75450000D02*
X173150000Y-65800000D01*
X185117437Y-82500000D02*
X184800000Y-82182563D01*
X186250000Y-82500000D02*
X185117437Y-82500000D01*
X184800000Y-82182563D02*
X184800000Y-79450000D01*
X184800000Y-79450000D02*
X183600000Y-78250000D01*
X183600000Y-78250000D02*
X181100000Y-78250000D01*
X181100000Y-78250000D02*
X172700000Y-69850000D01*
X172700000Y-69850000D02*
X170100000Y-69850000D01*
X170095000Y-69855000D02*
X168587500Y-69855000D01*
X170100000Y-69850000D02*
X170095000Y-69855000D01*
X162999980Y-69349980D02*
X163505000Y-69855000D01*
X163505000Y-69855000D02*
X164335400Y-69855000D01*
X162999980Y-66268622D02*
X162999980Y-69349980D01*
X191250000Y-79750000D02*
X186150000Y-74650000D01*
X186150000Y-74650000D02*
X183250000Y-74650000D01*
X164335400Y-69855000D02*
X165412500Y-69855000D01*
X191250000Y-80000000D02*
X191250000Y-79750000D01*
X173900000Y-65300000D02*
X163968603Y-65300000D01*
X183250000Y-74650000D02*
X173900000Y-65300000D01*
X163968603Y-65300000D02*
X162999980Y-66268622D01*
X170425000Y-71125000D02*
X168587500Y-71125000D01*
X172875000Y-71125000D02*
X170425000Y-71125000D01*
X184350000Y-80767437D02*
X184350000Y-79850000D01*
X180500000Y-78750000D02*
X172875000Y-71125000D01*
X183750000Y-81367437D02*
X184350000Y-80767437D01*
X183750000Y-82500000D02*
X183750000Y-81367437D01*
X184350000Y-79850000D02*
X183250000Y-78750000D01*
X183250000Y-78750000D02*
X180500000Y-78750000D01*
X162750000Y-70550000D02*
X163300000Y-71100000D01*
X162599970Y-70399970D02*
X163300000Y-71100000D01*
X163802905Y-64900000D02*
X162599970Y-66102933D01*
X174750000Y-64900000D02*
X163802905Y-64900000D01*
X162599970Y-66102933D02*
X162599970Y-70399970D01*
X193750000Y-82500000D02*
X193700000Y-82500000D01*
X193700000Y-82500000D02*
X192600000Y-81400000D01*
X192600000Y-80200000D02*
X186450000Y-74050000D01*
X192600000Y-81400000D02*
X192600000Y-80200000D01*
X186450000Y-74050000D02*
X183900000Y-74050000D01*
X183900000Y-74050000D02*
X174750000Y-64900000D01*
X163300000Y-71100000D02*
X163325000Y-71125000D01*
X164235399Y-71125000D02*
X165412500Y-71125000D01*
X163325000Y-71125000D02*
X164235399Y-71125000D01*
X180150000Y-79200000D02*
X182917076Y-79200000D01*
X182917076Y-79200000D02*
X183504939Y-79787863D01*
X183504939Y-79787863D02*
X183733538Y-80016462D01*
X168587500Y-72395000D02*
X173345000Y-72395000D01*
X173345000Y-72395000D02*
X180150000Y-79200000D01*
X163145000Y-72395000D02*
X164055000Y-72395000D01*
X162199960Y-71449960D02*
X163145000Y-72395000D01*
X164055000Y-72395000D02*
X165412500Y-72395000D01*
X162199960Y-65937244D02*
X162199960Y-71449960D01*
X193500000Y-80000000D02*
X187000000Y-73500000D01*
X187000000Y-73500000D02*
X184350000Y-73500000D01*
X193750000Y-80000000D02*
X193500000Y-80000000D01*
X184350000Y-73500000D02*
X175350000Y-64500000D01*
X175350000Y-64500000D02*
X163637204Y-64500000D01*
X163637204Y-64500000D02*
X162199960Y-65937244D01*
X173782437Y-73665000D02*
X170065000Y-73665000D01*
X181250000Y-80000000D02*
X180117437Y-80000000D01*
X170065000Y-73665000D02*
X168587500Y-73665000D01*
X180117437Y-80000000D02*
X173782437Y-73665000D01*
X162715000Y-73665000D02*
X165412500Y-73665000D01*
X161799950Y-72749950D02*
X162715000Y-73665000D01*
X161799950Y-65771555D02*
X161799950Y-72749950D01*
X164249992Y-64099992D02*
X163471514Y-64099992D01*
X164250000Y-64100000D02*
X164249992Y-64099992D01*
X175850000Y-64100000D02*
X164250000Y-64100000D01*
X163471514Y-64099992D02*
X161799950Y-65771555D01*
X187700000Y-73000000D02*
X184750000Y-73000000D01*
X195117437Y-85000000D02*
X194550000Y-84432563D01*
X196250000Y-85000000D02*
X195117437Y-85000000D01*
X194550000Y-84432563D02*
X194550000Y-79850000D01*
X194550000Y-79850000D02*
X187700000Y-73000000D01*
X184750000Y-73000000D02*
X175850000Y-64100000D01*
X170085000Y-74935000D02*
X168587500Y-74935000D01*
X177750000Y-80000000D02*
X177750000Y-78850000D01*
X173835000Y-74935000D02*
X168587500Y-74935000D01*
X174200000Y-75300000D02*
X173835000Y-74935000D01*
X174200000Y-75300000D02*
X173850000Y-74950000D01*
X177750000Y-78850000D02*
X174200000Y-75300000D01*
X163650000Y-74950000D02*
X163750000Y-74950000D01*
X162900000Y-74950000D02*
X163650000Y-74950000D01*
X162650000Y-74950000D02*
X162900000Y-74950000D01*
X161399940Y-65600060D02*
X161399940Y-73699940D01*
X161399940Y-73699940D02*
X162650000Y-74950000D01*
X163350000Y-63650000D02*
X161399940Y-65600060D01*
X176500000Y-63650000D02*
X163350000Y-63650000D01*
X196250000Y-81367437D02*
X195300000Y-80417437D01*
X195300000Y-80417437D02*
X195300000Y-79500000D01*
X188200000Y-72400000D02*
X185250000Y-72400000D01*
X185250000Y-72400000D02*
X176500000Y-63650000D01*
X196250000Y-82500000D02*
X196250000Y-81367437D01*
X195300000Y-79500000D02*
X188200000Y-72400000D01*
X165397500Y-74950000D02*
X165412500Y-74935000D01*
X163650000Y-74950000D02*
X165397500Y-74950000D01*
X173750000Y-80000000D02*
X173750000Y-77650000D01*
X173750000Y-80000000D02*
X173750000Y-77450000D01*
X173750000Y-77450000D02*
X172500000Y-76200000D01*
X172500000Y-76200000D02*
X170100000Y-76200000D01*
X170095000Y-76205000D02*
X168587500Y-76205000D01*
X170100000Y-76200000D02*
X170095000Y-76205000D01*
X196250000Y-80000000D02*
X196250000Y-79700000D01*
X196250000Y-79700000D02*
X188400000Y-71850000D01*
X188400000Y-71850000D02*
X185600000Y-71850000D01*
X185600000Y-71850000D02*
X177000000Y-63250000D01*
X164000000Y-63250000D02*
X163850000Y-63250000D01*
X177000000Y-63250000D02*
X164000000Y-63250000D01*
X163999992Y-63249992D02*
X163184310Y-63249992D01*
X163655000Y-76205000D02*
X165412500Y-76205000D01*
X163184310Y-63249992D02*
X160999930Y-65434371D01*
X164000000Y-63250000D02*
X163999992Y-63249992D01*
X160999930Y-65434371D02*
X160999930Y-74949930D01*
X160999930Y-74949930D02*
X162255000Y-76205000D01*
X162255000Y-76205000D02*
X163655000Y-76205000D01*
X188750000Y-85000000D02*
X187617437Y-85000000D01*
X187617437Y-85000000D02*
X186617437Y-84000000D01*
X180100000Y-84000000D02*
X180000000Y-84000000D01*
X186617437Y-84000000D02*
X180100000Y-84000000D01*
X170025000Y-77475000D02*
X168587500Y-77475000D01*
X172900000Y-78350000D02*
X172025000Y-77475000D01*
X172025000Y-77475000D02*
X170025000Y-77475000D01*
X172900000Y-80650000D02*
X172900000Y-78350000D01*
X180100000Y-84000000D02*
X176250000Y-84000000D01*
X176250000Y-84000000D02*
X172900000Y-80650000D01*
X163875000Y-77475000D02*
X165412500Y-77475000D01*
X161675000Y-77475000D02*
X163875000Y-77475000D01*
X160599920Y-65268682D02*
X160599920Y-76399920D01*
X197617437Y-85000000D02*
X197400000Y-84782563D01*
X198750000Y-85000000D02*
X197617437Y-85000000D01*
X197400000Y-79850000D02*
X188800000Y-71250000D01*
X197400000Y-84782563D02*
X197400000Y-79850000D01*
X177500000Y-62750000D02*
X163118603Y-62750000D01*
X188800000Y-71250000D02*
X186000000Y-71250000D01*
X160599920Y-76399920D02*
X161675000Y-77475000D01*
X163118603Y-62750000D02*
X160599920Y-65268682D01*
X186000000Y-71250000D02*
X177500000Y-62750000D01*
X170395000Y-78745000D02*
X168587500Y-78745000D01*
X170400000Y-78750000D02*
X170395000Y-78745000D01*
X171500000Y-78750000D02*
X170400000Y-78750000D01*
X185117437Y-85000000D02*
X184617437Y-84500000D01*
X186250000Y-85000000D02*
X185117437Y-85000000D01*
X184617437Y-84500000D02*
X175800000Y-84500000D01*
X175800000Y-84500000D02*
X172350000Y-81050000D01*
X172350000Y-79600000D02*
X171500000Y-78750000D01*
X172350000Y-81050000D02*
X172350000Y-79600000D01*
X198750000Y-82500000D02*
X198700000Y-82500000D01*
X198700000Y-82500000D02*
X198050000Y-81850000D01*
X189050000Y-70800000D02*
X186450000Y-70800000D01*
X198050000Y-81850000D02*
X198050000Y-79800000D01*
X198050000Y-79800000D02*
X189050000Y-70800000D01*
X186450000Y-70800000D02*
X177950000Y-62300000D01*
X164000000Y-62300000D02*
X163800000Y-62300000D01*
X177950000Y-62300000D02*
X164000000Y-62300000D01*
X163855000Y-78745000D02*
X165412500Y-78745000D01*
X163002903Y-62300000D02*
X161700000Y-63602905D01*
X164000000Y-62300000D02*
X163002903Y-62300000D01*
X160199910Y-65102993D02*
X160199910Y-77549910D01*
X161700000Y-63602905D02*
X160199910Y-65102993D01*
X160199910Y-77549910D02*
X161395000Y-78745000D01*
X161395000Y-78745000D02*
X163855000Y-78745000D01*
X170015000Y-80015000D02*
X168587500Y-80015000D01*
X171165000Y-80015000D02*
X170015000Y-80015000D01*
X171800000Y-80650000D02*
X171165000Y-80015000D01*
X171800000Y-81450000D02*
X171800000Y-80650000D01*
X183750000Y-85000000D02*
X175350000Y-85000000D01*
X175350000Y-85000000D02*
X171800000Y-81450000D01*
X186900000Y-70300000D02*
X178500000Y-61900000D01*
X189350000Y-70300000D02*
X186900000Y-70300000D01*
X198750000Y-80000000D02*
X198750000Y-79700000D01*
X198750000Y-79700000D02*
X189350000Y-70300000D01*
X164949992Y-61899992D02*
X162837212Y-61899992D01*
X164950000Y-61900000D02*
X164949992Y-61899992D01*
X178500000Y-61900000D02*
X164950000Y-61900000D01*
X162837212Y-61899992D02*
X159799900Y-64937304D01*
X159799900Y-64937304D02*
X159799900Y-78749900D01*
X165412500Y-80015000D02*
X163885000Y-80015000D01*
X161065000Y-80015000D02*
X165412500Y-80015000D01*
X159799900Y-78749900D02*
X161065000Y-80015000D01*
X191250000Y-85000000D02*
X190750000Y-85500000D01*
X169885000Y-81285000D02*
X169664600Y-81285000D01*
X190750000Y-85500000D02*
X174950000Y-85500000D01*
X169664600Y-81285000D02*
X168587500Y-81285000D01*
X174950000Y-85500000D02*
X170750000Y-81300000D01*
X170750000Y-81300000D02*
X169900000Y-81300000D01*
X169900000Y-81300000D02*
X169885000Y-81285000D01*
X189854950Y-69800000D02*
X187250000Y-69800000D01*
X187250000Y-69800000D02*
X178950000Y-61500000D01*
X198750000Y-77500000D02*
X197554950Y-77500000D01*
X178950000Y-61500000D02*
X165450000Y-61500000D01*
X197554950Y-77500000D02*
X189854950Y-69800000D01*
X165115681Y-61499982D02*
X162671524Y-61499982D01*
X162671524Y-61499982D02*
X159399890Y-64771615D01*
X165450000Y-61500000D02*
X165115699Y-61500000D01*
X165115699Y-61500000D02*
X165115681Y-61499982D01*
X159399890Y-64771615D02*
X159399890Y-80149890D01*
X160535000Y-81285000D02*
X160500000Y-81250000D01*
X165412500Y-81285000D02*
X160535000Y-81285000D01*
X159399890Y-80149890D02*
X160500000Y-81250000D01*
X160500000Y-81250000D02*
X160550000Y-81300000D01*
X170195000Y-82555000D02*
X168587500Y-82555000D01*
X170800000Y-82550000D02*
X170200000Y-82550000D01*
X170200000Y-82550000D02*
X170195000Y-82555000D01*
X193750000Y-85000000D02*
X192750000Y-86000000D01*
X174250000Y-86000000D02*
X170800000Y-82550000D01*
X192750000Y-86000000D02*
X174250000Y-86000000D01*
X160055000Y-82555000D02*
X163755000Y-82555000D01*
X158999880Y-64605926D02*
X158999880Y-81499880D01*
X197554950Y-75000000D02*
X191854950Y-69300000D01*
X163755000Y-82555000D02*
X165412500Y-82555000D01*
X198750000Y-75000000D02*
X197554950Y-75000000D01*
X191854950Y-69300000D02*
X187500000Y-69300000D01*
X187500000Y-69300000D02*
X179250000Y-61050000D01*
X158999880Y-81499880D02*
X160055000Y-82555000D01*
X179250000Y-61050000D02*
X162555806Y-61050000D01*
X162555806Y-61050000D02*
X158999880Y-64605926D01*
X192750000Y-86500000D02*
X191250000Y-86500000D01*
X193750000Y-87500000D02*
X192750000Y-86500000D01*
X179900000Y-86500000D02*
X179750000Y-86500000D01*
X191250000Y-86500000D02*
X179900000Y-86500000D01*
X170275000Y-83825000D02*
X168587500Y-83825000D01*
X171075000Y-83825000D02*
X170275000Y-83825000D01*
X179900000Y-86500000D02*
X173750000Y-86500000D01*
X173750000Y-86500000D02*
X171075000Y-83825000D01*
X170345000Y-85095000D02*
X168587500Y-85095000D01*
X191250000Y-87500000D02*
X191250000Y-87250000D01*
X191250000Y-87250000D02*
X191000000Y-87000000D01*
X170350000Y-85100000D02*
X170345000Y-85095000D01*
X173150000Y-87000000D02*
X171250000Y-85100000D01*
X191000000Y-87000000D02*
X173150000Y-87000000D01*
X171250000Y-85100000D02*
X170350000Y-85100000D01*
X170285000Y-86365000D02*
X168587500Y-86365000D01*
X171365000Y-86365000D02*
X170285000Y-86365000D01*
X183750000Y-87500000D02*
X172500000Y-87500000D01*
X172500000Y-87500000D02*
X171365000Y-86365000D01*
X185117437Y-87500000D02*
X184617437Y-88000000D01*
X186250000Y-87500000D02*
X185117437Y-87500000D01*
X179900000Y-88000000D02*
X179750000Y-88000000D01*
X184617437Y-88000000D02*
X179900000Y-88000000D01*
X171435000Y-87635000D02*
X170335000Y-87635000D01*
X179900000Y-88000000D02*
X171800000Y-88000000D01*
X170335000Y-87635000D02*
X168587500Y-87635000D01*
X171800000Y-88000000D02*
X171435000Y-87635000D01*
X172015000Y-93985000D02*
X168587500Y-93985000D01*
X173500000Y-92500000D02*
X172015000Y-93985000D01*
X171745000Y-95255000D02*
X170045000Y-95255000D01*
X178250000Y-92500000D02*
X174500000Y-92500000D01*
X170045000Y-95255000D02*
X168587500Y-95255000D01*
X174500000Y-92500000D02*
X171745000Y-95255000D01*
X196475000Y-100325000D02*
X196700000Y-100100000D01*
X196475000Y-105650000D02*
X196475000Y-100325000D01*
X197650000Y-100100000D02*
X197750000Y-100000000D01*
X196700000Y-100100000D02*
X197650000Y-100100000D01*
X163505000Y-95255000D02*
X165412500Y-95255000D01*
X161345000Y-95255000D02*
X163505000Y-95255000D01*
X159850000Y-96750000D02*
X161345000Y-95255000D01*
X194150000Y-108300000D02*
X179150000Y-108300000D01*
X159850000Y-109900000D02*
X159850000Y-96750000D01*
X196800000Y-105650000D02*
X194150000Y-108300000D01*
X179150000Y-108300000D02*
X175400000Y-112050000D01*
X175400000Y-112050000D02*
X162000000Y-112050000D01*
X162000000Y-112050000D02*
X159850000Y-109900000D01*
X170525000Y-96525000D02*
X168587500Y-96525000D01*
X174846399Y-93053601D02*
X171375000Y-96525000D01*
X171375000Y-96525000D02*
X170525000Y-96525000D01*
X181250000Y-92500000D02*
X180696399Y-93053601D01*
X180696399Y-93053601D02*
X174846399Y-93053601D01*
X161725000Y-96525000D02*
X163775000Y-96525000D01*
X160400000Y-97850000D02*
X161725000Y-96525000D01*
X188200000Y-103900000D02*
X182400000Y-103900000D01*
X182400000Y-103900000D02*
X174750000Y-111550000D01*
X190600000Y-101500000D02*
X188200000Y-103900000D01*
X174750000Y-111550000D02*
X162300000Y-111550000D01*
X163775000Y-96525000D02*
X165412500Y-96525000D01*
X162300000Y-111550000D02*
X160400000Y-109650000D01*
X160400000Y-109650000D02*
X160400000Y-97850000D01*
X191900000Y-97000000D02*
X196300000Y-97000000D01*
X189400000Y-104150000D02*
X189400000Y-99500000D01*
X189400000Y-99500000D02*
X191900000Y-97000000D01*
X196300000Y-97000000D02*
X197750000Y-97000000D01*
X171005000Y-97795000D02*
X170055000Y-97795000D01*
X175300000Y-93500000D02*
X171005000Y-97795000D01*
X181250000Y-93500000D02*
X175300000Y-93500000D01*
X182200000Y-92550000D02*
X181250000Y-93500000D01*
X182200000Y-91750000D02*
X182200000Y-92550000D01*
X183200000Y-90750000D02*
X182200000Y-91750000D01*
X195050000Y-88700000D02*
X188050000Y-88700000D01*
X187250000Y-90050000D02*
X186550000Y-90750000D01*
X186550000Y-90750000D02*
X183200000Y-90750000D01*
X196250000Y-87500000D02*
X195050000Y-88700000D01*
X187250000Y-89500000D02*
X187250000Y-90050000D01*
X188050000Y-88700000D02*
X187250000Y-89500000D01*
X170055000Y-97795000D02*
X168587500Y-97795000D01*
X181150000Y-102950000D02*
X181076453Y-103023547D01*
X181015698Y-102950000D02*
X172865698Y-111100000D01*
X181150000Y-102950000D02*
X181015698Y-102950000D01*
X160850000Y-99200000D02*
X162250000Y-97800000D01*
X172865698Y-111100000D02*
X162650000Y-111100000D01*
X162650000Y-111100000D02*
X160850000Y-109300000D01*
X160850000Y-109300000D02*
X160850000Y-99200000D01*
X163905000Y-97795000D02*
X163900000Y-97800000D01*
X165412500Y-97795000D02*
X163905000Y-97795000D01*
X162250000Y-97800000D02*
X163900000Y-97800000D01*
X163900000Y-97800000D02*
X164100000Y-97800000D01*
X187349911Y-96750089D02*
X181150000Y-102950000D01*
X190628731Y-94599989D02*
X188478631Y-96750089D01*
X198750000Y-95000000D02*
X197700000Y-93950000D01*
X192882125Y-93950000D02*
X192232136Y-94599989D01*
X192232136Y-94599989D02*
X190628731Y-94599989D01*
X197700000Y-93950000D02*
X192882125Y-93950000D01*
X188478631Y-96750089D02*
X187349911Y-96750089D01*
X170235000Y-99065000D02*
X168587500Y-99065000D01*
X170685000Y-99065000D02*
X170235000Y-99065000D01*
X186900000Y-91250000D02*
X184065698Y-91250000D01*
X188150000Y-90000000D02*
X186900000Y-91250000D01*
X188750000Y-90000000D02*
X188150000Y-90000000D01*
X184065698Y-91250000D02*
X181315698Y-94000000D01*
X181315698Y-94000000D02*
X175750000Y-94000000D01*
X175750000Y-94000000D02*
X170685000Y-99065000D01*
X192966426Y-93300000D02*
X192066447Y-94199978D01*
X162900000Y-110700000D02*
X161350000Y-109150000D01*
X189823113Y-95044967D02*
X189255031Y-95044967D01*
X187049920Y-96350080D02*
X172700000Y-110700000D01*
X195453610Y-93300000D02*
X192966426Y-93300000D01*
X196250000Y-92503610D02*
X195453610Y-93300000D01*
X187949918Y-96350080D02*
X187049920Y-96350080D01*
X161350000Y-100050000D02*
X162335000Y-99065000D01*
X192066447Y-94199978D02*
X190668102Y-94199978D01*
X162335000Y-99065000D02*
X164335400Y-99065000D01*
X189255031Y-95044967D02*
X187949918Y-96350080D01*
X172700000Y-110700000D02*
X162900000Y-110700000D01*
X190668102Y-94199978D02*
X189823113Y-95044967D01*
X164335400Y-99065000D02*
X165412500Y-99065000D01*
X161350000Y-109150000D02*
X161350000Y-100050000D01*
X169985000Y-100335000D02*
X168587500Y-100335000D01*
X170465000Y-100335000D02*
X169985000Y-100335000D01*
X176353601Y-94446399D02*
X170465000Y-100335000D01*
X183746390Y-92500000D02*
X181796390Y-94450000D01*
X181792789Y-94446399D02*
X176353601Y-94446399D01*
X181796390Y-94450000D02*
X181792789Y-94446399D01*
X171000000Y-110250010D02*
X171099990Y-110250010D01*
X164600000Y-110250000D02*
X164550000Y-110250000D01*
X171099980Y-110250000D02*
X164550000Y-110250000D01*
X171099990Y-110250010D02*
X171099980Y-110250000D01*
X193426711Y-92503610D02*
X193750000Y-92503610D01*
X193197115Y-92503610D02*
X193426711Y-92503610D01*
X191900758Y-93799967D02*
X193197115Y-92503610D01*
X190547126Y-93799967D02*
X191900758Y-93799967D01*
X189702137Y-94644956D02*
X190547126Y-93799967D01*
X171099990Y-110250010D02*
X171100000Y-110250000D01*
X171100000Y-110250000D02*
X172500000Y-110250000D01*
X187784226Y-95950072D02*
X189089342Y-94644956D01*
X189089342Y-94644956D02*
X189702137Y-94644956D01*
X172500000Y-110250000D02*
X186799928Y-95950072D01*
X186799928Y-95950072D02*
X187784226Y-95950072D01*
X163935000Y-100335000D02*
X165412500Y-100335000D01*
X161900000Y-109000000D02*
X161900000Y-101400000D01*
X164550000Y-110250000D02*
X163150000Y-110250000D01*
X163150000Y-110250000D02*
X161900000Y-109000000D01*
X162965000Y-100335000D02*
X165412500Y-100335000D01*
X162450000Y-100850000D02*
X162965000Y-100335000D01*
X162450000Y-100850000D02*
X162950000Y-100350000D01*
X161900000Y-101400000D02*
X162450000Y-100850000D01*
X169850000Y-101600000D02*
X169845000Y-101605000D01*
X178800000Y-96200000D02*
X175400000Y-96200000D01*
X180000000Y-95000000D02*
X178800000Y-96200000D01*
X170000000Y-101600000D02*
X169750000Y-101600000D01*
X175400000Y-96200000D02*
X170000000Y-101600000D01*
X169845000Y-101605000D02*
X169750000Y-101600000D01*
X169750000Y-101600000D02*
X168587500Y-101605000D01*
X172200000Y-109850000D02*
X163450000Y-109850000D01*
X163450000Y-109850000D02*
X162350000Y-108750000D01*
X186499940Y-95550060D02*
X172200000Y-109850000D01*
X187599938Y-95550060D02*
X186499940Y-95550060D01*
X162350000Y-108750000D02*
X162350000Y-103300000D01*
X188905053Y-94244945D02*
X187599938Y-95550060D01*
X189536448Y-94244945D02*
X188905053Y-94244945D01*
X197617437Y-92500000D02*
X197067437Y-91950000D01*
X198750000Y-92500000D02*
X197617437Y-92500000D01*
X193185025Y-91950000D02*
X191735069Y-93399956D01*
X197067437Y-91950000D02*
X193185025Y-91950000D01*
X191735069Y-93399956D02*
X190381437Y-93399956D01*
X190381437Y-93399956D02*
X189536448Y-94244945D01*
X164045000Y-101605000D02*
X165412500Y-101605000D01*
X163725000Y-101925000D02*
X164050000Y-101600000D01*
X163725000Y-101925000D02*
X164045000Y-101605000D01*
X162350000Y-103300000D02*
X163725000Y-101925000D01*
X185399992Y-91650008D02*
X179900000Y-97150000D01*
X193750000Y-90000000D02*
X192617437Y-90000000D01*
X175950000Y-97150000D02*
X170225000Y-102875000D01*
X191867437Y-89250000D02*
X190384300Y-89250000D01*
X170225000Y-102875000D02*
X168587500Y-102875000D01*
X179900000Y-97150000D02*
X175950000Y-97150000D01*
X188065698Y-90650000D02*
X187065690Y-91650008D01*
X187065690Y-91650008D02*
X185399992Y-91650008D01*
X190384300Y-89250000D02*
X188984300Y-90650000D01*
X192617437Y-90000000D02*
X191867437Y-89250000D01*
X188984300Y-90650000D02*
X188065698Y-90650000D01*
X171500000Y-109350000D02*
X171400000Y-109350000D01*
X163600000Y-109350000D02*
X162750011Y-108500011D01*
X162750011Y-108500011D02*
X162750011Y-104249989D01*
X171400000Y-109350000D02*
X163600000Y-109350000D01*
X172100000Y-109350000D02*
X171400000Y-109350000D01*
X186299951Y-95150049D02*
X172100000Y-109350000D01*
X187415649Y-95150049D02*
X186299951Y-95150049D01*
X188720764Y-93844934D02*
X187415649Y-95150049D01*
X189370759Y-93844934D02*
X188720764Y-93844934D01*
X198750000Y-91132563D02*
X198332563Y-91550000D01*
X190215748Y-92999945D02*
X189370759Y-93844934D01*
X198750000Y-90000000D02*
X198750000Y-91132563D01*
X198332563Y-91550000D02*
X193019325Y-91550000D01*
X193019325Y-91550000D02*
X191569380Y-92999945D01*
X191569380Y-92999945D02*
X190215748Y-92999945D01*
X164125000Y-102875000D02*
X165412500Y-102875000D01*
X163750000Y-103250000D02*
X164125000Y-102875000D01*
X163750000Y-103250000D02*
X164100000Y-102900000D01*
X162750011Y-104249989D02*
X163750000Y-103250000D01*
X176599989Y-97800011D02*
X170255000Y-104145000D01*
X170255000Y-104145000D02*
X168587500Y-104145000D01*
X186250000Y-92496390D02*
X185303610Y-92496390D01*
X179999989Y-97800011D02*
X176599989Y-97800011D01*
X185303610Y-92496390D02*
X179999989Y-97800011D01*
X171000000Y-108850000D02*
X170850000Y-108850000D01*
X189205077Y-93444923D02*
X190203665Y-92446335D01*
X171934298Y-108850000D02*
X186034260Y-94750038D01*
X163150022Y-108150022D02*
X163150022Y-105149978D01*
X190203665Y-92446335D02*
X190926702Y-92446335D01*
X186034260Y-94750038D02*
X187231359Y-94750038D01*
X187231359Y-94750038D02*
X188536474Y-93444923D01*
X190926702Y-92446335D02*
X191249991Y-92446335D01*
X170850000Y-108850000D02*
X163850000Y-108850000D01*
X188536474Y-93444923D02*
X189205077Y-93444923D01*
X163850000Y-108850000D02*
X163150022Y-108150022D01*
X170850000Y-108850000D02*
X171934298Y-108850000D01*
X164155000Y-104145000D02*
X165412500Y-104145000D01*
X163625000Y-104675000D02*
X164155000Y-104145000D01*
X163625000Y-104675000D02*
X164150000Y-104150000D01*
X163150022Y-105149978D02*
X163625000Y-104675000D01*
X176600000Y-98800000D02*
X170050000Y-105400000D01*
X176749990Y-98650010D02*
X176950000Y-98650010D01*
X176600000Y-98800000D02*
X176749990Y-98650010D01*
X179752892Y-98650008D02*
X176749992Y-98650008D01*
X185252903Y-93149997D02*
X179752892Y-98650008D01*
X188300000Y-91350000D02*
X186500003Y-93149997D01*
X186500003Y-93149997D02*
X185252903Y-93149997D01*
X191250000Y-90000000D02*
X190200000Y-90000000D01*
X188849998Y-91350000D02*
X188300000Y-91350000D01*
X190200000Y-90000000D02*
X188849998Y-91350000D01*
X170035000Y-105415000D02*
X168587500Y-105415000D01*
X170050000Y-105400000D02*
X170035000Y-105415000D01*
X171650011Y-108449989D02*
X164249989Y-108449989D01*
X185749970Y-94350030D02*
X171650011Y-108449989D01*
X198750000Y-87500000D02*
X198750000Y-88632563D01*
X189024418Y-93044912D02*
X188370785Y-93044912D01*
X163550033Y-107750033D02*
X163550033Y-106099967D01*
X190969330Y-91100000D02*
X189024418Y-93044912D01*
X196282563Y-91100000D02*
X190969330Y-91100000D01*
X198750000Y-88632563D02*
X196282563Y-91100000D01*
X187065667Y-94350030D02*
X185749970Y-94350030D01*
X188370785Y-93044912D02*
X187065667Y-94350030D01*
X164249989Y-108449989D02*
X163550033Y-107750033D01*
X164235000Y-105415000D02*
X165412500Y-105415000D01*
X163750000Y-105900000D02*
X164235000Y-105415000D01*
X163750000Y-105900000D02*
X164250000Y-105400000D01*
X163550033Y-106099967D02*
X163750000Y-105900000D01*
X170085000Y-106685000D02*
X168587500Y-106685000D01*
X172283600Y-106685000D02*
X170085000Y-106685000D01*
X195504369Y-90567437D02*
X190198261Y-90567437D01*
X196160903Y-89910903D02*
X195504369Y-90567437D01*
X188865698Y-91900000D02*
X188384301Y-91900000D01*
X190198261Y-90567437D02*
X188865698Y-91900000D01*
X188384301Y-91900000D02*
X186734292Y-93550005D01*
X185418595Y-93550005D02*
X172283600Y-106685000D01*
X186734292Y-93550005D02*
X185418595Y-93550005D01*
X188426711Y-92491302D02*
X188750000Y-92491302D01*
X164335400Y-106685000D02*
X164100000Y-106920400D01*
X186899981Y-93950016D02*
X188358695Y-92491302D01*
X164600000Y-107850000D02*
X171684300Y-107850000D01*
X165412500Y-106685000D02*
X164335400Y-106685000D01*
X188358695Y-92491302D02*
X188426711Y-92491302D01*
X171684300Y-107850000D02*
X185584284Y-93950016D01*
X185584284Y-93950016D02*
X186899981Y-93950016D01*
X164100000Y-106920400D02*
X164100000Y-107350000D01*
X164100000Y-107350000D02*
X164600000Y-107850000D01*
D20*
X188330000Y-114330000D02*
X188330000Y-117100000D01*
X187120000Y-110450000D02*
X187120000Y-113120000D01*
X187120000Y-113120000D02*
X188330000Y-114330000D01*
X191680000Y-113220000D02*
X191100000Y-113800000D01*
X191680000Y-110450000D02*
X191680000Y-113220000D01*
X190870000Y-114030000D02*
X191680000Y-113220000D01*
X190870000Y-117100000D02*
X190870000Y-114030000D01*
X209310000Y-114210000D02*
X209310000Y-116550000D01*
X208295000Y-110400000D02*
X208295000Y-113195000D01*
X208295000Y-113195000D02*
X209310000Y-114210000D01*
X211850000Y-114350000D02*
X211850000Y-116550000D01*
X212855000Y-110400000D02*
X212855000Y-113345000D01*
X212855000Y-113345000D02*
X211850000Y-114350000D01*
X194250000Y-112020000D02*
X194320000Y-111950000D01*
X194195000Y-113945000D02*
X194195000Y-111950000D01*
X195330000Y-115080000D02*
X195330000Y-117100000D01*
X194195000Y-113945000D02*
X195330000Y-115080000D01*
X198880000Y-111950000D02*
X198800000Y-112030000D01*
X198800000Y-112030000D02*
X198800000Y-113750000D01*
X197870000Y-114680000D02*
X197870000Y-117100000D01*
X198800000Y-113750000D02*
X197870000Y-114680000D01*
X201350000Y-114025000D02*
X201350000Y-112230000D01*
X201350000Y-112230000D02*
X201070000Y-111950000D01*
X202230000Y-114905000D02*
X202230000Y-117100000D01*
X201350000Y-114025000D02*
X202230000Y-114905000D01*
X205630000Y-111950000D02*
X205850000Y-112170000D01*
X205805000Y-111950000D02*
X205805000Y-113800000D01*
X204770000Y-114835000D02*
X204770000Y-117100000D01*
X205805000Y-113800000D02*
X204770000Y-114835000D01*
D19*
X185300000Y-100650000D02*
X185300000Y-102826711D01*
X190200000Y-95750000D02*
X185300000Y-100650000D01*
X185300000Y-102826711D02*
X185300000Y-103150000D01*
X197250000Y-95600000D02*
X197100000Y-95750000D01*
X197250000Y-95000000D02*
X197250000Y-95600000D01*
X194689999Y-95775001D02*
X194664998Y-95750000D01*
X197100000Y-95750000D02*
X196035002Y-95750000D01*
X196035002Y-95750000D02*
X196010001Y-95775001D01*
X196010001Y-95775001D02*
X194689999Y-95775001D01*
X194664998Y-95750000D02*
X190200000Y-95750000D01*
X186770000Y-120400000D02*
X186770000Y-118970000D01*
X186770000Y-118970000D02*
X186200000Y-118400000D01*
X185300000Y-117500000D02*
X186770000Y-118970000D01*
X185300000Y-109350000D02*
X185300000Y-117500000D01*
X184500000Y-102826711D02*
X184500000Y-103100000D01*
X195350000Y-95000000D02*
X190589360Y-95000000D01*
X184500000Y-100200000D02*
X184500000Y-102826711D01*
X187549900Y-97150100D02*
X184500000Y-100200000D01*
X190589360Y-95000000D02*
X188439260Y-97150100D01*
X188439260Y-97150100D02*
X187549900Y-97150100D01*
X184500000Y-103100000D02*
X184500000Y-103150000D01*
X184230000Y-119638000D02*
X184230000Y-120400000D01*
X184230000Y-109620000D02*
X184230000Y-119638000D01*
X184500000Y-109350000D02*
X184230000Y-109620000D01*
X204750000Y-95000000D02*
X205517076Y-95000000D01*
X205749990Y-95449990D02*
X211099990Y-95449990D01*
X211099990Y-95449990D02*
X216350000Y-100700000D01*
X205300000Y-95000000D02*
X205749990Y-95449990D01*
X216350000Y-100700000D02*
X216350000Y-102534315D01*
X204750000Y-95000000D02*
X205300000Y-95000000D01*
X216350000Y-102950000D02*
X216350000Y-104050000D01*
X216350000Y-104050000D02*
X216300000Y-104100000D01*
X216350000Y-102950000D02*
X216350000Y-103100000D01*
X216350000Y-102534315D02*
X216350000Y-102950000D01*
X215770000Y-109480000D02*
X215770000Y-120400000D01*
X216300000Y-108950000D02*
X215770000Y-109480000D01*
X203100000Y-95850000D02*
X210750000Y-95850000D01*
X202850000Y-95000000D02*
X202850000Y-95600000D01*
X215000000Y-100100000D02*
X215000000Y-103050000D01*
X210750000Y-95850000D02*
X215000000Y-100100000D01*
X202850000Y-95600000D02*
X203100000Y-95850000D01*
X215000000Y-103050000D02*
X215000000Y-104100000D01*
X215000000Y-108950000D02*
X215000000Y-116350000D01*
X213230000Y-118120000D02*
X213230000Y-120400000D01*
X215000000Y-116350000D02*
X213230000Y-118120000D01*
X194700000Y-99150000D02*
X194650000Y-99150000D01*
X194700000Y-99150000D02*
X193650000Y-99150000D01*
X196450000Y-110273289D02*
X196650000Y-110473289D01*
X196450000Y-109950000D02*
X196450000Y-110273289D01*
X196650000Y-110473289D02*
X196650000Y-118550000D01*
X196270000Y-118930000D02*
X196270000Y-120400000D01*
X196650000Y-118550000D02*
X196270000Y-118930000D01*
X194700000Y-101050000D02*
X193800000Y-101050000D01*
X193150000Y-109750000D02*
X192850000Y-110050000D01*
X192850000Y-110050000D02*
X192850000Y-117250000D01*
X193730000Y-118130000D02*
X193730000Y-120400000D01*
X192850000Y-117250000D02*
X193730000Y-118130000D01*
X205300000Y-101050000D02*
X206150000Y-101050000D01*
X206470000Y-120400000D02*
X206470000Y-119530000D01*
X205300000Y-101050000D02*
X205900000Y-101050000D01*
X206800000Y-103650000D02*
X206850000Y-103700000D01*
X206470000Y-118680000D02*
X206470000Y-120400000D01*
X207100000Y-110573289D02*
X207100000Y-118050000D01*
X206850000Y-110000000D02*
X206850000Y-110323289D01*
X207100000Y-118050000D02*
X206470000Y-118680000D01*
X206850000Y-110323289D02*
X207100000Y-110573289D01*
X205300000Y-99150000D02*
X206200000Y-99150000D01*
X203930000Y-120400000D02*
X203930000Y-119520000D01*
X203750000Y-110350000D02*
X203450000Y-110650000D01*
X203450000Y-110650000D02*
X203450000Y-118450000D01*
X203930000Y-118930000D02*
X203930000Y-120400000D01*
X203450000Y-118450000D02*
X203930000Y-118930000D01*
X200250000Y-69875000D02*
X200250000Y-72250000D01*
D21*
G36*
X203021194Y-96246183D02*
G01*
X203080253Y-96252000D01*
X203080260Y-96252000D01*
X203099999Y-96253944D01*
X203119739Y-96252000D01*
X207199541Y-96252000D01*
X210393510Y-96276569D01*
X212386456Y-98463948D01*
X213229664Y-101321488D01*
X207840869Y-101273799D01*
X206820083Y-98308660D01*
X206809711Y-98286027D01*
X206795122Y-98265853D01*
X206776878Y-98248912D01*
X206755680Y-98235856D01*
X206732342Y-98227187D01*
X206700000Y-98223000D01*
X204500000Y-98223000D01*
X204475224Y-98225440D01*
X204451399Y-98232667D01*
X204429443Y-98244403D01*
X204410197Y-98260197D01*
X204394403Y-98279443D01*
X204382667Y-98301399D01*
X204375440Y-98325224D01*
X204373000Y-98350000D01*
X204373000Y-98473000D01*
X201929560Y-98473000D01*
X201912062Y-98465752D01*
X201804722Y-98444400D01*
X201695278Y-98444400D01*
X201587938Y-98465752D01*
X201570440Y-98473000D01*
X200627000Y-98473000D01*
X200627000Y-97600000D01*
X200624560Y-97575224D01*
X200617333Y-97551399D01*
X200605597Y-97529443D01*
X200589803Y-97510197D01*
X200027000Y-96947394D01*
X200027000Y-96227000D01*
X202957954Y-96227000D01*
X203021194Y-96246183D01*
G37*
X203021194Y-96246183D02*
X203080253Y-96252000D01*
X203080260Y-96252000D01*
X203099999Y-96253944D01*
X203119739Y-96252000D01*
X207199541Y-96252000D01*
X210393510Y-96276569D01*
X212386456Y-98463948D01*
X213229664Y-101321488D01*
X207840869Y-101273799D01*
X206820083Y-98308660D01*
X206809711Y-98286027D01*
X206795122Y-98265853D01*
X206776878Y-98248912D01*
X206755680Y-98235856D01*
X206732342Y-98227187D01*
X206700000Y-98223000D01*
X204500000Y-98223000D01*
X204475224Y-98225440D01*
X204451399Y-98232667D01*
X204429443Y-98244403D01*
X204410197Y-98260197D01*
X204394403Y-98279443D01*
X204382667Y-98301399D01*
X204375440Y-98325224D01*
X204373000Y-98350000D01*
X204373000Y-98473000D01*
X201929560Y-98473000D01*
X201912062Y-98465752D01*
X201804722Y-98444400D01*
X201695278Y-98444400D01*
X201587938Y-98465752D01*
X201570440Y-98473000D01*
X200627000Y-98473000D01*
X200627000Y-97600000D01*
X200624560Y-97575224D01*
X200617333Y-97551399D01*
X200605597Y-97529443D01*
X200589803Y-97510197D01*
X200027000Y-96947394D01*
X200027000Y-96227000D01*
X202957954Y-96227000D01*
X203021194Y-96246183D01*
G36*
X204273000Y-101400000D02*
G01*
X204275440Y-101424776D01*
X204282667Y-101448601D01*
X204294403Y-101470557D01*
X204310197Y-101489803D01*
X204610197Y-101789803D01*
X204629443Y-101805597D01*
X204651399Y-101817333D01*
X204675224Y-101824560D01*
X204700000Y-101827000D01*
X205873000Y-101827000D01*
X205873000Y-102373000D01*
X200327000Y-102373000D01*
X200327000Y-101045980D01*
X200797564Y-100481303D01*
X200811551Y-100460707D01*
X200821251Y-100437778D01*
X200826291Y-100413398D01*
X200827000Y-100400000D01*
X200827000Y-100300000D01*
X200824560Y-100275224D01*
X200817333Y-100251399D01*
X200805597Y-100229443D01*
X200782651Y-100203574D01*
X200127000Y-99641587D01*
X200127000Y-99027000D01*
X204273000Y-99027000D01*
X204273000Y-101400000D01*
G37*
X204273000Y-101400000D02*
X204275440Y-101424776D01*
X204282667Y-101448601D01*
X204294403Y-101470557D01*
X204310197Y-101489803D01*
X204610197Y-101789803D01*
X204629443Y-101805597D01*
X204651399Y-101817333D01*
X204675224Y-101824560D01*
X204700000Y-101827000D01*
X205873000Y-101827000D01*
X205873000Y-102373000D01*
X200327000Y-102373000D01*
X200327000Y-101045980D01*
X200797564Y-100481303D01*
X200811551Y-100460707D01*
X200821251Y-100437778D01*
X200826291Y-100413398D01*
X200827000Y-100400000D01*
X200827000Y-100300000D01*
X200824560Y-100275224D01*
X200817333Y-100251399D01*
X200805597Y-100229443D01*
X200782651Y-100203574D01*
X200127000Y-99641587D01*
X200127000Y-99027000D01*
X204273000Y-99027000D01*
X204273000Y-101400000D01*
G36*
X199373000Y-99700000D02*
G01*
X199375440Y-99724776D01*
X199382667Y-99748601D01*
X199394403Y-99770557D01*
X199418697Y-99797564D01*
X199973000Y-100259483D01*
X199973000Y-100547394D01*
X199610197Y-100910197D01*
X199594403Y-100929443D01*
X199582667Y-100951399D01*
X199575440Y-100975224D01*
X199573000Y-101000000D01*
X199573000Y-102373000D01*
X194027000Y-102373000D01*
X194027000Y-101927000D01*
X195700000Y-101927000D01*
X195724776Y-101924560D01*
X195748601Y-101917333D01*
X195770557Y-101905597D01*
X195789803Y-101889803D01*
X195805597Y-101870557D01*
X195817333Y-101848601D01*
X195824560Y-101824776D01*
X195827000Y-101800000D01*
X195827000Y-99327000D01*
X198600000Y-99327000D01*
X198624776Y-99324560D01*
X198648601Y-99317333D01*
X198670557Y-99305597D01*
X198689803Y-99289803D01*
X198701600Y-99276200D01*
X198963500Y-98927000D01*
X199373000Y-98927000D01*
X199373000Y-99700000D01*
G37*
X199373000Y-99700000D02*
X199375440Y-99724776D01*
X199382667Y-99748601D01*
X199394403Y-99770557D01*
X199418697Y-99797564D01*
X199973000Y-100259483D01*
X199973000Y-100547394D01*
X199610197Y-100910197D01*
X199594403Y-100929443D01*
X199582667Y-100951399D01*
X199575440Y-100975224D01*
X199573000Y-101000000D01*
X199573000Y-102373000D01*
X194027000Y-102373000D01*
X194027000Y-101927000D01*
X195700000Y-101927000D01*
X195724776Y-101924560D01*
X195748601Y-101917333D01*
X195770557Y-101905597D01*
X195789803Y-101889803D01*
X195805597Y-101870557D01*
X195817333Y-101848601D01*
X195824560Y-101824776D01*
X195827000Y-101800000D01*
X195827000Y-99327000D01*
X198600000Y-99327000D01*
X198624776Y-99324560D01*
X198648601Y-99317333D01*
X198670557Y-99305597D01*
X198689803Y-99289803D01*
X198701600Y-99276200D01*
X198963500Y-98927000D01*
X199373000Y-98927000D01*
X199373000Y-99700000D01*
G36*
X190998934Y-96226996D02*
G01*
X191000000Y-96227000D01*
X199473000Y-96227000D01*
X199473000Y-97200000D01*
X199475440Y-97224776D01*
X199482667Y-97248601D01*
X199494403Y-97270557D01*
X199510197Y-97289803D01*
X199873000Y-97652606D01*
X199873000Y-98373000D01*
X198700000Y-98373000D01*
X198675224Y-98375440D01*
X198651399Y-98382667D01*
X198629443Y-98394403D01*
X198610197Y-98410197D01*
X198447394Y-98573000D01*
X195927000Y-98573000D01*
X195927000Y-98350000D01*
X195924560Y-98325224D01*
X195917333Y-98301399D01*
X195905597Y-98279443D01*
X195889803Y-98260197D01*
X195870557Y-98244403D01*
X195848601Y-98232667D01*
X195824776Y-98225440D01*
X195800000Y-98223000D01*
X193200000Y-98223000D01*
X193175224Y-98225440D01*
X193151399Y-98232667D01*
X193129443Y-98244403D01*
X193110197Y-98260197D01*
X193094403Y-98279443D01*
X193078707Y-98312357D01*
X192206438Y-101123000D01*
X186781318Y-101123000D01*
X187573206Y-98945307D01*
X190297405Y-96221109D01*
X190998934Y-96226996D01*
G37*
X190998934Y-96226996D02*
X191000000Y-96227000D01*
X199473000Y-96227000D01*
X199473000Y-97200000D01*
X199475440Y-97224776D01*
X199482667Y-97248601D01*
X199494403Y-97270557D01*
X199510197Y-97289803D01*
X199873000Y-97652606D01*
X199873000Y-98373000D01*
X198700000Y-98373000D01*
X198675224Y-98375440D01*
X198651399Y-98382667D01*
X198629443Y-98394403D01*
X198610197Y-98410197D01*
X198447394Y-98573000D01*
X195927000Y-98573000D01*
X195927000Y-98350000D01*
X195924560Y-98325224D01*
X195917333Y-98301399D01*
X195905597Y-98279443D01*
X195889803Y-98260197D01*
X195870557Y-98244403D01*
X195848601Y-98232667D01*
X195824776Y-98225440D01*
X195800000Y-98223000D01*
X193200000Y-98223000D01*
X193175224Y-98225440D01*
X193151399Y-98232667D01*
X193129443Y-98244403D01*
X193110197Y-98260197D01*
X193094403Y-98279443D01*
X193078707Y-98312357D01*
X192206438Y-101123000D01*
X186781318Y-101123000D01*
X187573206Y-98945307D01*
X190297405Y-96221109D01*
X190998934Y-96226996D01*
M02*
