G04 #@! TF.GenerationSoftware,KiCad,Pcbnew,5.1.5+dfsg1-2build2*
G04 #@! TF.CreationDate,2020-09-29T14:15:32-07:00*
G04 #@! TF.ProjectId,PD_ElectrodeBoard_v4,50445f45-6c65-4637-9472-6f6465426f61,4.1*
G04 #@! TF.SameCoordinates,Original*
G04 #@! TF.FileFunction,Soldermask,Top*
G04 #@! TF.FilePolarity,Negative*
%FSLAX46Y46*%
G04 Gerber Fmt 4.6, Leading zero omitted, Abs format (unit mm)*
G04 Created by KiCad (PCBNEW 5.1.5+dfsg1-2build2) date 2020-09-29 14:15:32*
%MOMM*%
%LPD*%
G04 APERTURE LIST*
%ADD10C,0.100000*%
G04 APERTURE END LIST*
D10*
G36*
X250000000Y-123966370D02*
G01*
X150000000Y-123966370D01*
X150000000Y-80954999D01*
X178830000Y-80954999D01*
X178830000Y-86805001D01*
X178831441Y-86819633D01*
X178835709Y-86833702D01*
X178842640Y-86846668D01*
X178851967Y-86858033D01*
X178863332Y-86867360D01*
X178876298Y-86874291D01*
X178890367Y-86878559D01*
X178904999Y-86880000D01*
X184755001Y-86880000D01*
X184769633Y-86878559D01*
X184783702Y-86874291D01*
X184796668Y-86867360D01*
X184808033Y-86858033D01*
X184817360Y-86846668D01*
X184824291Y-86833702D01*
X184828559Y-86819633D01*
X184830000Y-86805001D01*
X184830000Y-80954999D01*
X215030000Y-80954999D01*
X215030000Y-86805001D01*
X215031441Y-86819633D01*
X215035709Y-86833702D01*
X215042640Y-86846668D01*
X215051967Y-86858033D01*
X215063332Y-86867360D01*
X215076298Y-86874291D01*
X215090367Y-86878559D01*
X215104999Y-86880000D01*
X220955001Y-86880000D01*
X220969633Y-86878559D01*
X220983702Y-86874291D01*
X220996668Y-86867360D01*
X221008033Y-86858033D01*
X221017360Y-86846668D01*
X221024291Y-86833702D01*
X221028559Y-86819633D01*
X221030000Y-86805001D01*
X221030000Y-80954999D01*
X221028559Y-80940367D01*
X221024291Y-80926298D01*
X221017360Y-80913332D01*
X221008033Y-80901967D01*
X220996668Y-80892640D01*
X220983702Y-80885709D01*
X220969633Y-80881441D01*
X220955001Y-80880000D01*
X215104999Y-80880000D01*
X215090367Y-80881441D01*
X215076298Y-80885709D01*
X215063332Y-80892640D01*
X215051967Y-80901967D01*
X215042640Y-80913332D01*
X215035709Y-80926298D01*
X215031441Y-80940367D01*
X215030000Y-80954999D01*
X184830000Y-80954999D01*
X184828559Y-80940367D01*
X184824291Y-80926298D01*
X184817360Y-80913332D01*
X184808033Y-80901967D01*
X184796668Y-80892640D01*
X184783702Y-80885709D01*
X184769633Y-80881441D01*
X184755001Y-80880000D01*
X178904999Y-80880000D01*
X178890367Y-80881441D01*
X178876298Y-80885709D01*
X178863332Y-80892640D01*
X178851967Y-80901967D01*
X178842640Y-80913332D01*
X178835709Y-80926298D01*
X178831441Y-80940367D01*
X178830000Y-80954999D01*
X150000000Y-80954999D01*
X150000000Y-64554999D01*
X196730000Y-64554999D01*
X196730000Y-70405001D01*
X196731441Y-70419633D01*
X196735709Y-70433702D01*
X196742640Y-70446668D01*
X196751967Y-70458033D01*
X196763332Y-70467360D01*
X196776298Y-70474291D01*
X196790367Y-70478559D01*
X196804999Y-70480000D01*
X202655001Y-70480000D01*
X202669633Y-70478559D01*
X202683702Y-70474291D01*
X202696668Y-70467360D01*
X202708033Y-70458033D01*
X202717360Y-70446668D01*
X202724291Y-70433702D01*
X202728559Y-70419633D01*
X202730000Y-70405001D01*
X202730000Y-64554999D01*
X202728559Y-64540367D01*
X202724291Y-64526298D01*
X202717360Y-64513332D01*
X202708033Y-64501967D01*
X202696668Y-64492640D01*
X202683702Y-64485709D01*
X202669633Y-64481441D01*
X202655001Y-64480000D01*
X196804999Y-64480000D01*
X196790367Y-64481441D01*
X196776298Y-64485709D01*
X196763332Y-64492640D01*
X196751967Y-64501967D01*
X196742640Y-64513332D01*
X196735709Y-64526298D01*
X196731441Y-64540367D01*
X196730000Y-64554999D01*
X150000000Y-64554999D01*
X150000000Y-49966370D01*
X250000000Y-49966370D01*
X250000000Y-123966370D01*
G37*
M02*
